<svg xmlns="http://www.w3.org/2000/svg" xmlns:xlink="http://www.w3.org/1999/xlink" fill="none" version="1.1" width="109" height="81.76708984375" viewBox="0 0 109 81.76708984375"><g><g><path d="M71.53095626831055,44.29050869445801C71.53095626831055,48.80850869445801,69.73655626831055,53.141308694458004,66.54265626831055,56.33600869445801C63.34865626831055,59.53060869445801,59.016756268310544,61.32530869445801,54.499656268310545,61.32530869445801C49.982756268310546,61.32530869445801,45.65077626831055,59.53060869445801,42.456786268310545,56.33600869445801C39.262816268310544,53.141308694458004,37.468456268310554,48.80850869445801,37.46845626831055,44.29050869445801C37.468456268310554,39.77260869445801,39.262816268310544,35.439748694458004,42.456786268310545,32.245088694458005C45.65077626831055,29.05044869445801,49.982756268310546,27.255708694458008,54.499656268310545,27.255708694458008C59.016756268310544,27.255708694458008,63.34865626831055,29.05044869445801,66.54265626831055,32.245088694458005C69.73655626831055,35.439748694458004,71.53095626831055,39.77260869445801,71.53095626831055,44.29050869445801C71.53095626831055,44.29050869445801,71.53095626831055,44.29050869445801,71.53095626831055,44.29050869445801C71.53095626831055,44.29050869445801,71.53095626831055,44.29050869445801,71.53095626831055,44.29050869445801Z" fill="#AEAEAE" fill-opacity="1"/></g><g><path d="M13.625,13.6279C10.0114,13.6279,6.54586,15.0636,3.99068,17.6193C1.43549,20.175,3.68715e-15,23.6414,0,27.2557C0,27.2557,2.64718e-15,68.1393,2.64718e-15,68.1393C4.63258e-15,71.7536,1.43549,75.22,3.99068,77.7757C6.54586,80.3313,10.0114,81.7671,13.625,81.7671C13.625,81.7671,95.375,81.7671,95.375,81.7671C98.9885,81.7671,102.454,80.3313,105.009,77.7757C107.564,75.22,109,71.7536,109,68.1393C109,68.1393,109,27.2557,109,27.2557C109,23.6414,107.564,20.175,105.009,17.6193C102.454,15.0636,98.9885,13.6279,95.375,13.6279C95.375,13.6279,87.3907,13.6279,87.3907,13.6279C83.7774,13.6271,80.3124,12.1908,77.7579,9.6349C77.7579,9.6349,72.1171,3.99296,72.1171,3.99296C69.5626,1.43707,66.0976,0.000771846,62.4842,0C62.4842,0,46.5157,0,46.5157,0C42.9024,0.000771846,39.4374,1.43707,36.8829,3.99296C36.8829,3.99296,31.2421,9.6349,31.2421,9.6349C28.6876,12.1908,25.2226,13.6271,21.6092,13.6279C21.6092,13.6279,13.625,13.6279,13.625,13.6279C13.625,13.6279,13.625,13.6279,13.625,13.6279ZM17.0312,27.2557C17.9346,27.2557,18.801,26.8968,19.4398,26.2578C20.0786,25.6188,20.4375,24.7523,20.4375,23.8488C20.4375,22.9452,20.0786,22.0787,19.4398,21.4397C18.801,20.8007,17.9346,20.4418,17.0312,20.4418C16.1279,20.4418,15.2615,20.8007,14.6227,21.4397C13.9839,22.0787,13.625,22.9452,13.625,23.8488C13.625,24.7523,13.9839,25.6188,14.6227,26.2578C15.2615,26.8968,16.1279,27.2557,17.0312,27.2557C17.0312,27.2557,17.0312,27.2557,17.0312,27.2557ZM78.3437,44.2905C78.3437,50.6156,75.8316,56.6817,71.3601,61.1542C66.8885,65.6267,60.8237,68.1393,54.5,68.1393C48.1763,68.1393,42.1115,65.6267,37.6399,61.1542C33.1684,56.6817,30.6562,50.6156,30.6562,44.2905C30.6562,37.9655,33.1684,31.8994,37.6399,27.4269C42.1115,22.9544,48.1763,20.4418,54.5,20.4418C60.8237,20.4418,66.8885,22.9544,71.3601,27.4269C75.8316,31.8994,78.3437,37.9655,78.3437,44.2905C78.3437,44.2905,78.3437,44.2905,78.3437,44.2905C78.3437,44.2905,78.3437,44.2905,78.3437,44.2905Z" fill-rule="evenodd" fill="#AEAEAE" fill-opacity="1"/></g></g></svg>