<svg xmlns="http://www.w3.org/2000/svg" xmlns:xlink="http://www.w3.org/1999/xlink" fill="none" version="1.1" width="64" height="64" viewBox="0 0 64 64"><defs><clipPath id="master_svg0_42_16777"><rect x="0" y="0" width="64" height="64" rx="0"/></clipPath></defs><g clip-path="url(#master_svg0_42_16777)"><g><path d="M31.999583834838866,37.33338928222656C36.42618383483887,37.33338928222656,39.97288383483887,33.76008928222656,39.97288383483887,29.333389282226562C39.97288383483887,29.333389282226562,39.999583834838866,13.333389282226562,39.999583834838866,13.333389282226562C39.999583834838866,8.906719282226563,36.42618383483887,5.3333892822265625,31.999583834838866,5.3333892822265625C27.57288383483887,5.3333892822265625,23.999583834838866,8.906719282226563,23.999583834838866,13.333389282226562C23.999583834838866,13.333389282226562,23.999583834838866,29.333389282226562,23.999583834838866,29.333389282226562C23.999583834838866,33.76008928222656,27.57288383483887,37.33338928222656,31.999583834838866,37.33338928222656C31.999583834838866,37.33338928222656,31.999583834838866,37.33338928222656,31.999583834838866,37.33338928222656ZM46.132883834838864,29.333389282226562C46.132883834838864,37.33338928222656,39.35958383483887,42.933389282226564,31.999583834838866,42.933389282226564C24.639583834838866,42.933389282226564,17.866213834838867,37.33338928222656,17.866213834838867,29.333389282226562C17.866213834838867,29.333389282226562,13.332883834838867,29.333389282226562,13.332883834838867,29.333389282226562C13.332883834838867,38.42668928222656,20.586213834838865,45.946689282226565,29.332883834838867,47.253389282226564C29.332883834838867,47.253389282226564,29.332883834838867,56.00008928222656,29.332883834838867,56.00008928222656C29.332883834838867,56.00008928222656,34.66618383483887,56.00008928222656,34.66618383483887,56.00008928222656C34.66618383483887,56.00008928222656,34.66618383483887,47.253389282226564,34.66618383483887,47.253389282226564C43.412883834838865,45.97338928222656,50.66618383483887,38.45338928222656,50.66618383483887,29.333389282226562C50.66618383483887,29.333389282226562,46.132883834838864,29.333389282226562,46.132883834838864,29.333389282226562C46.132883834838864,29.333389282226562,46.132883834838864,29.333389282226562,46.132883834838864,29.333389282226562Z" fill="#FFFFFF" fill-opacity="1"/></g></g></svg>