<svg xmlns="http://www.w3.org/2000/svg" xmlns:xlink="http://www.w3.org/1999/xlink" fill="none" version="1.1" width="72.27587890625" height="69.51724243164062" viewBox="0 0 72.27587890625 69.51724243164062"><defs><clipPath id="master_svg0_42_16552"><rect x="0" y="0" width="72.27587890625" height="69.51724243164062" rx="0"/></clipPath></defs><g clip-path="url(#master_svg0_42_16552)"><g><path d="M57.218223828125,31.86196875C57.218223828125,31.86196875,52.098823828125,31.86196875,52.098823828125,31.86196875C52.098823828125,34.00546875,51.616923828125,36.00406875,50.803723828125,37.79976875C50.803723828125,37.79976875,54.507923828125,41.36256875,54.507923828125,41.36256875C56.194423828125,38.52406875,57.218223828125,35.30886875,57.218223828125,31.86196875C57.218223828125,31.86196875,57.218223828125,31.86196875,57.218223828125,31.86196875C57.218223828125,31.86196875,57.218223828125,31.86196875,57.218223828125,31.86196875ZM45.112023828125,32.354468749999995C45.112023828125,32.180668749999995,45.172323828125,32.03576875,45.172323828125,31.86196875C45.172323828125,31.86196875,45.172323828125,14.48262875,45.172323828125,14.48262875C45.172323828125,9.67435875,41.136923828125,5.79296875,36.137823828125,5.79296875C31.138823828125,5.79296875,27.103423828125,9.67435875,27.103423828125,14.48262875C27.103423828125,14.48262875,27.103423828125,15.00399875,27.103423828125,15.00399875C27.103423828125,15.00399875,45.112023828125,32.354468749999995,45.112023828125,32.354468749999995C45.112023828125,32.354468749999995,45.112023828125,32.354468749999995,45.112023828125,32.354468749999995ZM12.859013828125,8.68950875C12.859013828125,8.68950875,9.034423828125,12.36814875,9.034423828125,12.36814875C9.034423828125,12.36814875,27.133523828125,29.77636875,27.133523828125,29.77636875C27.133523828125,29.77636875,27.133523828125,31.86196875,27.133523828125,31.86196875C27.133523828125,36.67016875,31.138823828125,40.55156875,36.137823828125,40.55156875C36.800323828125,40.55156875,37.463023828125,40.46466875,38.095423828125,40.31976875C38.095423828125,40.31976875,43.094423828125,45.12816875,43.094423828125,45.12816875C40.956223828125005,46.08406875,38.577223828125,46.63436875,36.137823828125,46.63436875C27.826123828125,46.63436875,20.176923828125,40.55156875,20.176923828125,31.86196875C20.176923828125,31.86196875,15.057423828125,31.86196875,15.057423828125,31.86196875C15.057423828125,41.73926875,23.248623828124998,49.90756875,33.126423828125,51.32676875C33.126423828125,51.32676875,33.126423828125,60.82736875,33.126423828125,60.82736875C33.126423828125,60.82736875,39.149323828125,60.82736875,39.149323828125,60.82736875C39.149323828125,60.82736875,39.149323828125,51.32676875,39.149323828125,51.32676875C41.889923828125,50.95026875,44.479623828125,50.02326875,46.798523828125,48.71986875C46.798523828125,48.71986875,59.416823828125,60.82736875,59.416823828125,60.82736875C59.416823828125,60.82736875,63.241323828125,57.14886875,63.241323828125,57.14886875C63.241323828125,57.14886875,12.859013828125,8.68950875,12.859013828125,8.68950875C12.859013828125,8.68950875,12.859013828125,8.68950875,12.859013828125,8.68950875Z" fill="#FFFFFF" fill-opacity="1"/></g></g></svg>