<svg xmlns="http://www.w3.org/2000/svg" xmlns:xlink="http://www.w3.org/1999/xlink" fill="none" version="1.1" width="17.74951171875" height="19.899818420410156" viewBox="0 0 17.74951171875 19.899818420410156"><g><g><g transform="matrix(0.6498424410820007,0.760068953037262,-0.6498424410820007,0.7600688934326172,13.584918282909541,-5.523076373581318)"><line x1="11.84999942779541" y1="13.519752502441406" x2="17.928395748138428" y2="13.519752502441406" fill-opacity="0" stroke-opacity="1" stroke="#FFFFFF" fill="none" stroke-width="2" stroke-linecap="ROUND"/></g><g><path d="M7.33571,17.16Q7.51579,17.16,7.69566,17.1497Q7.87552,17.1393,8.05474,17.1187Q8.23395,17.098,8.41208,17.0671Q8.59022,17.0362,8.76684,16.9951Q8.94346,16.954,9.11814,16.9029Q9.29283,16.8517,9.46516,16.7905Q9.63748,16.7294,9.80704,16.6584Q9.97659,16.5875,10.143,16.5069Q10.3093,16.4263,10.4721,16.3362Q10.6349,16.2462,10.7937,16.1469Q10.9526,16.0476,11.107,15.9393Q11.2615,15.831,11.4112,15.714Q11.5609,15.597,11.7056,15.4715Q11.8502,15.346,11.9894,15.2124Q12.1286,15.0788,12.2621,14.9374Q12.3955,14.7959,12.5228,14.647Q12.6502,14.498,12.7711,14.342Q12.8921,14.1859,13.0063,14.0231Q13.1205,13.8603,13.2278,13.6911Q13.3351,13.5219,13.4351,13.3468Q13.5352,13.1717,13.6278,12.991Q13.7203,12.8103,13.8052,12.6246Q13.8901,12.4388,13.9671,12.2484Q14.0441,12.058,14.113,11.8634Q14.1819,11.6688,14.2426,11.4705Q14.3033,11.2722,14.3556,11.0706Q14.4078,10.8691,14.4516,10.6648Q14.4953,10.4605,14.5305,10.2539Q14.5656,10.0473,14.592,9.83895Q14.6184,9.6306,14.6361,9.42099Q14.6538,9.21137,14.6626,9.001Q14.6714,8.79063,14.6714,8.58Q14.6714,8.36937,14.6626,8.159Q14.6538,7.94862,14.6361,7.73901Q14.6184,7.5294,14.592,7.32105Q14.5656,7.1127,14.5305,6.90612Q14.4953,6.69954,14.4516,6.49523Q14.4078,6.29091,14.3556,6.08936Q14.3033,5.8878,14.2426,5.68948Q14.1819,5.49117,14.113,5.29658Q14.0441,5.10198,13.9671,4.91158Q13.8901,4.72117,13.8052,4.53542Q13.7203,4.34966,13.6278,4.169Q13.5352,3.98834,13.4351,3.81321Q13.3351,3.63808,13.2278,3.4689Q13.1205,3.29972,13.0063,3.1369Q12.8921,2.97409,12.7711,2.81802Q12.6502,2.66196,12.5228,2.51302Q12.3955,2.36409,12.2621,2.22264Q12.1286,2.08119,11.9894,1.94757Q11.8502,1.81395,11.7056,1.68848Q11.5609,1.56301,11.4112,1.44599Q11.2615,1.32897,11.107,1.22069Q10.9526,1.1124,10.7937,1.01312Q10.6349,0.913826,10.4721,0.823772Q10.3093,0.733717,10.143,0.653113Q9.97659,0.57251,9.80704,0.501552Q9.63748,0.430594,9.46516,0.369452Q9.29283,0.30831,9.11814,0.257132Q8.94346,0.205954,8.76684,0.164862Q8.59022,0.123771,8.41208,0.0928655Q8.23395,0.0619601,8.05474,0.041315Q7.87552,0.02067,7.69566,0.010335Q7.51579,0,7.33571,0Q7.15563,0,6.97577,0.010335Q6.7959,0.02067,6.61669,0.041315Q6.43747,0.0619601,6.25934,0.0928655Q6.08121,0.123771,5.90459,0.164862Q5.72796,0.205954,5.55328,0.257132Q5.37859,0.30831,5.20627,0.369452Q5.03394,0.430594,4.86439,0.501552Q4.69483,0.57251,4.52846,0.653113Q4.36208,0.733717,4.19929,0.823772Q4.0365,0.913826,3.87768,1.01312Q3.71886,1.1124,3.5644,1.22069Q3.40994,1.32897,3.26021,1.44599Q3.11048,1.56301,2.96583,1.68848Q2.82119,1.81395,2.68199,1.94757Q2.54278,2.08119,2.40935,2.22264Q2.27592,2.36409,2.14858,2.51302Q2.02124,2.66196,1.90031,2.81802Q1.77937,2.97409,1.66513,3.1369Q1.55089,3.29972,1.44361,3.4689Q1.33634,3.63808,1.23629,3.81321Q1.13624,3.98834,1.04366,4.169Q0.951082,4.34966,0.866192,4.53542Q0.781302,4.72117,0.704307,4.91158Q0.627312,5.10198,0.558398,5.29658Q0.489484,5.49117,0.428816,5.68948Q0.368148,5.8878,0.315873,6.08936Q0.263598,6.29091,0.219842,6.49523Q0.176086,6.69954,0.140954,6.90612Q0.105821,7.1127,0.079398,7.32105Q0.0529745,7.5294,0.0353235,7.73901Q0.0176724,7.94862,0.00883619,8.159Q0,8.36937,0,8.58Q0,8.79063,0.00883619,9.001Q0.0176724,9.21137,0.0353235,9.42099Q0.0529745,9.6306,0.079398,9.83895Q0.105821,10.0473,0.140954,10.2539Q0.176086,10.4605,0.219842,10.6648Q0.263598,10.8691,0.315873,11.0706Q0.368148,11.2722,0.428816,11.4705Q0.489484,11.6688,0.558398,11.8634Q0.627312,12.058,0.704307,12.2484Q0.781302,12.4388,0.866192,12.6246Q0.951082,12.8103,1.04366,12.991Q1.13624,13.1717,1.23629,13.3468Q1.33634,13.5219,1.44361,13.6911Q1.55089,13.8603,1.66513,14.0231Q1.77937,14.1859,1.90031,14.342Q2.02124,14.498,2.14858,14.647Q2.27592,14.7959,2.40935,14.9374Q2.54278,15.0788,2.68199,15.2124Q2.82119,15.346,2.96583,15.4715Q3.11048,15.597,3.26021,15.714Q3.40994,15.831,3.5644,15.9393Q3.71886,16.0476,3.87768,16.1469Q4.0365,16.2462,4.19929,16.3362Q4.36208,16.4263,4.52846,16.5069Q4.69483,16.5875,4.86439,16.6584Q5.03394,16.7294,5.20627,16.7905Q5.37859,16.8517,5.55328,16.9029Q5.72796,16.954,5.90459,16.9951Q6.08121,17.0362,6.25934,17.0671Q6.43747,17.098,6.61669,17.1187Q6.7959,17.1393,6.97577,17.1497Q7.15563,17.16,7.33571,17.16ZM11.0027,3.81271Q12.6714,5.76447,12.6714,8.58Q12.6714,11.3955,11.0027,13.3473Q9.45288,15.16,7.33571,15.16Q5.21855,15.16,3.66872,13.3473Q2,11.3955,2,8.58Q2,5.76448,3.66872,3.81271Q5.21854,2,7.33571,2Q9.45288,2,11.0027,3.81271Z" fill-rule="evenodd" fill="#FFFFFF" fill-opacity="1"/></g></g></g></svg>