<svg xmlns="http://www.w3.org/2000/svg" xmlns:xlink="http://www.w3.org/1999/xlink" fill="none" version="1.1" width="29" height="30" viewBox="0 0 29 30"><defs><clipPath id="master_svg0_42_09607"><rect x="0" y="0" width="29" height="30" rx="0"/></clipPath></defs><g clip-path="url(#master_svg0_42_09607)"><g><path d="M1.2083333730697632,26.25C1.2083333730697632,26.25,27.791633373069764,26.25,27.791633373069764,26.25C27.791633373069764,26.25,14.500033373069764,2.5,14.500033373069764,2.5C14.500033373069764,2.5,1.2083333730697632,26.25,1.2083333730697632,26.25C1.2083333730697632,26.25,1.2083333730697632,26.25,1.2083333730697632,26.25ZM5.401253373069763,23.75C5.401253373069763,23.75,14.500033373069764,7.4875,14.500033373069764,7.4875C14.500033373069764,7.4875,23.598733373069763,23.75,23.598733373069763,23.75C23.598733373069763,23.75,5.401253373069763,23.75,5.401253373069763,23.75C5.401253373069763,23.75,5.401253373069763,23.75,5.401253373069763,23.75C5.401253373069763,23.75,5.401253373069763,23.75,5.401253373069763,23.75ZM13.291633373069763,20C13.291633373069763,20,15.708333373069763,20,15.708333373069763,20C15.708333373069763,20,15.708333373069763,22.5,15.708333373069763,22.5C15.708333373069763,22.5,13.291633373069763,22.5,13.291633373069763,22.5C13.291633373069763,22.5,13.291633373069763,20,13.291633373069763,20C13.291633373069763,20,13.291633373069763,20,13.291633373069763,20ZM13.291633373069763,12.5C13.291633373069763,12.5,15.708333373069763,12.5,15.708333373069763,12.5C15.708333373069763,12.5,15.708333373069763,17.5,15.708333373069763,17.5C15.708333373069763,17.5,13.291633373069763,17.5,13.291633373069763,17.5C13.291633373069763,17.5,13.291633373069763,12.5,13.291633373069763,12.5C13.291633373069763,12.5,13.291633373069763,12.5,13.291633373069763,12.5Z" fill="#E83274" fill-opacity="1"/></g></g></svg>