<svg xmlns="http://www.w3.org/2000/svg" xmlns:xlink="http://www.w3.org/1999/xlink" fill="none" version="1.1" width="12" height="12" viewBox="0 0 12 12"><defs><linearGradient x1="1" y1="0.5" x2="0" y2="0.5" id="master_svg0_42_24422"><stop offset="60.00000238418579%" stop-color="#FFFFFF" stop-opacity="1"/><stop offset="100%" stop-color="#FFFFFF" stop-opacity="0"/></linearGradient></defs><g><rect x="0" y="0" width="12" height="12" rx="0" fill="url(#master_svg0_42_24422)" fill-opacity="1"/><g><path d="M5.45568,2L3.207938,2C3.124109,2,3.0774849,2.0969491,3.129822,2.162433L6.325810000000001,6.16126C6.356310000000001,6.19941,6.35477,6.25402,6.32219,6.2904L3.149303,9.83329C3.0916218,9.89769,3.137336,10,3.223797,10L5.54527,10C5.60145,10,5.65505,9.97637,5.69294,9.93488L8.88471,6.44053C8.9511,6.36785,8.95473,6.25767,8.89328,6.18078L5.61191,2.0751342C5.57396,2.0276477,5.51647,2,5.45568,2" fill-rule="evenodd" fill="#1D2129" fill-opacity="1"/></g></g></svg>