<svg xmlns="http://www.w3.org/2000/svg" xmlns:xlink="http://www.w3.org/1999/xlink" fill="none" version="1.1" width="14" height="14" viewBox="0 0 14 14"><g><g><g><g><path d="M7.000078046875,1.16668701171875C3.785918046875,1.16668701171875,1.166748046875,3.78585701171875,1.166748046875,7.00001701171875C1.166748046875,10.21418701171875,3.785918046875,12.83338701171875,7.000078046875,12.83338701171875C10.214248046875,12.83338701171875,12.833448046875,10.21418701171875,12.833448046875,7.00001701171875C12.833448046875,3.78585701171875,10.214248046875,1.16668701171875,7.000078046875,1.16668701171875C7.000078046875,1.16668701171875,7.000078046875,1.16668701171875,7.000078046875,1.16668701171875ZM8.627578046875,7.30918701171875C8.627578046875,7.30918701171875,6.568418046875,9.36835701171875,6.568418046875,9.36835701171875C6.480918046875,9.45585701171875,6.370078046875,9.49668701171875,6.259248046875,9.49668701171875C6.148418046875,9.49668701171875,6.037578046875,9.45585701171875,5.950078046875,9.36835701171875C5.780918046875,9.19918701171875,5.780918046875,8.919187011718751,5.950078046875,8.75001701171875C5.950078046875,8.75001701171875,7.700078046875,7.00001701171875,7.700078046875,7.00001701171875C7.700078046875,7.00001701171875,5.950078046875,5.25001701171875,5.950078046875,5.25001701171875C5.780918046875,5.08085701171875,5.780918046875,4.80085701171875,5.950078046875,4.63168701171875C6.119248046875,4.4625170117187505,6.399248046875,4.4625170117187505,6.568418046875,4.63168701171875C6.568418046875,4.63168701171875,8.627578046875,6.69085701171875,8.627578046875,6.69085701171875C8.802578046875,6.86001701171875,8.802578046875,7.14001701171875,8.627578046875,7.30918701171875C8.627578046875,7.30918701171875,8.627578046875,7.30918701171875,8.627578046875,7.30918701171875Z" fill="#12B858" fill-opacity="1"/></g><g transform="matrix(-1,0,0,-1,28,28)" style="opacity:0;"></g></g></g></g></svg>