<svg xmlns="http://www.w3.org/2000/svg" xmlns:xlink="http://www.w3.org/1999/xlink" fill="none" version="1.1" width="6.31353497505188" height="8.31353497505188" viewBox="0 0 6.31353497505188 8.31353497505188"><g><path d="M1.8347674875259399,0.22170548752594L1.83580548752594,0.22027448752593992L5.74409748752594,3.0541174875259403Q5.75866748752594,3.06468748752594,5.77291748752594,3.07570748752594Q6.31353748752594,3.49398748752594,6.31353748752594,4.15676748752594Q6.31353748752594,4.81954748752594,5.77291748752594,5.23782748752594Q5.75867748752594,5.24884748752594,5.74409748752594,5.25941748752594L1.83580548752594,8.093257487525939L1.8347674875259399,8.09182748752594Q1.68689648752594,8.19904748752594,1.5131584875259398,8.25540748752594Q1.33941948752594,8.311767487525941,1.15676748752594,8.311767487525941Q1.10002598752594,8.311767487525941,1.04355748752594,8.30620748752594Q0.98708948752594,8.30064748752594,0.9314384875259399,8.28957748752594Q0.87578648752594,8.278507487525939,0.82148848752594,8.26203748752594Q0.7671904875259399,8.24555748752594,0.7147684875259399,8.22384748752594Q0.66234548752594,8.20213748752594,0.6123044875259399,8.17538748752594Q0.56226248752594,8.148637487525939,0.5150834875259399,8.11711748752594Q0.46790548752593997,8.08558748752594,0.4240434875259399,8.04959748752594Q0.38018148752593994,8.01359748752594,0.34005948752593995,7.9734774875259395Q0.29993648752593993,7.93335748752594,0.2639404875259399,7.8894874875259395Q0.22794448752594,7.84562748752594,0.19642048752594,7.79844748752594Q0.16489648752594,7.75126748752594,0.13814748752593986,7.70122748752594Q0.11139748752594003,7.65118748752594,0.08968748752593991,7.59876748752594Q0.06797748752594002,7.5463474875259395,0.05149748752593997,7.49204748752594Q0.03502748752593998,7.4377474875259395,0.023957487525939847,7.3820974875259395Q0.012887487525939934,7.3264474875259396,0.007327487525939924,7.2699774875259395Q0.0017674875259399148,7.2135074875259395,0.0017674875259399148,7.15676748752594Q0.0017674875259399148,7.01992748752594,0.033747487525940034,6.88686748752594Q0.06571748752593987,6.75381748752594,0.12790748752593983,6.63191748752594Q0.19008848752594,6.51001748752594,0.27903548752594,6.4060274875259395Q0.36798248752594,6.30203748752594,0.4787674875259399,6.22170748752594L0.4777294875259399,6.22027748752594L3.32360748752594,4.15676748752594L0.4777294875259399,2.09326048752594L0.4787674875259399,2.09182948752594Q0.36798248752594,2.01150048752594,0.27903548752594,1.90750848752594Q0.19008848752594,1.80351548752594,0.12790748752593983,1.68161748752594Q0.06571748752593987,1.55971948752594,0.033747487525940034,1.42666448752594Q0.0017674875259399148,1.29361048752594,0.0017674875259399148,1.15676748752594Q0.0017674875259399148,1.10002598752594,0.007327487525939924,1.04355748752594Q0.012887487525939934,0.98708948752594,0.023957487525939847,0.9314384875259399Q0.03502748752593998,0.87578648752594,0.05149748752593997,0.82148848752594Q0.06797748752594002,0.7671904875259399,0.08968748752593991,0.7147684875259399Q0.11139748752594003,0.66234548752594,0.13814748752593986,0.6123044875259399Q0.16489648752594,0.56226248752594,0.19642048752594,0.5150834875259399Q0.22794448752594,0.46790548752593997,0.2639404875259399,0.4240434875259399Q0.29993648752593993,0.38018148752593994,0.34005948752593995,0.34005948752593995Q0.38018148752593994,0.29993648752593993,0.4240434875259399,0.2639404875259399Q0.46790548752593997,0.22794448752594,0.5150834875259399,0.19642048752594Q0.56226248752594,0.16489648752594,0.6123044875259399,0.13814748752593986Q0.66234548752594,0.11139748752594003,0.7147684875259399,0.08968748752593991Q0.7671904875259399,0.06797748752594002,0.82148848752594,0.05149748752593997Q0.87578648752594,0.03502748752593998,0.9314384875259399,0.023957487525939847Q0.98708948752594,0.012887487525939934,1.04355748752594,0.007327487525939924Q1.10002598752594,0.0017674875259399148,1.15676748752594,0.0017674875259399148Q1.33941948752594,0.0017674875259399148,1.5131584875259398,0.05812748752593988Q1.68689748752594,0.11448748752593985,1.8347674875259399,0.22170548752594Z" fill-rule="evenodd" fill="#979798" fill-opacity="1"/></g></svg>