<svg xmlns="http://www.w3.org/2000/svg" xmlns:xlink="http://www.w3.org/1999/xlink" fill="none" version="1.1" width="12" height="12" viewBox="0 0 12 12"><g transform="matrix(-1,0,0,-1,24,24)"><g><g><g transform="matrix(-1,0,0,-1,40.20000076293945,45.119930267333984)"><path d="M20.275736381469727,22.735701133666993C20.510050381469725,22.50138653366699,20.889949381469727,22.50138653366699,21.124260381469725,22.735701133666993C21.124260381469725,22.735701133666993,24.384260381469726,25.99570513366699,24.384260381469726,25.99570513366699C25.003580381469725,26.615015133666994,25.003580381469725,27.624915133666992,24.384260381469726,28.244225133666994C24.384260381469726,28.244225133666994,21.124260381469725,31.504225133666992,21.124260381469725,31.504225133666992C20.889950381469728,31.738545133666992,20.510051381469726,31.738545133666992,20.275737381469728,31.504225133666992C20.041422481469727,31.26991513366699,20.041422481469727,30.890015133666992,20.275737381469728,30.65570513366699C20.275737381469728,30.65570513366699,23.535740381469726,27.395705133666993,23.535740381469726,27.395705133666993C23.686420381469727,27.245015133666993,23.686420381469727,26.994915133666993,23.535740381469726,26.844225133666992C23.535740381469726,26.844225133666992,20.275736381469727,23.58422513366699,20.275736381469727,23.58422513366699C20.041421781469726,23.349915133666993,20.041421781469726,22.97001613366699,20.275736381469727,22.735701133666993Z" fill-rule="evenodd" fill="#12B858" fill-opacity="1"/></g><g transform="matrix(-1,0,0,-1,48,48)" style="opacity:0;"></g></g></g></g></svg>