<svg xmlns="http://www.w3.org/2000/svg" xmlns:xlink="http://www.w3.org/1999/xlink" fill="none" version="1.1" width="20" height="20" viewBox="0 0 20 20"><g><g><g><g><path d="M2.291748046875,14.9999259765625C2.291748046875,15.3451259765625,2.5715700468750002,15.6249259765625,2.916748046875,15.6249259765625C3.2619260468749998,15.6249259765625,3.541748046875,15.3451259765625,3.541748046875,14.9999259765625C3.541748046875,14.9999259765625,2.291748046875,14.9999259765625,2.291748046875,14.9999259765625C2.291748046875,14.9999259765625,2.291748046875,14.9999259765625,2.291748046875,14.9999259765625ZM16.451648046875,14.4721259765625C16.427048046875,14.8163259765625,16.686248046875,15.1154259765625,17.030548046874998,15.1400259765625C17.374848046875,15.1646259765625,17.673948046874997,14.9054259765625,17.698448046875,14.5611259765625C17.698448046875,14.5611259765625,16.451648046875,14.4721259765625,16.451648046875,14.4721259765625C16.451648046875,14.4721259765625,16.451648046875,14.4721259765625,16.451648046875,14.4721259765625ZM3.541748046875,14.9999259765625C3.541748046875,14.9999259765625,3.541748046875,5.8332959765625,3.541748046875,5.8332959765625C3.541748046875,5.8332959765625,2.291748046875,5.8332959765625,2.291748046875,5.8332959765625C2.291748046875,5.8332959765625,2.291748046875,14.9999259765625,2.291748046875,14.9999259765625C2.291748046875,14.9999259765625,3.541748046875,14.9999259765625,3.541748046875,14.9999259765625C3.541748046875,14.9999259765625,3.541748046875,14.9999259765625,3.541748046875,14.9999259765625ZM3.541748046875,5.8332959765625C3.541748046875,4.1621559765625005,3.765778046875,3.3681459765625,4.192018046875,2.9418959765625C4.618268046875,2.5156559765625,5.4122780468750005,2.2916259765625,7.083418046875,2.2916259765625C7.083418046875,2.2916259765625,7.083418046875,1.0416259765625,7.083418046875,1.0416259765625C5.4212180468749995,1.0416259765625,4.1318980468749995,1.2342629765625,3.308138046875,2.0580159765625C2.484385046875,2.8817759765625,2.291748046875,4.1710959765624995,2.291748046875,5.8332959765625C2.291748046875,5.8332959765625,3.541748046875,5.8332959765625,3.541748046875,5.8332959765625C3.541748046875,5.8332959765625,3.541748046875,5.8332959765625,3.541748046875,5.8332959765625ZM7.083418046875,2.2916259765625C7.083418046875,2.2916259765625,12.916748046875,2.2916259765625,12.916748046875,2.2916259765625C12.916748046875,2.2916259765625,12.916748046875,1.0416259765625,12.916748046875,1.0416259765625C12.916748046875,1.0416259765625,7.083418046875,1.0416259765625,7.083418046875,1.0416259765625C7.083418046875,1.0416259765625,7.083418046875,2.2916259765625,7.083418046875,2.2916259765625C7.083418046875,2.2916259765625,7.083418046875,2.2916259765625,7.083418046875,2.2916259765625ZM12.916748046875,2.2916259765625C14.587948046875,2.2916259765625,15.381948046875,2.5156559765625,15.808148046875,2.9418959765625C16.234448046875002,3.3681459765625,16.458448046875,4.1621559765625005,16.458448046875,5.8332959765625C16.458448046875,5.8332959765625,17.708448046875,5.8332959765625,17.708448046875,5.8332959765625C17.708448046875,4.1710959765624995,17.515748046875,2.8817759765625,16.691948046874998,2.0580159765625C15.868248046875,1.2342629765625,14.578948046875,1.0416259765625,12.916748046875,1.0416259765625C12.916748046875,1.0416259765625,12.916748046875,2.2916259765625,12.916748046875,2.2916259765625C12.916748046875,2.2916259765625,12.916748046875,2.2916259765625,12.916748046875,2.2916259765625ZM16.458448046875,5.8332959765625C16.458448046875,5.8332959765625,16.458448046875,14.1666259765625,16.458448046875,14.1666259765625C16.458448046875,14.1666259765625,17.708448046875,14.1666259765625,17.708448046875,14.1666259765625C17.708448046875,14.1666259765625,17.708448046875,5.8332959765625,17.708448046875,5.8332959765625C17.708448046875,5.8332959765625,16.458448046875,5.8332959765625,16.458448046875,5.8332959765625C16.458448046875,5.8332959765625,16.458448046875,5.8332959765625,16.458448046875,5.8332959765625ZM16.458448046875,14.1666259765625C16.458448046875,14.2869259765625,16.458148046875,14.3813259765625,16.451648046875,14.4721259765625C16.451648046875,14.4721259765625,17.698448046875,14.5611259765625,17.698448046875,14.5611259765625C17.708648046875,14.4185259765625,17.708448046875,14.2796259765625,17.708448046875,14.1666259765625C17.708448046875,14.1666259765625,16.458448046875,14.1666259765625,16.458448046875,14.1666259765625C16.458448046875,14.1666259765625,16.458448046875,14.1666259765625,16.458448046875,14.1666259765625Z" fill="#1A1A1A" fill-opacity="1"/></g><g><path d="M17.083448046875,12.5C17.083448046875,12.5,17.708448046875,12.5,17.708448046875,12.5C17.708448046875,12.154822,17.428548046875,11.875,17.083448046875,11.875C17.083448046875,11.875,17.083448046875,12.5,17.083448046875,12.5C17.083448046875,12.5,17.083448046875,12.5,17.083448046875,12.5ZM5.291748046875,13.125C5.291748046875,13.125,17.083448046875,13.125,17.083448046875,13.125C17.083448046875,13.125,17.083448046875,11.875,17.083448046875,11.875C17.083448046875,11.875,5.291748046875,11.875,5.291748046875,11.875C5.291748046875,11.875,5.291748046875,13.125,5.291748046875,13.125C5.291748046875,13.125,5.291748046875,13.125,5.291748046875,13.125ZM16.458448046875,12.5C16.458448046875,12.5,16.458448046875,15.41667,16.458448046875,15.41667C16.458448046875,15.41667,17.708448046875,15.41667,17.708448046875,15.41667C17.708448046875,15.41667,17.708448046875,12.5,17.708448046875,12.5C17.708448046875,12.5,16.458448046875,12.5,16.458448046875,12.5C16.458448046875,12.5,16.458448046875,12.5,16.458448046875,12.5ZM16.458448046875,15.41667C16.458448046875,16.67982,15.429948046875,17.70833,14.166748046875,17.70833C14.166748046875,17.70833,14.166748046875,18.95833,14.166748046875,18.95833C16.120248046875,18.95833,17.708448046875,17.37017,17.708448046875,15.41667C17.708448046875,15.41667,16.458448046875,15.41667,16.458448046875,15.41667C16.458448046875,15.41667,16.458448046875,15.41667,16.458448046875,15.41667ZM14.166748046875,17.70833C14.166748046875,17.70833,5.833418046875,17.70833,5.833418046875,17.70833C5.833418046875,17.70833,5.833418046875,18.95833,5.833418046875,18.95833C5.833418046875,18.95833,14.166748046875,18.95833,14.166748046875,18.95833C14.166748046875,18.95833,14.166748046875,17.70833,14.166748046875,17.70833C14.166748046875,17.70833,14.166748046875,17.70833,14.166748046875,17.70833ZM5.833418046875,17.70833C4.570258046875,17.70833,3.541748046875,16.67982,3.541748046875,15.41667C3.541748046875,15.41667,2.291748046875,15.41667,2.291748046875,15.41667C2.291748046875,17.37017,3.8799080468750002,18.95833,5.833418046875,18.95833C5.833418046875,18.95833,5.833418046875,17.70833,5.833418046875,17.70833C5.833418046875,17.70833,5.833418046875,17.70833,5.833418046875,17.70833ZM3.541748046875,15.41667C3.541748046875,15.41667,3.541748046875,14.875,3.541748046875,14.875C3.541748046875,14.875,2.291748046875,14.875,2.291748046875,14.875C2.291748046875,14.875,2.291748046875,15.41667,2.291748046875,15.41667C2.291748046875,15.41667,3.541748046875,15.41667,3.541748046875,15.41667C3.541748046875,15.41667,3.541748046875,15.41667,3.541748046875,15.41667ZM3.541748046875,14.875C3.541748046875,13.91184,4.328588046875,13.125,5.291748046875,13.125C5.291748046875,13.125,5.291748046875,11.875,5.291748046875,11.875C3.638238046875,11.875,2.291748046875,13.22149,2.291748046875,14.875C2.291748046875,14.875,3.541748046875,14.875,3.541748046875,14.875C3.541748046875,14.875,3.541748046875,14.875,3.541748046875,14.875Z" fill="#1A1A1A" fill-opacity="1"/></g><g><path d="M6.666748046875,5.2083740234375C6.321570046875,5.2083740234375,6.041748046875,5.4881960234375,6.041748046875,5.8333740234375C6.041748046875,6.1785520234375,6.321570046875,6.4583740234375,6.666748046875,6.4583740234375C6.666748046875,6.4583740234375,6.666748046875,5.2083740234375,6.666748046875,5.2083740234375C6.666748046875,5.2083740234375,6.666748046875,5.2083740234375,6.666748046875,5.2083740234375ZM13.333418046875,6.4583740234375C13.678588046875,6.4583740234375,13.958418046875,6.1785520234375,13.958418046875,5.8333740234375C13.958418046875,5.4881960234375,13.678588046875,5.2083740234375,13.333418046875,5.2083740234375C13.333418046875,5.2083740234375,13.333418046875,6.4583740234375,13.333418046875,6.4583740234375C13.333418046875,6.4583740234375,13.333418046875,6.4583740234375,13.333418046875,6.4583740234375ZM6.666748046875,6.4583740234375C6.666748046875,6.4583740234375,13.333418046875,6.4583740234375,13.333418046875,6.4583740234375C13.333418046875,6.4583740234375,13.333418046875,5.2083740234375,13.333418046875,5.2083740234375C13.333418046875,5.2083740234375,6.666748046875,5.2083740234375,6.666748046875,5.2083740234375C6.666748046875,5.2083740234375,6.666748046875,6.4583740234375,6.666748046875,6.4583740234375C6.666748046875,6.4583740234375,6.666748046875,6.4583740234375,6.666748046875,6.4583740234375Z" fill="#1A1A1A" fill-opacity="1"/></g><g><path d="M6.666748046875,8.125C6.321570046875,8.125,6.041748046875,8.404822,6.041748046875,8.75C6.041748046875,9.095178,6.321570046875,9.375,6.666748046875,9.375C6.666748046875,9.375,6.666748046875,8.125,6.666748046875,8.125C6.666748046875,8.125,6.666748046875,8.125,6.666748046875,8.125ZM10.833418046875,9.375C11.178588046875,9.375,11.458418046875,9.095178,11.458418046875,8.75C11.458418046875,8.404822,11.178588046875,8.125,10.833418046875,8.125C10.833418046875,8.125,10.833418046875,9.375,10.833418046875,9.375C10.833418046875,9.375,10.833418046875,9.375,10.833418046875,9.375ZM6.666748046875,9.375C6.666748046875,9.375,10.833418046875,9.375,10.833418046875,9.375C10.833418046875,9.375,10.833418046875,8.125,10.833418046875,8.125C10.833418046875,8.125,6.666748046875,8.125,6.666748046875,8.125C6.666748046875,8.125,6.666748046875,9.375,6.666748046875,9.375C6.666748046875,9.375,6.666748046875,9.375,6.666748046875,9.375Z" fill="#1A1A1A" fill-opacity="1"/></g><g transform="matrix(-1,0,0,-1,40,40)" style="opacity:0;"></g></g></g></g></svg>