<svg xmlns="http://www.w3.org/2000/svg" xmlns:xlink="http://www.w3.org/1999/xlink" fill="none" version="1.1" width="16" height="16" viewBox="0 0 16 16"><g><g><g><g><path d="M1.8332122499999999,12.43339921875C1.55987825,12.43339921875,1.33321216,12.20669921875,1.33321216,11.93339921875C1.33321216,11.93339921875,1.33321216,8.133369218750001,1.33321216,8.133369218750001C1.29987885,6.32669921875,1.97321225,4.62002921875,3.22654125,3.34002921875C4.47988125,2.06669921875,6.15988125,1.36669921875,7.96654125,1.36669921875C11.65993125,1.36669921875,14.66653125,4.37336921875,14.66653125,8.06669921875C14.66653125,8.06669921875,14.66653125,11.86669921875,14.66653125,11.86669921875C14.66653125,12.13999921875,14.43993125,12.36669921875,14.16653125,12.36669921875C13.89323125,12.36669921875,13.66653125,12.13999921875,13.66653125,11.86669921875C13.66653125,11.86669921875,13.66653125,8.06669921875,13.66653125,8.06669921875C13.66653125,4.9266992187500005,11.11323125,2.36669921875,7.96654125,2.36669921875C6.42654125,2.36669921875,4.99988125,2.96002921875,3.93988125,4.04002921875C2.8732112499999998,5.12669921875,2.30654425,6.57336921875,2.3332112499999997,8.12002921875C2.3332112499999997,8.12002921875,2.3332112499999997,11.92669921875,2.3332112499999997,11.92669921875C2.3332112499999997,12.20669921875,2.11321125,12.43339921875,1.8332122499999999,12.43339921875C1.8332122499999999,12.43339921875,1.8332122499999999,12.43339921875,1.8332122499999999,12.43339921875Z" fill="#FFFFFF" fill-opacity="1"/></g><g><path d="M3.959921953125,8.300048828125C3.959921953125,8.300048828125,3.873251953125,8.300048828125,3.873251953125,8.300048828125C2.4732519531249997,8.300048828125,1.333251953125,9.440048828125,1.333251953125,10.840048828125C1.333251953125,10.840048828125,1.333251953125,12.093378828125001,1.333251953125,12.093378828125001C1.333251953125,13.493378828125,2.4732519531249997,14.633378828125,3.873251953125,14.633378828125C3.873251953125,14.633378828125,3.959921953125,14.633378828125,3.959921953125,14.633378828125C5.359921953125,14.633378828125,6.499921953125,13.493378828125,6.499921953125,12.093378828125001C6.499921953125,12.093378828125001,6.499921953125,10.840048828125,6.499921953125,10.840048828125C6.499921953125,9.440048828125,5.359921953125,8.300048828125,3.959921953125,8.300048828125C3.959921953125,8.300048828125,3.959921953125,8.300048828125,3.959921953125,8.300048828125Z" fill="#FFFFFF" fill-opacity="1"/></g><g><path d="M12.12667,8.300048828125C12.12667,8.300048828125,12.04,8.300048828125,12.04,8.300048828125C10.64,8.300048828125,9.5,9.440048828125,9.5,10.840048828125C9.5,10.840048828125,9.5,12.093378828125001,9.5,12.093378828125001C9.5,13.493378828125,10.64,14.633378828125,12.04,14.633378828125C12.04,14.633378828125,12.12667,14.633378828125,12.12667,14.633378828125C13.52667,14.633378828125,14.66667,13.493378828125,14.66667,12.093378828125001C14.66667,12.093378828125001,14.66667,10.840048828125,14.66667,10.840048828125C14.66667,9.440048828125,13.52667,8.300048828125,12.12667,8.300048828125C12.12667,8.300048828125,12.12667,8.300048828125,12.12667,8.300048828125Z" fill="#FFFFFF" fill-opacity="1"/></g><g transform="matrix(-1,0,0,-1,32,32)" style="opacity:0;"></g></g></g></g></svg>