<svg xmlns="http://www.w3.org/2000/svg" xmlns:xlink="http://www.w3.org/1999/xlink" fill="none" version="1.1" width="20" height="20" viewBox="0 0 20 20"><g><g><g><g><path d="M10.833418046875,15.3584244140625C10.833418046875,15.3584244140625,10.833418046875,14.7334244140625,10.833418046875,14.7334244140625C10.710248046875,14.7334244140625,10.589828046875,14.7697244140625,10.487248046875,14.8380244140625C10.487248046875,14.8380244140625,10.833418046875,15.3584244140625,10.833418046875,15.3584244140625C10.833418046875,15.3584244140625,10.833418046875,15.3584244140625,10.833418046875,15.3584244140625ZM7.125068046875,17.8250244140625C7.125068046875,17.8250244140625,6.778918046875,17.3047244140625,6.778918046875,17.3047244140625C6.778918046875,17.3047244140625,6.778378046875,17.3050244140625,6.778378046875,17.3050244140625C6.778378046875,17.3050244140625,7.125068046875,17.8250244140625,7.125068046875,17.8250244140625C7.125068046875,17.8250244140625,7.125068046875,17.8250244140625,7.125068046875,17.8250244140625ZM5.833418046875,15.3584244140625C5.833418046875,15.3584244140625,6.458418046875,15.3584244140625,6.458418046875,15.3584244140625C6.458418046875,15.0132244140625,6.178588046875,14.7334244140625,5.833418046875,14.7334244140625C5.833418046875,14.7334244140625,5.833418046875,15.3584244140625,5.833418046875,15.3584244140625C5.833418046875,15.3584244140625,5.833418046875,15.3584244140625,5.833418046875,15.3584244140625ZM14.166748046875,14.7334244140625C14.166748046875,14.7334244140625,10.833418046875,14.7334244140625,10.833418046875,14.7334244140625C10.833418046875,14.7334244140625,10.833418046875,15.9834244140625,10.833418046875,15.9834244140625C10.833418046875,15.9834244140625,14.166748046875,15.9834244140625,14.166748046875,15.9834244140625C14.166748046875,15.9834244140625,14.166748046875,14.7334244140625,14.166748046875,14.7334244140625C14.166748046875,14.7334244140625,14.166748046875,14.7334244140625,14.166748046875,14.7334244140625ZM10.487248046875,14.8380244140625C10.487248046875,14.8380244140625,6.778918046875,17.3047244140625,6.778918046875,17.3047244140625C6.778918046875,17.3047244140625,7.471218046875,18.3454244140625,7.471218046875,18.3454244140625C7.471218046875,18.3454244140625,11.179548046875,15.8788244140625,11.179548046875,15.8788244140625C11.179548046875,15.8788244140625,10.487248046875,14.8380244140625,10.487248046875,14.8380244140625C10.487248046875,14.8380244140625,10.487248046875,14.8380244140625,10.487248046875,14.8380244140625ZM6.778378046875,17.3050244140625C6.640958046875,17.3966244140625,6.458418046875,17.2975244140625,6.458418046875,17.1334244140625C6.458418046875,17.1334244140625,5.208418046875,17.1334244140625,5.208418046875,17.1334244140625C5.208418046875,18.3026244140625,6.509188046875,18.9867244140625,7.471758046875,18.3451244140625C7.471758046875,18.3451244140625,6.778378046875,17.3050244140625,6.778378046875,17.3050244140625C6.778378046875,17.3050244140625,6.778378046875,17.3050244140625,6.778378046875,17.3050244140625ZM6.458418046875,17.1334244140625C6.458418046875,17.1334244140625,6.458418046875,15.3584244140625,6.458418046875,15.3584244140625C6.458418046875,15.3584244140625,5.208418046875,15.3584244140625,5.208418046875,15.3584244140625C5.208418046875,15.3584244140625,5.208418046875,17.1334244140625,5.208418046875,17.1334244140625C5.208418046875,17.1334244140625,6.458418046875,17.1334244140625,6.458418046875,17.1334244140625C6.458418046875,17.1334244140625,6.458418046875,17.1334244140625,6.458418046875,17.1334244140625ZM5.833418046875,14.7334244140625C4.725448046875,14.7334244140625,3.850708046875,14.3667244140625,3.254518046875,13.7706244140625C2.658338046875,13.1744244140625,2.291748046875,12.2997244140625,2.291748046875,11.1917744140625C2.291748046875,11.1917744140625,1.041748046875,11.1917744140625,1.041748046875,11.1917744140625C1.041748046875,12.5837244140625,1.508485046875,13.7923244140625,2.370638046875,14.6545244140625C3.232788046875,15.5167244140625,4.441378046875,15.9834244140625,5.833418046875,15.9834244140625C5.833418046875,15.9834244140625,5.833418046875,14.7334244140625,5.833418046875,14.7334244140625C5.833418046875,14.7334244140625,5.833418046875,14.7334244140625,5.833418046875,14.7334244140625ZM2.291748046875,11.1917744140625C2.291748046875,11.1917744140625,2.291748046875,6.1916944140625,2.291748046875,6.1916944140625C2.291748046875,6.1916944140625,1.041748046875,6.1916944140625,1.041748046875,6.1916944140625C1.041748046875,6.1916944140625,1.041748046875,11.1917744140625,1.041748046875,11.1917744140625C1.041748046875,11.1917744140625,2.291748046875,11.1917744140625,2.291748046875,11.1917744140625C2.291748046875,11.1917744140625,2.291748046875,11.1917744140625,2.291748046875,11.1917744140625ZM2.291748046875,6.1916944140625C2.291748046875,5.0837244140625,2.658338046875,4.2089844140625,3.254518046875,3.6127944140625C3.850708046875,3.0166144140625,4.725448046875,2.6500244140625,5.833418046875,2.6500244140625C5.833418046875,2.6500244140625,5.833418046875,1.4000244140625,5.833418046875,1.4000244140625C4.441378046875,1.4000244140625,3.232788046875,1.8667614140625,2.370638046875,2.7289144140625C1.508485046875,3.5910644140625,1.041748046875,4.7996544140625,1.041748046875,6.1916944140625C1.041748046875,6.1916944140625,2.291748046875,6.1916944140625,2.291748046875,6.1916944140625C2.291748046875,6.1916944140625,2.291748046875,6.1916944140625,2.291748046875,6.1916944140625ZM5.833418046875,2.6500244140625C5.833418046875,2.6500244140625,14.166748046875,2.6500244140625,14.166748046875,2.6500244140625C14.166748046875,2.6500244140625,14.166748046875,1.4000244140625,14.166748046875,1.4000244140625C14.166748046875,1.4000244140625,5.833418046875,1.4000244140625,5.833418046875,1.4000244140625C5.833418046875,1.4000244140625,5.833418046875,2.6500244140625,5.833418046875,2.6500244140625C5.833418046875,2.6500244140625,5.833418046875,2.6500244140625,5.833418046875,2.6500244140625ZM14.166748046875,2.6500244140625C15.274748046875,2.6500244140625,16.149448046875,3.0166144140625,16.745648046875,3.6127944140625C17.341848046875,4.2089844140625,17.708448046875,5.0837244140625,17.708448046875,6.1916944140625C17.708448046875,6.1916944140625,18.958448046875,6.1916944140625,18.958448046875,6.1916944140625C18.958448046875,4.7996544140625,18.491648046875,3.5910644140625,17.629448046875,2.7289144140625C16.767348046875,1.8667614140625,15.558748046875,1.4000244140625,14.166748046875,1.4000244140625C14.166748046875,1.4000244140625,14.166748046875,2.6500244140625,14.166748046875,2.6500244140625C14.166748046875,2.6500244140625,14.166748046875,2.6500244140625,14.166748046875,2.6500244140625ZM17.708448046875,6.1916944140625C17.708448046875,6.1916944140625,17.708448046875,11.1917744140625,17.708448046875,11.1917744140625C17.708448046875,11.1917744140625,18.958448046875,11.1917744140625,18.958448046875,11.1917744140625C18.958448046875,11.1917744140625,18.958448046875,6.1916944140625,18.958448046875,6.1916944140625C18.958448046875,6.1916944140625,17.708448046875,6.1916944140625,17.708448046875,6.1916944140625C17.708448046875,6.1916944140625,17.708448046875,6.1916944140625,17.708448046875,6.1916944140625ZM17.708448046875,11.1917744140625C17.708448046875,12.2997244140625,17.341848046875,13.1744244140625,16.745648046875,13.7706244140625C16.149448046875,14.3667244140625,15.274748046875,14.7334244140625,14.166748046875,14.7334244140625C14.166748046875,14.7334244140625,14.166748046875,15.9834244140625,14.166748046875,15.9834244140625C15.558748046875,15.9834244140625,16.767348046875,15.5167244140625,17.629448046875,14.6545244140625C18.491648046875,13.7923244140625,18.958448046875,12.5837244140625,18.958448046875,11.1917744140625C18.958448046875,11.1917744140625,17.708448046875,11.1917744140625,17.708448046875,11.1917744140625C17.708448046875,11.1917744140625,17.708448046875,11.1917744140625,17.708448046875,11.1917744140625Z" fill="#1A1A1A" fill-opacity="1"/></g><g><path d="M9.37500921875,9.4666748046875C9.37500921875,9.8118448046875,9.65482921875,10.0916748046875,10.00000921875,10.0916748046875C10.34518921875,10.0916748046875,10.62500921875,9.8118448046875,10.62500921875,9.4666748046875C10.62500921875,9.4666748046875,9.37500921875,9.4666748046875,9.37500921875,9.4666748046875C9.37500921875,9.4666748046875,9.37500921875,9.4666748046875,9.37500921875,9.4666748046875ZM10.70002921875,8.1833548046875C10.70002921875,8.1833548046875,10.34754921875,7.6672248046875,10.34754921875,7.6672248046875C10.34754921875,7.6672248046875,10.34491921875,7.6690448046875,10.34491921875,7.6690448046875C10.34491921875,7.6690448046875,10.70002921875,8.1833548046875,10.70002921875,8.1833548046875C10.70002921875,8.1833548046875,10.70002921875,8.1833548046875,10.70002921875,8.1833548046875ZM7.99169921875,7.1000348046875C7.99169921875,7.445214804687501,8.27152121875,7.7250348046875,8.61669921875,7.7250348046875C8.96187721875,7.7250348046875,9.24169921875,7.445214804687501,9.24169921875,7.1000348046875C9.24169921875,7.1000348046875,7.99169921875,7.1000348046875,7.99169921875,7.1000348046875C7.99169921875,7.1000348046875,7.99169921875,7.1000348046875,7.99169921875,7.1000348046875ZM10.62500921875,9.4666748046875C10.62500921875,9.4666748046875,10.62500921875,9.2917048046875,10.62500921875,9.2917048046875C10.62500921875,9.2917048046875,9.37500921875,9.2917048046875,9.37500921875,9.2917048046875C9.37500921875,9.2917048046875,9.37500921875,9.4666748046875,9.37500921875,9.4666748046875C9.37500921875,9.4666748046875,10.62500921875,9.4666748046875,10.62500921875,9.4666748046875C10.62500921875,9.4666748046875,10.62500921875,9.4666748046875,10.62500921875,9.4666748046875ZM10.62500921875,9.2917048046875C10.62500921875,9.1517848046875,10.66362921875,9.0646148046875,10.71982921875,8.9892448046875C10.78763921875,8.8982948046875,10.89241921875,8.810024804687501,11.05514921875,8.6976648046875C11.05514921875,8.6976648046875,10.34491921875,7.6690448046875,10.34491921875,7.6690448046875C9.96556921875,7.9309748046875,9.37500921875,8.3943148046875,9.37500921875,9.2917048046875C9.37500921875,9.2917048046875,10.62500921875,9.2917048046875,10.62500921875,9.2917048046875C10.62500921875,9.2917048046875,10.62500921875,9.2917048046875,10.62500921875,9.2917048046875ZM11.05250921875,8.6994848046875C11.430019218750001,8.4416648046875,12.00831921875,7.9785448046875,12.00831921875,7.1000348046875C12.00831921875,7.1000348046875,10.75831921875,7.1000348046875,10.75831921875,7.1000348046875C10.75831921875,7.2314748046875,10.721869218750001,7.3151548046875,10.66761921875,7.3883748046874995C10.60282921875,7.4758248046875,10.50186921875,7.5618548046875,10.34755921875,7.667234804687499C10.34755921875,7.667234804687499,11.05250921875,8.6994848046875,11.05250921875,8.6994848046875C11.05250921875,8.6994848046875,11.05250921875,8.6994848046875,11.05250921875,8.6994848046875ZM12.00831921875,7.1000348046875C12.00831921875,5.9882218046875,11.11187921875,5.0916748046875,10.00000921875,5.0916748046875C10.00000921875,5.0916748046875,10.00000921875,6.3416748046875,10.00000921875,6.3416748046875C10.42146921875,6.3416748046875,10.75831921875,6.6785148046875005,10.75831921875,7.1000348046875C10.75831921875,7.1000348046875,12.00831921875,7.1000348046875,12.00831921875,7.1000348046875C12.00831921875,7.1000348046875,12.00831921875,7.1000348046875,12.00831921875,7.1000348046875ZM10.00000921875,5.0916748046875C8.88813621875,5.0916748046875,7.99169921875,5.9882218046875,7.99169921875,7.1000348046875C7.99169921875,7.1000348046875,9.24169921875,7.1000348046875,9.24169921875,7.1000348046875C9.24169921875,6.6785148046875005,9.57854921875,6.3416748046875,10.00000921875,6.3416748046875C10.00000921875,6.3416748046875,10.00000921875,5.0916748046875,10.00000921875,5.0916748046875C10.00000921875,5.0916748046875,10.00000921875,5.0916748046875,10.00000921875,5.0916748046875Z" fill="#1A1A1A" fill-opacity="1"/></g><g style="opacity:0;"></g><g><path d="M9.996337890625,10.8333740234375C9.651159890625,10.8333740234375,9.371337890625,11.1131960234375,9.371337890625,11.4583740234375C9.371337890625,11.8035520234375,9.651159890625,12.0833740234375,9.996337890625,12.0833740234375C9.996337890625,12.0833740234375,9.996337890625,10.8333740234375,9.996337890625,10.8333740234375C9.996337890625,10.8333740234375,9.996337890625,10.8333740234375,9.996337890625,10.8333740234375ZM10.003837890625,12.0833740234375C10.349015890625001,12.0833740234375,10.628837890625,11.8035520234375,10.628837890625,11.4583740234375C10.628837890625,11.1131960234375,10.349015890625001,10.8333740234375,10.003837890625,10.8333740234375C10.003837890625,10.8333740234375,10.003837890625,12.0833740234375,10.003837890625,12.0833740234375C10.003837890625,12.0833740234375,10.003837890625,12.0833740234375,10.003837890625,12.0833740234375ZM9.996337890625,12.0833740234375C9.996337890625,12.0833740234375,10.003837890625,12.0833740234375,10.003837890625,12.0833740234375C10.003837890625,12.0833740234375,10.003837890625,10.8333740234375,10.003837890625,10.8333740234375C10.003837890625,10.8333740234375,9.996337890625,10.8333740234375,9.996337890625,10.8333740234375C9.996337890625,10.8333740234375,9.996337890625,12.0833740234375,9.996337890625,12.0833740234375C9.996337890625,12.0833740234375,9.996337890625,12.0833740234375,9.996337890625,12.0833740234375Z" fill="#1A1A1A" fill-opacity="1"/></g></g></g></g></svg>