<svg xmlns="http://www.w3.org/2000/svg" xmlns:xlink="http://www.w3.org/1999/xlink" fill="none" version="1.1" width="36" height="36" viewBox="0 0 36 36"><g><g><g><g><path d="M22.33500099182129,5.175C22.33500099182129,5.175,13.66500099182129,5.175,13.66500099182129,5.175C13.064999991821288,5.175,12.585000991821289,4.695,12.585000991821289,4.095C12.585000991821289,3.495,13.064999991821288,3,13.66500099182129,3C13.66500099182129,3,22.33500099182129,3,22.33500099182129,3C22.93500099182129,3,23.415000991821287,3.48,23.415000991821287,4.08C23.415000991821287,4.68,22.93500099182129,5.175,22.33500099182129,5.175Z" fill="#12B858" fill-opacity="1"/></g><g><path d="M29.955,22.5C29.955,22.5,25.545,22.5,25.545,22.5C23.64,22.5,22.5,23.64,22.5,25.545C22.5,25.545,22.5,29.955,22.5,29.955C22.5,31.86,23.64,33,25.545,33C25.545,33,29.955,33,29.955,33C31.86,33,33,31.86,33,29.955C33,29.955,33,25.545,33,25.545C33,23.64,31.86,22.5,29.955,22.5ZM29.535,29.19C29.535,29.19,27.765,30.21,27.765,30.21C27.405,30.42,27.045,30.525,26.715,30.525C26.46,30.525,26.235,30.465,26.025,30.345C25.545,30.06,25.275,29.505,25.275,28.77C25.275,28.77,25.275,26.73,25.275,26.73C25.275,25.995,25.545,25.44,26.025,25.155C26.505,24.87,27.12,24.93,27.765,25.29C27.765,25.29,29.535,26.31,29.535,26.31C30.165,26.685,30.525,27.195,30.525,27.75C30.525,28.305,30.18,28.815,29.535,29.19Z" fill="#12B858" fill-opacity="1"/></g><g><path d="M20.999873046875,29.955000381469727C20.999873046875,29.955000381469727,20.999873046875,25.545000381469727,20.999873046875,25.545000381469727C20.999873046875,22.830000381469727,22.829873046875,21.000000381469725,25.544873046875,21.000000381469725C25.544873046875,21.000000381469725,29.954873046875,21.000000381469725,29.954873046875,21.000000381469725C30.299873046875,21.000000381469725,30.629873046875,21.030000381469726,30.944873046875,21.09000038146973C30.974873046875,20.73000038146973,31.004873046875,20.370000381469726,31.004873046875,19.995000381469726C31.004873046875,12.810000381469727,25.169873046875,6.975000381469727,17.999873046875003,6.975000381469727C10.829873046875,6.975000381469727,4.994873046875001,12.810000381469727,4.994873046875001,19.995000381469726C4.994873046874998,27.165000381469728,10.829873046875,33.000000381469725,17.999873046875003,33.000000381469725C19.274873046875,33.000000381469725,20.489873046874997,32.790000381469724,21.659873046875,32.460000381469726C21.239873046875,31.755000381469728,20.999873046875,30.915000381469728,20.999873046875,29.955000381469727ZM19.124873046875003,19.500000381469725C19.124873046875003,20.115000381469727,18.614873046874997,20.625000381469725,17.999873046875003,20.625000381469725C17.384873046875,20.625000381469725,16.874873046875003,20.115000381469727,16.874873046875003,19.500000381469725C16.874873046875003,19.500000381469725,16.874873046875003,12.000000381469727,16.874873046875003,12.000000381469727C16.874873046875003,11.385000381469727,17.384873046875,10.875000381469727,17.999873046875003,10.875000381469727C18.614873046874997,10.875000381469727,19.124873046875003,11.385000381469727,19.124873046875003,12.000000381469727C19.124873046875003,12.000000381469727,19.124873046875003,19.500000381469725,19.124873046875003,19.500000381469725Z" fill="#12B858" fill-opacity="1"/></g><g transform="matrix(-1,0,0,-1,72,72)" style="opacity:0;"></g></g></g></g></svg>