<svg xmlns="http://www.w3.org/2000/svg" xmlns:xlink="http://www.w3.org/1999/xlink" fill="none" version="1.1" width="36" height="36" viewBox="0 0 36 36"><g><g><g><g style="opacity:0;"></g><g><path d="M23.67,3C23.67,3,12.33,3,12.33,3C6.66,3,5.25,4.515,5.25,10.559999999999999C5.25,10.559999999999999,5.25,27.45,5.25,27.45C5.25,31.44,7.4399999999999995,32.385000000000005,10.094999999999999,29.535C10.094999999999999,29.535,10.11,29.52,10.11,29.52C11.34,28.215,13.215,28.32,14.28,29.745C14.28,29.745,15.795,31.77,15.795,31.77C17.009999999999998,33.375,18.975,33.375,20.189999999999998,31.77C20.189999999999998,31.77,21.705,29.745,21.705,29.745C22.785,28.305,24.66,28.2,25.89,29.52C28.56,32.370000000000005,30.735,31.425,30.735,27.435C30.735,27.435,30.735,10.559999999999999,30.735,10.559999999999999C30.75,4.515,29.34,3,23.67,3C23.67,3,23.67,3,23.67,3ZM22.26,14.985C22.26,14.985,21.51,15.75,21.51,15.75C21.51,15.75,21.495,15.75,21.495,15.75C21.495,15.75,16.95,20.295,16.95,20.295C16.755000000000003,20.49,16.35,20.7,16.064999999999998,20.73C16.064999999999998,20.73,14.04,21.03,14.04,21.03C13.305,21.135,12.795,20.61,12.9,19.89C12.9,19.89,13.184999999999999,17.85,13.184999999999999,17.85C13.23,17.564999999999998,13.425,17.175,13.62,16.965C13.62,16.965,18.18,12.42,18.18,12.42C18.18,12.42,18.93,11.655,18.93,11.655C19.425,11.16,19.98,10.8,20.58,10.8C21.09,10.8,21.645,11.04,22.26,11.655C23.61,13.005,23.175,14.07,22.26,14.985C22.26,14.985,22.26,14.985,22.26,14.985Z" fill="#12B858" fill-opacity="1"/></g></g></g></g></svg>