<svg xmlns="http://www.w3.org/2000/svg" xmlns:xlink="http://www.w3.org/1999/xlink" fill="none" version="1.1" width="36" height="36" viewBox="0 0 36 36"><g><g><g><g transform="matrix(-1,0,0,-1,72,72)" style="opacity:0;"><path d="M36,72L36,36L72,36L72,72L36,72ZM37,71L37,37L71,37L71,71L37,71Z" fill-rule="evenodd" fill="#12B858" fill-opacity="1"/></g><g><path d="M26.87999969482422,9.555C26.384999694824216,9.4349998,25.859999694824218,9.375,25.31999969482422,9.375C21.38999969482422,9.375,18.19499969482422,12.57,18.19499969482422,16.5C18.19499969482422,17.835,18.569998694824218,19.095,19.22999969482422,20.175C19.78499969482422,21.105,20.54999969482422,21.9,21.47999969482422,22.47C22.58999969482422,23.205,23.90999969482422,23.625,25.31999969482422,23.625C27.929999694824218,23.625,30.19499969482422,22.23,31.42499969482422,20.175C32.08499969482422,19.095,32.44499969482422,17.835,32.44499969482422,16.5C32.44499969482422,13.11,30.07499969482422,10.26,26.87999969482422,9.555ZM28.24499969482422,15.855C28.24499969482422,15.855,24.59999969482422,19.5,24.59999969482422,19.5C24.46499969482422,19.634999999999998,24.179999694824218,19.77,23.984999694824218,19.8C23.984999694824218,19.8,22.58999969482422,19.994999999999997,22.58999969482422,19.994999999999997C22.079999694824217,20.07,21.734999694824218,19.71,21.80999969482422,19.215C21.80999969482422,19.215,22.004999694824217,17.82,22.004999694824217,17.82C22.03499969482422,17.625,22.16999969482422,17.355,22.304999694824218,17.205C22.304999694824218,17.205,25.42499969482422,14.085,25.42499969482422,14.085C25.42499969482422,14.085,25.949999694824218,13.559999999999999,25.949999694824218,13.559999999999999C26.579999694824217,12.93,27.314999694824216,12.629999999999999,28.22999969482422,13.559999999999999C29.144999694824218,14.49,28.87499969482422,15.225,28.24499969482422,15.855Z" fill="#12B858" fill-opacity="1"/><path d="M26.87999969482422,9.555C26.384999694824216,9.4349998,25.859999694824218,9.375,25.31999969482422,9.375C21.38999969482422,9.375,18.19499969482422,12.57,18.19499969482422,16.5C18.19499969482422,17.835,18.569998694824218,19.095,19.22999969482422,20.175C19.78499969482422,21.105,20.54999969482422,21.9,21.47999969482422,22.47C22.58999969482422,23.205,23.90999969482422,23.625,25.31999969482422,23.625C27.929999694824218,23.625,30.19499969482422,22.23,31.42499969482422,20.175C32.08499969482422,19.095,32.44499969482422,17.835,32.44499969482422,16.5C32.44499969482422,13.11,30.07499969482422,10.26,26.87999969482422,9.555ZM26.64439969482422,10.52685Q26.01801969482422,10.375,25.31999969482422,10.375Q22.786709694824218,10.375,20.99085969482422,12.17086Q19.19499969482422,13.966709999999999,19.19499969482422,16.5Q19.19499969482422,18.2,20.08327969482422,19.6535Q20.82437969482422,20.8953,22.002559694824217,21.6174L22.01748969482422,21.6265L22.03209969482422,21.636200000000002Q23.525359694824218,22.625,25.31999969482422,22.625Q26.972709694824218,22.625,28.38899969482422,21.8052Q29.75819969482422,21.0126,30.56699969482422,19.6614Q31.44499969482422,18.22455,31.44499969482422,16.5Q31.44499969482422,14.33061,30.08359969482422,12.6501Q28.737999694824218,10.98903,26.664519694824218,10.53151L26.64439969482422,10.52685ZM28.95209969482422,16.56211L25.30710969482422,20.2071Q24.832889694824217,20.6813,24.137059694824217,20.7884L22.728439694824218,20.9854Q21.853899694824218,21.114,21.26884969482422,20.5212Q20.68961969482422,19.9342,20.82127969482422,19.0652L21.01462969482422,17.681559999999998Q21.11428969482422,17.03317,21.56169969482422,16.53604L21.57929969482422,16.51649L24.71788969482422,13.37789L25.242889694824218,12.85289Q26.030979694824218,12.0648,26.884109694824218,11.97991Q27.971769694824218,11.871690000000001,28.942799694824217,12.85866Q30.78409969482422,14.73011,28.95209969482422,16.56211ZM28.24499969482422,15.855L24.59999969482422,19.5C24.46499969482422,19.634999999999998,24.179999694824218,19.77,23.984999694824218,19.8L22.58999969482422,19.994999999999997C22.079999694824217,20.07,21.734999694824218,19.71,21.80999969482422,19.215L22.004999694824217,17.82C22.03499969482422,17.625,22.16999969482422,17.355,22.304999694824218,17.205L25.42499969482422,14.085L25.949999694824218,13.559999999999999C26.579999694824217,12.93,27.314999694824216,12.629999999999999,28.22999969482422,13.559999999999999C29.144999694824218,14.49,28.87499969482422,15.225,28.24499969482422,15.855Z" fill-rule="evenodd" fill="#12B858" fill-opacity="1"/></g><g><path d="M30.870126953125,6.029999999999999C30.870126953125,6.029999999999999,30.870126953125,7.47,30.870126953125,7.47C30.870126953125,8.085,30.165126953125,8.46,29.610126953125,8.175C28.920126953125,7.815,28.185126953125,7.545,27.405126953125,7.365C26.745126953125,7.2,26.040126953125,7.125,25.320126953125,7.125C20.145126953125,7.125,15.945126953125,11.325,15.945126953125,16.5C15.945126953125,18.21,16.410126953125,19.89,17.295126953125,21.33C18.045126953125,22.59,19.095126953125,23.64,20.235126953125,24.345C20.490126953125,24.51,20.760126953125003,24.66,21.015126953124998,24.81C21.270126953125,24.945,21.450126953125,25.215,21.450126953125,25.5C21.450126953125,25.5,21.450126953125,28.605,21.450126953125,28.605C21.450126953125,29.52,20.850126953125,30.735,20.100126953125,31.185C20.100126953125,31.185,18.000126953124997,32.55,18.000126953124997,32.55C16.050126953125,33.765,13.365126953125,32.4,13.365126953125,29.97C13.365126953125,29.97,13.365126953125,21.945,13.365126953125,21.945C13.365126953125,20.88,12.765126953125,19.515,12.165126953125,18.765C12.165126953125,18.765,6.480126953125,12.705,6.480126953125,12.705C5.730126953125,11.94,5.130126953125001,10.575,5.130126953125001,9.675C5.130126953125001,9.675,5.130126953125001,6.18,5.130126953125001,6.18C5.130126953125,4.365,6.480126953125,3,8.115126953125,3C8.115126953125,3,27.885126953125,3,27.885126953125,3C29.520126953125,3,30.870126953125,4.365,30.870126953125,6.029999999999999Z" fill="#12B858" fill-opacity="1"/><path d="M20.235126953125,24.345C20.490126953125,24.51,20.760126953125003,24.66,21.015126953124998,24.81C21.270126953125,24.945,21.450126953125,25.215,21.450126953125,25.5L21.450126953125,28.605C21.450126953125,29.52,20.850126953125,30.735,20.100126953125,31.185L18.000126953124997,32.55C16.050126953125,33.765,13.365126953125,32.4,13.365126953125,29.97L13.365126953125,21.945C13.365126953125,20.88,12.765126953125,19.515,12.165126953125,18.765L6.480126953125,12.705C5.730126953125,11.94,5.130126953125,10.575,5.130126953125,9.675L5.130126953125,6.18C5.130126953125,4.365,6.480126953125,3,8.115126953125,3L27.885126953125,3C29.520126953125,3,30.870126953125,4.365,30.870126953125,6.029999999999999L30.870126953125,7.47C30.870126953125,8.085,30.165126953125,8.46,29.610126953125,8.175C28.920126953125,7.815,28.185126953125,7.545,27.405126953125,7.365C26.745126953125,7.2,26.040126953125,7.125,25.320126953125,7.125C20.145126953125,7.125,15.945126953125,11.325,15.945126953125,16.5C15.945126953125,18.21,16.410126953125,19.89,17.295126953125,21.33C18.045126953125,22.59,19.095126953125,23.64,20.235126953125,24.345ZM29.870126953125,6.029999999999999Q29.870126953125,5.19236,29.278826953125,4.59286Q28.694026953125,4,27.885126953125,4L8.115126953125,4Q7.304996953125,4,6.733126953125,4.59957Q6.130126953125,5.2317800000000005,6.130126953125,6.18L6.130126953125,9.675Q6.130126953125,10.91957,7.2094369531249995,12.02082L12.921386953125001,18.1095L12.945996953125,18.1403Q14.365126953125,19.9142,14.365126953125,21.945L14.365126953125,29.97Q14.365126953125,31.1749,15.425826953125,31.7466Q16.483626953125,32.3167,17.455126953125,31.7116L19.570226953125,30.3368L19.585626953125,30.3275Q20.450126953125,29.8088,20.450126953125,28.605L20.450126953125,25.638Q20.392326953125,25.6043,20.305926953125002,25.5543Q19.899126953125,25.3187,19.709126953125,25.1955Q17.688426953125,23.9458,16.443126953125002,21.8536Q14.945126953125,19.4161,14.945126953125,16.5Q14.945126953125,12.20454,17.984926953124997,9.16477Q21.024626953125,6.125,25.320126953125,6.125Q26.568226953125,6.125,27.630026953125,6.390610000000001Q28.813626953125,6.66375,29.870126953125,7.18551L29.870126953125,6.029999999999999Z" fill-rule="evenodd" fill="#12B858" fill-opacity="1"/></g></g></g></g></svg>