<svg xmlns="http://www.w3.org/2000/svg" xmlns:xlink="http://www.w3.org/1999/xlink" fill="none" version="1.1" width="36" height="36" viewBox="0 0 36 36"><g><g><g><path d="M19.01660390625,29.935403125C19.42860390625,30.031403125,19.46640390625,30.571103125,19.06500390625,30.704903125C19.06500390625,30.704903125,19.06500390625,30.704903125,19.06500390625,30.704903125C19.06500390625,30.704903125,16.69500390625,31.484903125,16.69500390625,31.484903125C10.74002390625,33.404903125000004,7.60502390625,31.799903125,5.67002390625,25.844903125C5.67002390625,25.844903125,3.75002390625,19.919903124999998,3.75002390625,19.919903124999998C1.83002390625,13.964943125,3.42002390625,10.814943125,9.37502390625,8.894947125C9.37502390625,8.894947125,10.16102390625,8.634649225,10.16102390625,8.634649225C10.76531390625,8.434527125,11.35341390625,9.040617125,11.18181390625,9.653613125C11.09676390625,9.957483125,11.01495390625,10.274583125,10.935023906249999,10.604943125C10.935023906249999,10.604943125,9.46502390625,16.889943125000002,9.46502390625,16.889943125000002C7.81502390625,23.954903125,10.23002390625,27.854903125,17.295003906250003,29.534903125C17.295003906250003,29.534903125,19.01660390625,29.935403125,19.01660390625,29.935403125C19.01660390625,29.935403125,19.01660390625,29.935403125,19.01660390625,29.935403125Z" fill="#12B858" fill-opacity="1"/></g><g><path d="M25.754980859375,4.815017265625C25.754980859375,4.815017265625,23.249980859375,4.230012265625,23.249980859375,4.230012265625C18.240020859375,3.045012265625,15.255030859375001,4.020012265625,13.500020859375,7.650007265625C13.050020859375,8.565007265624999,12.690020859375,9.675007265625,12.390020859375,10.950007265625C12.390020859375,10.950007265625,10.920025859375,17.234997265624997,10.920025859375,17.234997265624997C9.450020859375,23.504997265625,11.385025859375,26.594997265625,17.640030859375,28.079997265625C17.640030859375,28.079997265625,20.160020859375003,28.679897265625,20.160020859375003,28.679897265625C21.029980859375,28.889997265625,21.839980859375,29.024997265625,22.589980859375,29.084997265625C27.269980859375,29.534897265625,29.759980859375,27.344997265625,31.019980859375,21.929997265625C31.019980859375,21.929997265625,32.489980859374995,15.659997265625,32.489980859374995,15.659997265625C33.959980859375,9.390007265625,32.039980859375,6.285007265625,25.754980859375,4.815017265625C25.754980859375,4.815017265625,25.754980859375,4.815017265625,25.754980859375,4.815017265625ZM22.934980859375003,19.994997265625C22.799980859374998,20.504997265625,22.349980859375002,20.834997265625,21.839980859375,20.834997265625C21.749980859375,20.834997265625,21.659980859375,20.819897265625,21.554980859375,20.804997265625C21.554980859375,20.804997265625,17.190020859375,19.694897265625002,17.190020859375,19.694897265625002C16.590020859375,19.544997265625,16.230020859375,18.929997265624998,16.380030859375,18.329997265625C16.530020859375,17.729997265625002,17.145020859375002,17.369997265625003,17.745020859375,17.519997265625C17.745020859375,17.519997265625,22.109980859375,18.629997265625,22.109980859375,18.629997265625C22.724980859375002,18.779997265625,23.084980859375,19.394897265624998,22.934980859375003,19.994997265625C22.934980859375003,19.994997265625,22.934980859375003,19.994997265625,22.934980859375003,19.994997265625ZM27.329980859375,14.924997265625C27.194980859375,15.434997265625,26.744980859375,15.764997265625,26.234980859375,15.764997265625C26.144980859375,15.764997265625,26.054980859375,15.749997265625,25.949980859375,15.734997265625C25.949980859375,15.734997265625,18.675030859375,13.889997265625,18.675030859375,13.889997265625C18.075020859375,13.740007265625,17.715020859375,13.125007265625,17.865020859375,12.525007265625C18.015030859375,11.925007265625,18.630030859374997,11.565007265624999,19.230030859375,11.715007265625001C19.230030859375,11.715007265625001,26.504980859375,13.560007265625,26.504980859375,13.560007265625C27.119980859375,13.695007265625,27.479980859375,14.309997265625,27.329980859375,14.924997265625C27.329980859375,14.924997265625,27.329980859375,14.924997265625,27.329980859375,14.924997265625Z" fill="#12B858" fill-opacity="1"/></g><g transform="matrix(-1,0,0,-1,72,72)" style="opacity:0;"><path d="" fill="#12B858" fill-opacity="1"/></g></g></g></svg>