<svg xmlns="http://www.w3.org/2000/svg" xmlns:xlink="http://www.w3.org/1999/xlink" fill="none" version="1.1" width="20" height="20" viewBox="0 0 20 20"><g><g><g><g><path d="M14.166748046875,16.875C14.166748046875,16.875,5.833418046875,16.875,5.833418046875,16.875C5.833418046875,16.875,5.833418046875,18.125,5.833418046875,18.125C5.833418046875,18.125,14.166748046875,18.125,14.166748046875,18.125C14.166748046875,18.125,14.166748046875,16.875,14.166748046875,16.875C14.166748046875,16.875,14.166748046875,16.875,14.166748046875,16.875ZM5.833418046875,16.875C4.1622780468750005,16.875,3.368268046875,16.651,2.942018046875,16.2247C2.515778046875,15.7985,2.291748046875,15.0045,2.291748046875,13.3333C2.291748046875,13.3333,1.041748046875,13.3333,1.041748046875,13.3333C1.041748046875,14.9955,1.234385046875,16.2848,2.058138046875,17.1086C2.881898046875,17.9323,4.1712180468749995,18.125,5.833418046875,18.125C5.833418046875,18.125,5.833418046875,16.875,5.833418046875,16.875C5.833418046875,16.875,5.833418046875,16.875,5.833418046875,16.875ZM2.291748046875,13.3333C2.291748046875,13.3333,2.291748046875,6.66667,2.291748046875,6.66667C2.291748046875,6.66667,1.041748046875,6.66667,1.041748046875,6.66667C1.041748046875,6.66667,1.041748046875,13.3333,1.041748046875,13.3333C1.041748046875,13.3333,2.291748046875,13.3333,2.291748046875,13.3333C2.291748046875,13.3333,2.291748046875,13.3333,2.291748046875,13.3333ZM2.291748046875,6.66667C2.291748046875,4.9955300000000005,2.515778046875,4.20152,2.942018046875,3.77527C3.368268046875,3.34903,4.1622780468750005,3.125,5.833418046875,3.125C5.833418046875,3.125,5.833418046875,1.875,5.833418046875,1.875C4.1712180468749995,1.875,2.881898046875,2.067637,2.058138046875,2.89139C1.234385046875,3.71515,1.041748046875,5.0044699999999995,1.041748046875,6.66667C1.041748046875,6.66667,2.291748046875,6.66667,2.291748046875,6.66667C2.291748046875,6.66667,2.291748046875,6.66667,2.291748046875,6.66667ZM5.833418046875,3.125C5.833418046875,3.125,14.166748046875,3.125,14.166748046875,3.125C14.166748046875,3.125,14.166748046875,1.875,14.166748046875,1.875C14.166748046875,1.875,5.833418046875,1.875,5.833418046875,1.875C5.833418046875,1.875,5.833418046875,3.125,5.833418046875,3.125C5.833418046875,3.125,5.833418046875,3.125,5.833418046875,3.125ZM14.166748046875,3.125C15.837948046875,3.125,16.631948046875,3.34903,17.058148046875,3.77527C17.484448046875,4.20152,17.708448046875,4.9955300000000005,17.708448046875,6.66667C17.708448046875,6.66667,18.958448046875,6.66667,18.958448046875,6.66667C18.958448046875,5.0044699999999995,18.765748046875,3.71515,17.941948046875,2.89139C17.118248046875,2.067637,15.828948046875,1.875,14.166748046875,1.875C14.166748046875,1.875,14.166748046875,3.125,14.166748046875,3.125C14.166748046875,3.125,14.166748046875,3.125,14.166748046875,3.125ZM17.708448046875,6.66667C17.708448046875,6.66667,17.708448046875,13.3333,17.708448046875,13.3333C17.708448046875,13.3333,18.958448046875,13.3333,18.958448046875,13.3333C18.958448046875,13.3333,18.958448046875,6.66667,18.958448046875,6.66667C18.958448046875,6.66667,17.708448046875,6.66667,17.708448046875,6.66667C17.708448046875,6.66667,17.708448046875,6.66667,17.708448046875,6.66667ZM17.708448046875,13.3333C17.708448046875,15.0045,17.484448046875,15.7985,17.058148046875,16.2247C16.631948046875,16.651,15.837948046875,16.875,14.166748046875,16.875C14.166748046875,16.875,14.166748046875,18.125,14.166748046875,18.125C15.828948046875,18.125,17.118248046875,17.9323,17.941948046875,17.1086C18.765748046875,16.2848,18.958448046875,14.9955,18.958448046875,13.3333C18.958448046875,13.3333,17.708448046875,13.3333,17.708448046875,13.3333C17.708448046875,13.3333,17.708448046875,13.3333,17.708448046875,13.3333Z" fill="#1A1A1A" fill-opacity="1"/></g><g><path d="M11.666748046875,6.0416259765625C11.321570046875,6.0416259765625,11.041748046875,6.3214479765625,11.041748046875,6.6666259765625C11.041748046875,7.0118039765625,11.321570046875,7.2916259765625,11.666748046875,7.2916259765625C11.666748046875,7.2916259765625,11.666748046875,6.0416259765625,11.666748046875,6.0416259765625C11.666748046875,6.0416259765625,11.666748046875,6.0416259765625,11.666748046875,6.0416259765625ZM15.833418046875,7.2916259765625C16.178588046875,7.2916259765625,16.458418046875,7.0118039765625,16.458418046875,6.6666259765625C16.458418046875,6.3214479765625,16.178588046875,6.0416259765625,15.833418046875,6.0416259765625C15.833418046875,6.0416259765625,15.833418046875,7.2916259765625,15.833418046875,7.2916259765625C15.833418046875,7.2916259765625,15.833418046875,7.2916259765625,15.833418046875,7.2916259765625ZM11.666748046875,7.2916259765625C11.666748046875,7.2916259765625,15.833418046875,7.2916259765625,15.833418046875,7.2916259765625C15.833418046875,7.2916259765625,15.833418046875,6.0416259765625,15.833418046875,6.0416259765625C15.833418046875,6.0416259765625,11.666748046875,6.0416259765625,11.666748046875,6.0416259765625C11.666748046875,6.0416259765625,11.666748046875,7.2916259765625,11.666748046875,7.2916259765625C11.666748046875,7.2916259765625,11.666748046875,7.2916259765625,11.666748046875,7.2916259765625Z" fill="#1A1A1A" fill-opacity="1"/></g><g><path d="M12.5,9.375C12.154822,9.375,11.875,9.654822,11.875,10C11.875,10.345178,12.154822,10.625,12.5,10.625C12.5,10.625,12.5,9.375,12.5,9.375C12.5,9.375,12.5,9.375,12.5,9.375ZM15.83333,10.625C16.17851,10.625,16.45833,10.345178,16.45833,10C16.45833,9.654822,16.17851,9.375,15.83333,9.375C15.83333,9.375,15.83333,10.625,15.83333,10.625C15.83333,10.625,15.83333,10.625,15.83333,10.625ZM12.5,10.625C12.5,10.625,15.83333,10.625,15.83333,10.625C15.83333,10.625,15.83333,9.375,15.83333,9.375C15.83333,9.375,12.5,9.375,12.5,9.375C12.5,9.375,12.5,10.625,12.5,10.625C12.5,10.625,12.5,10.625,12.5,10.625Z" fill="#1A1A1A" fill-opacity="1"/></g><g><path d="M14.166748046875,12.7083740234375C13.821570046875,12.7083740234375,13.541748046875,12.9881960234375,13.541748046875,13.3333740234375C13.541748046875,13.6785520234375,13.821570046875,13.9583740234375,14.166748046875,13.9583740234375C14.166748046875,13.9583740234375,14.166748046875,12.7083740234375,14.166748046875,12.7083740234375C14.166748046875,12.7083740234375,14.166748046875,12.7083740234375,14.166748046875,12.7083740234375ZM15.833418046875,13.9583740234375C16.178588046875,13.9583740234375,16.458418046875,13.6785520234375,16.458418046875,13.3333740234375C16.458418046875,12.9881960234375,16.178588046875,12.7083740234375,15.833418046875,12.7083740234375C15.833418046875,12.7083740234375,15.833418046875,13.9583740234375,15.833418046875,13.9583740234375C15.833418046875,13.9583740234375,15.833418046875,13.9583740234375,15.833418046875,13.9583740234375ZM14.166748046875,13.9583740234375C14.166748046875,13.9583740234375,15.833418046875,13.9583740234375,15.833418046875,13.9583740234375C15.833418046875,13.9583740234375,15.833418046875,12.7083740234375,15.833418046875,12.7083740234375C15.833418046875,12.7083740234375,14.166748046875,12.7083740234375,14.166748046875,12.7083740234375C14.166748046875,12.7083740234375,14.166748046875,13.9583740234375,14.166748046875,13.9583740234375C14.166748046875,13.9583740234375,14.166748046875,13.9583740234375,14.166748046875,13.9583740234375Z" fill="#1A1A1A" fill-opacity="1"/></g><g><path d="M7.9666211718749995,7.9000536328125C7.9666211718749995,8.387903632812499,7.571131171875,8.7833936328125,7.083281171875,8.7833936328125C7.083281171875,8.7833936328125,7.083281171875,10.033393632812501,7.083281171875,10.033393632812501C8.261491171875,10.033393632812501,9.216621171875001,9.0782636328125,9.216621171875001,7.9000536328125C9.216621171875001,7.9000536328125,7.9666211718749995,7.9000536328125,7.9666211718749995,7.9000536328125C7.9666211718749995,7.9000536328125,7.9666211718749995,7.9000536328125,7.9666211718749995,7.9000536328125ZM7.083281171875,8.7833936328125C6.595431171875,8.7833936328125,6.199951171875,8.387903632812499,6.199951171875,7.9000536328125C6.199951171875,7.9000536328125,4.949951171875,7.9000536328125,4.949951171875,7.9000536328125C4.949951171875,9.0782636328125,5.905077171875,10.033393632812501,7.083281171875,10.033393632812501C7.083281171875,10.033393632812501,7.083281171875,8.7833936328125,7.083281171875,8.7833936328125C7.083281171875,8.7833936328125,7.083281171875,8.7833936328125,7.083281171875,8.7833936328125ZM6.199951171875,7.9000536328125C6.199951171875,7.4122036328125,6.595431171875,7.0167236328125,7.083281171875,7.0167236328125C7.083281171875,7.0167236328125,7.083281171875,5.7667236328125,7.083281171875,5.7667236328125C5.905077171875,5.7667236328125,4.949951171875,6.7218486328125,4.949951171875,7.9000536328125C4.949951171875,7.9000536328125,6.199951171875,7.9000536328125,6.199951171875,7.9000536328125C6.199951171875,7.9000536328125,6.199951171875,7.9000536328125,6.199951171875,7.9000536328125ZM7.083281171875,7.0167236328125C7.571131171875,7.0167236328125,7.9666211718749995,7.4122036328125,7.9666211718749995,7.9000536328125C7.9666211718749995,7.9000536328125,9.216621171875001,7.9000536328125,9.216621171875001,7.9000536328125C9.216621171875001,6.7218486328125,8.261491171875,5.7667236328125,7.083281171875,5.7667236328125C7.083281171875,5.7667236328125,7.083281171875,7.0167236328125,7.083281171875,7.0167236328125C7.083281171875,7.0167236328125,7.083281171875,7.0167236328125,7.083281171875,7.0167236328125Z" fill="#1A1A1A" fill-opacity="1"/></g><g><path d="M9.378018046874999,13.6684048046875C9.411188046875,14.0119848046875,9.716608046874999,14.263624804687499,10.060188046875,14.2304548046875C10.403778046875,14.197274804687499,10.655408046875,13.891854804687501,10.622238046875001,13.5482748046875C10.622238046875001,13.5482748046875,9.378018046874999,13.6684048046875,9.378018046874999,13.6684048046875C9.378018046874999,13.6684048046875,9.378018046874999,13.6684048046875,9.378018046874999,13.6684048046875ZM7.716788046875,11.3416748046875C7.716788046875,11.3416748046875,7.654598046875,11.9636048046875,7.654598046875,11.9636048046875C7.654598046875,11.9636048046875,7.660988046875,11.9641748046875,7.660988046875,11.9641748046875C7.660988046875,11.9641748046875,7.716788046875,11.3416748046875,7.716788046875,11.3416748046875C7.716788046875,11.3416748046875,7.716788046875,11.3416748046875,7.716788046875,11.3416748046875ZM6.450128046875,11.3416748046875C6.450128046875,11.3416748046875,6.510188046875,11.9637848046875,6.510188046875,11.9637848046875C6.510188046875,11.9637848046875,6.511108046875,11.9636948046875,6.511108046875,11.9636948046875C6.511108046875,11.9636948046875,6.450128046875,11.3416748046875,6.450128046875,11.3416748046875C6.450128046875,11.3416748046875,6.450128046875,11.3416748046875,6.450128046875,11.3416748046875ZM3.544685246875,13.5482748046875C3.511511946875,13.891854804687501,3.763146046875,14.197274804687499,4.106726046875,14.2304548046875C4.450307046875,14.263624804687499,4.755728046875,14.0119848046875,4.7888980468749995,13.6684048046875C4.7888980468749995,13.6684048046875,3.544685246875,13.5482748046875,3.544685246875,13.5482748046875C3.544685246875,13.5482748046875,3.544685246875,13.5482748046875,3.544685246875,13.5482748046875ZM10.622238046875001,13.5482748046875C10.476628046875,12.0401648046875,9.279938046875,10.8543118046875,7.772598046875,10.7191716046875C7.772598046875,10.7191716046875,7.660988046875,11.9641748046875,7.660988046875,11.9641748046875C8.570318046875,12.0457048046875,9.290288046875,12.7598448046875,9.378018046874999,13.6684048046875C9.378018046874999,13.6684048046875,10.622238046875001,13.5482748046875,10.622238046875001,13.5482748046875C10.622238046875001,13.5482748046875,10.622238046875001,13.5482748046875,10.622238046875001,13.5482748046875ZM7.778988046875,10.7197766046875C7.320558046875,10.6739341046875,6.854288046875,10.6740541046875,6.389138046875,10.7196574046875C6.389138046875,10.7196574046875,6.511108046875,11.9636948046875,6.511108046875,11.9636948046875C6.895958046875,11.9259648046875,7.279688046875,11.9260848046875,7.654598046875,11.9635748046875C7.654598046875,11.9635748046875,7.778988046875,10.7197766046875,7.778988046875,10.7197766046875C7.778988046875,10.7197766046875,7.778988046875,10.7197766046875,7.778988046875,10.7197766046875ZM6.390058046875,10.7195682046875C4.889608046875,10.8644388046875,3.690629046875,12.0367148046875,3.544685246875,13.5482748046875C3.544685246875,13.5482748046875,4.7888980468749995,13.6684048046875,4.7888980468749995,13.6684048046875C4.8762880468750005,12.7633048046875,5.593978046875,12.0522448046875,6.510188046875,11.9637848046875C6.510188046875,11.9637848046875,6.390058046875,10.7195682046875,6.390058046875,10.7195682046875C6.390058046875,10.7195682046875,6.390058046875,10.7195682046875,6.390058046875,10.7195682046875Z" fill="#1A1A1A" fill-opacity="1"/></g><g style="opacity:0;"></g></g></g></g></svg>