<svg xmlns="http://www.w3.org/2000/svg" xmlns:xlink="http://www.w3.org/1999/xlink" fill="none" version="1.1" width="20" height="20" viewBox="0 0 20 20"><g><g><g><g><path d="M4.16667,15.29160078125C4.16667,15.29160078125,3.817,15.80960078125,3.817,15.80960078125C3.8289999999999997,15.81780078125,3.84129,15.82550078125,3.8538300000000003,15.83270078125C3.8538300000000003,15.83270078125,4.16667,15.29160078125,4.16667,15.29160078125C4.16667,15.29160078125,4.16667,15.29160078125,4.16667,15.29160078125ZM8.75,17.94160078125C8.75,17.94160078125,9.06289,17.40060078125,9.06289,17.40060078125C9.06289,17.40060078125,9.06283,17.40060078125,9.06283,17.40060078125C9.06283,17.40060078125,8.75,17.94160078125,8.75,17.94160078125C8.75,17.94160078125,8.75,17.94160078125,8.75,17.94160078125ZM11.25,17.94160078125C11.25,17.94160078125,10.93717,17.40060078125,10.93717,17.40060078125C10.93717,17.40060078125,10.93425,17.40220078125,10.93425,17.40220078125C10.93425,17.40220078125,11.25,17.94160078125,11.25,17.94160078125C11.25,17.94160078125,11.25,17.94160078125,11.25,17.94160078125ZM15.8333,15.29160078125C15.8333,15.29160078125,16.1462,15.83270078125,16.1462,15.83270078125C16.1587,15.82550078125,16.171,15.81780078125,16.183,15.80960078125C16.183,15.80960078125,15.8333,15.29160078125,15.8333,15.29160078125C15.8333,15.29160078125,15.8333,15.29160078125,15.8333,15.29160078125ZM15.8333,4.70830078125C15.8333,4.70830078125,16.183,4.19027078125,16.183,4.19027078125C16.171,4.18217078125,16.1587,4.174480781250001,16.1462,4.16723078125C16.1462,4.16723078125,15.8333,4.70830078125,15.8333,4.70830078125C15.8333,4.70830078125,15.8333,4.70830078125,15.8333,4.70830078125ZM11.25,2.05830078125C11.25,2.05830078125,10.93425,2.59769078125,10.93425,2.59769078125C10.93425,2.59769078125,10.93717,2.59937078125,10.93717,2.59937078125C10.93717,2.59937078125,11.25,2.05830078125,11.25,2.05830078125C11.25,2.05830078125,11.25,2.05830078125,11.25,2.05830078125ZM8.75,2.05830078125C8.75,2.05830078125,9.06283,2.59937078125,9.06283,2.59937078125C9.06283,2.59937078125,9.06289,2.59934078125,9.06289,2.59934078125C9.06289,2.59934078125,8.75,2.05830078125,8.75,2.05830078125C8.75,2.05830078125,8.75,2.05830078125,8.75,2.05830078125ZM4.16667,4.70830078125C4.16667,4.70830078125,3.8538300000000003,4.16723078125,3.8538300000000003,4.16723078125C3.84129,4.174480781250001,3.8289999999999997,4.18217078125,3.817,4.19027078125C3.817,4.19027078125,4.16667,4.70830078125,4.16667,4.70830078125C4.16667,4.70830078125,4.16667,4.70830078125,4.16667,4.70830078125ZM1.87500139072,7.59163078125C1.87500139072,7.59163078125,1.87500139072,12.40000078125,1.87500139072,12.40000078125C1.87500139072,12.40000078125,3.125,12.40000078125,3.125,12.40000078125C3.125,12.40000078125,3.125,7.59163078125,3.125,7.59163078125C3.125,7.59163078125,1.87500139072,7.59163078125,1.87500139072,7.59163078125C1.87500139072,7.59163078125,1.87500139072,7.59163078125,1.87500139072,7.59163078125ZM1.87500139072,12.40000078125C1.87500139072,12.82950078125,1.874311391,13.19640078125,1.9040164,13.49980078125C1.9350289,13.81650078125,2.002586,14.11350078125,2.166839,14.39850078125C2.3276120000000002,14.67750078125,2.553077,14.89590078125,2.8148530000000003,15.10340078125C3.07239,15.30750078125,3.40841,15.53390078125,3.817,15.80960078125C3.817,15.80960078125,4.51633,14.77360078125,4.51633,14.77360078125C4.09159,14.48690078125,3.80261,14.29130078125,3.5914,14.12390078125C3.38443,13.95980078125,3.29739,13.85680078125,3.24983,13.77430078125C3.20575,13.69790078125,3.16914,13.59320078125,3.1480699999999997,13.37800078125C3.12569,13.14940078125,3.125,12.85370078125,3.125,12.40000078125C3.125,12.40000078125,1.87500139072,12.40000078125,1.87500139072,12.40000078125C1.87500139072,12.40000078125,1.87500139072,12.40000078125,1.87500139072,12.40000078125ZM3.8538300000000003,15.83270078125C3.8538300000000003,15.83270078125,8.43717,18.48270078125,8.43717,18.48270078125C8.43717,18.48270078125,9.06283,17.40060078125,9.06283,17.40060078125C9.06283,17.40060078125,4.4795,14.75050078125,4.4795,14.75050078125C4.4795,14.75050078125,3.8538300000000003,15.83270078125,3.8538300000000003,15.83270078125C3.8538300000000003,15.83270078125,3.8538300000000003,15.83270078125,3.8538300000000003,15.83270078125ZM8.43711,18.48260078125C8.90053,18.75070078125,9.46941,18.86660078125,10.00313,18.86660078125C10.53646,18.86660078125,11.10483,18.75080078125,11.56575,18.48100078125C11.56575,18.48100078125,10.93425,17.40220078125,10.93425,17.40220078125C10.71183,17.53250078125,10.37604,17.61660078125,10.00313,17.61660078125C9.63059,17.61660078125,9.291129999999999,17.53260078125,9.06289,17.40060078125C9.06289,17.40060078125,8.43711,18.48260078125,8.43711,18.48260078125C8.43711,18.48260078125,8.43711,18.48260078125,8.43711,18.48260078125ZM11.56283,18.48270078125C11.56283,18.48270078125,16.1462,15.83270078125,16.1462,15.83270078125C16.1462,15.83270078125,15.5205,14.75050078125,15.5205,14.75050078125C15.5205,14.75050078125,10.93717,17.40060078125,10.93717,17.40060078125C10.93717,17.40060078125,11.56283,18.48270078125,11.56283,18.48270078125C11.56283,18.48270078125,11.56283,18.48270078125,11.56283,18.48270078125ZM16.183,15.80960078125C16.5916,15.53390078125,16.927500000000002,15.30760078125,17.185000000000002,15.10360078125C17.4466,14.89650078125,17.672,14.67850078125,17.832700000000003,14.40020078125C17.9972,14.11580078125,18.0649,13.81950078125,18.096,13.50350078125C18.1257,13.20110078125,18.125,12.83570078125,18.125,12.40830078125C18.125,12.40830078125,16.875,12.40830078125,16.875,12.40830078125C16.875,12.86000078125,16.874299999999998,13.15400078125,16.8519,13.38120078125C16.8309,13.59500078125,16.7945,13.69870078125,16.7506,13.77470078125C16.703,13.85690078125,16.6159,13.95970078125,16.4088,14.12390078125C16.197499999999998,14.29130078125,15.9084,14.48690078125,15.4837,14.77360078125C15.4837,14.77360078125,16.183,15.80960078125,16.183,15.80960078125C16.183,15.80960078125,16.183,15.80960078125,16.183,15.80960078125ZM18.125,12.40830078125C18.125,12.40830078125,18.125,7.59163078125,18.125,7.59163078125C18.125,7.59163078125,16.875,7.59163078125,16.875,7.59163078125C16.875,7.59163078125,16.875,12.40830078125,16.875,12.40830078125C16.875,12.40830078125,18.125,12.40830078125,18.125,12.40830078125C18.125,12.40830078125,18.125,12.40830078125,18.125,12.40830078125ZM18.125,7.59163078125C18.125,7.16419078125,18.1257,6.79879078125,18.096,6.49636078125C18.0649,6.18042078125,17.9972,5.88414078125,17.832700000000003,5.59969078125C17.672,5.32148078125,17.4466,5.10350078125,17.185000000000002,4.89627078125C16.927500000000002,4.69232078125,16.5916,4.46608078125,16.183,4.19027078125C16.183,4.19027078125,15.4837,5.22633078125,15.4837,5.22633078125C15.9084,5.51302078125,16.197499999999998,5.70866078125,16.4088,5.87606078125C16.6159,6.04018078125,16.703,6.14303078125,16.7506,6.22524078125C16.7945,6.30121078125,16.8309,6.40493078125,16.8519,6.61867078125C16.874299999999998,6.84593078125,16.875,7.13991078125,16.875,7.59163078125C16.875,7.59163078125,18.125,7.59163078125,18.125,7.59163078125C18.125,7.59163078125,18.125,7.59163078125,18.125,7.59163078125ZM16.1462,4.16723078125C16.1462,4.16723078125,11.56283,1.51722978125,11.56283,1.51722978125C11.56283,1.51722978125,10.93717,2.59937078125,10.93717,2.59937078125C10.93717,2.59937078125,15.5205,5.24938078125,15.5205,5.24938078125C15.5205,5.24938078125,16.1462,4.16723078125,16.1462,4.16723078125C16.1462,4.16723078125,16.1462,4.16723078125,16.1462,4.16723078125ZM11.56575,1.51891678125C11.10483,1.24911878125,10.53646,1.13330078125,10.00313,1.13330078125C9.46941,1.13330078125,8.90053,1.24925578125,8.43711,1.51726078125C8.43711,1.51726078125,9.06289,2.59934078125,9.06289,2.59934078125C9.291129999999999,2.46735078125,9.63059,2.38330078125,10.00313,2.38330078125C10.37604,2.38330078125,10.71183,2.46748078125,10.93425,2.5976807812500002C10.93425,2.5976807812500002,11.56575,1.51891678125,11.56575,1.51891678125C11.56575,1.51891678125,11.56575,1.51891678125,11.56575,1.51891678125ZM8.43717,1.51722978125C8.43717,1.51722978125,3.8538300000000003,4.16723078125,3.8538300000000003,4.16723078125C3.8538300000000003,4.16723078125,4.4795,5.24938078125,4.4795,5.24938078125C4.4795,5.24938078125,9.06283,2.59937078125,9.06283,2.59937078125C9.06283,2.59937078125,8.43717,1.51722978125,8.43717,1.51722978125C8.43717,1.51722978125,8.43717,1.51722978125,8.43717,1.51722978125ZM3.817,4.19027078125C3.40838,4.46608078125,3.07246,4.69232078125,2.81502,4.89627078125C2.553438,5.10350078125,2.328041,5.32148078125,2.167229,5.59969078125C2.002806,5.88414078125,1.9351089,6.18042078125,1.9040431,6.49636078125C1.874305557,6.79879078125,1.87500139072,7.16419078125,1.87500139072,7.59163078125C1.87500139072,7.59163078125,3.125,7.59163078125,3.125,7.59163078125C3.125,7.13991078125,3.1257,6.84593078125,3.14804,6.61867078125C3.16906,6.40493078125,3.20553,6.30121078125,3.24944,6.22524078125C3.29696,6.14303078125,3.38407,6.04018078125,3.59123,5.87606078125C3.80253,5.70866078125,4.09162,5.51302078125,4.51633,5.22633078125C4.51633,5.22633078125,3.817,4.19027078125,3.817,4.19027078125C3.817,4.19027078125,3.817,4.19027078125,3.817,4.19027078125Z" fill="#1A1A1A" fill-opacity="1"/></g><g><path d="M11.875,10C11.875,11.03553,11.03553,11.875,10,11.875C10,11.875,10,13.125,10,13.125C11.72589,13.125,13.125,11.72589,13.125,10C13.125,10,11.875,10,11.875,10C11.875,10,11.875,10,11.875,10ZM10,11.875C8.96447,11.875,8.125,11.03553,8.125,10C8.125,10,6.875,10,6.875,10C6.875,11.72589,8.27411,13.125,10,13.125C10,13.125,10,11.875,10,11.875C10,11.875,10,11.875,10,11.875ZM8.125,10C8.125,8.96447,8.96447,8.125,10,8.125C10,8.125,10,6.875,10,6.875C8.27411,6.875,6.875,8.27411,6.875,10C6.875,10,8.125,10,8.125,10C8.125,10,8.125,10,8.125,10ZM10,8.125C11.03553,8.125,11.875,8.96447,11.875,10C11.875,10,13.125,10,13.125,10C13.125,8.27411,11.72589,6.875,10,6.875C10,6.875,10,8.125,10,8.125C10,8.125,10,8.125,10,8.125Z" fill="#1A1A1A" fill-opacity="1"/></g><g style="opacity:0;"><path d="" fill="#1A1A1A" fill-opacity="1"/></g></g></g></g></svg>