<svg xmlns="http://www.w3.org/2000/svg" xmlns:xlink="http://www.w3.org/1999/xlink" fill="none" version="1.1" width="14" height="14" viewBox="0 0 14 14"><g><g><g><g><path d="M4.888150765625,11.3106648828125C4.717296165625,11.4815248828125,4.717296165625,11.7584848828125,4.888150765625,11.9293448828125C5.059004765625,12.1002048828125,5.336014765625,12.1002048828125,5.506868765625,11.9293448828125C5.506868765625,11.9293448828125,4.888150765625,11.3106648828125,4.888150765625,11.3106648828125C4.888150765625,11.3106648828125,4.888150765625,11.3106648828125,4.888150765625,11.3106648828125ZM5.506868765625,2.0706458828125C5.336014765625,1.8997912828125,5.059004765625,1.8997912828125,4.888150765625,2.0706458828125C4.717296165625,2.2414998828125,4.717296165625,2.5185098828125,4.888150765625,2.6893638828125C4.888150765625,2.6893638828125,5.506868765625,2.0706458828125,5.506868765625,2.0706458828125C5.506868765625,2.0706458828125,5.506868765625,2.0706458828125,5.506868765625,2.0706458828125ZM5.506868765625,11.9293448828125C5.506868765625,11.9293448828125,9.310199765625,8.126034882812501,9.310199765625,8.126034882812501C9.310199765625,8.126034882812501,8.691479765625001,7.5073148828125,8.691479765625001,7.5073148828125C8.691479765625001,7.5073148828125,4.888150765625,11.3106648828125,4.888150765625,11.3106648828125C4.888150765625,11.3106648828125,5.506868765625,11.9293448828125,5.506868765625,11.9293448828125C5.506868765625,11.9293448828125,5.506868765625,11.9293448828125,5.506868765625,11.9293448828125ZM9.310199765625,8.126034882812501C9.930219765625,7.5060148828125,9.930219765625,6.4939948828125,9.310199765625,5.8739748828125C9.310199765625,5.8739748828125,8.691479765625001,6.4926948828125,8.691479765625001,6.4926948828125C8.969799765625,6.7710148828125,8.969799765625,7.2289948828125,8.691479765625001,7.5073148828125C8.691479765625001,7.5073148828125,9.310199765625,8.126034882812501,9.310199765625,8.126034882812501C9.310199765625,8.126034882812501,9.310199765625,8.126034882812501,9.310199765625,8.126034882812501ZM9.310199765625,5.8739748828125C9.310199765625,5.8739748828125,5.506868765625,2.0706458828125,5.506868765625,2.0706458828125C5.506868765625,2.0706458828125,4.888150765625,2.6893638828125,4.888150765625,2.6893638828125C4.888150765625,2.6893638828125,8.691479765625001,6.4926948828125,8.691479765625001,6.4926948828125C8.691479765625001,6.4926948828125,9.310199765625,5.8739748828125,9.310199765625,5.8739748828125C9.310199765625,5.8739748828125,9.310199765625,5.8739748828125,9.310199765625,5.8739748828125Z" fill="#12B858" fill-opacity="1"/></g><g transform="matrix(-1,0,0,-1,28,28)" style="opacity:0;"></g></g></g></g></svg>