<svg xmlns="http://www.w3.org/2000/svg" xmlns:xlink="http://www.w3.org/1999/xlink" fill="none" version="1.1" width="24" height="24" viewBox="0 0 24 24"><defs><clipPath id="master_svg0_42_21044"><rect x="0" y="0" width="24" height="24" rx="0"/></clipPath></defs><g clip-path="url(#master_svg0_42_21044)"><g><path d="M8.883995859375,17.6681189453125L3.331538859375,12.115688945312499C2.889014859375,11.673158945312501,2.889014859375,10.955688945312499,3.331538859375,10.513158945312501C3.774062859375,10.0706389453125,4.491535859375,10.0706389453125,4.934065859375,10.513158945312501L9.830075859375,15.4091789453125L19.065455859375,6.1738199453125C19.507955859375,5.7312949453125,20.225455859375,5.7312949453125,20.667955859375,6.1738199453125C21.110455859375,6.6163439453125,21.110455859375,7.3338189453125,20.667955859375,7.7763389453125L10.776185859375001,17.6681189453125C10.737185859375,17.7247189453125,10.693125859375,17.7776189453125,10.644535859375,17.8261189453125C10.428755859375,18.0419189453125,10.135055859375,18.161618945312497,9.829915859375,18.1580189453125C9.524885859375,18.1615189453125,9.231325859375,18.0418189453125,9.015615859375,17.8261189453125C8.967045859375,17.7776189453125,8.922985859375,17.7247189453125,8.883995859375,17.6681189453125Z" fill-rule="evenodd" fill="#12B858" fill-opacity="1"/></g></g></svg>