<svg xmlns="http://www.w3.org/2000/svg" xmlns:xlink="http://www.w3.org/1999/xlink" fill="none" version="1.1" width="20" height="20" viewBox="0 0 20 20"><g><g><g><g><path d="M10.000078046875,1.6666259765625C5.408418046875,1.6666259765625,1.666748046875,5.4082959765625,1.666748046875,9.9999559765625C1.666748046875,14.5916259765625,5.408418046875,18.3333259765625,10.000078046875,18.3333259765625C14.591748046875,18.3333259765625,18.333448046875,14.5916259765625,18.333448046875,9.9999559765625C18.333448046875,5.4082959765625,14.591748046875,1.6666259765625,10.000078046875,1.6666259765625C10.000078046875,1.6666259765625,10.000078046875,1.6666259765625,10.000078046875,1.6666259765625ZM12.800048046875,11.9166259765625C13.041748046875,12.1583259765625,13.041748046875,12.5583259765625,12.800048046875,12.7999259765625C12.675048046875,12.9249259765625,12.516748046875,12.9833259765625,12.358448046875,12.9833259765625C12.200048046875,12.9833259765625,12.041748046875,12.9249259765625,11.916748046875,12.7999259765625C11.916748046875,12.7999259765625,10.000078046875,10.8832959765625,10.000078046875,10.8832959765625C10.000078046875,10.8832959765625,8.083418046875,12.7999259765625,8.083418046875,12.7999259765625C7.958418046875,12.9249259765625,7.800078046875,12.9833259765625,7.641748046875,12.9833259765625C7.483418046875,12.9833259765625,7.325078046875,12.9249259765625,7.200078046875,12.7999259765625C6.958418046875,12.5583259765625,6.958418046875,12.1583259765625,7.200078046875,11.9166259765625C7.200078046875,11.9166259765625,9.116748046875,9.9999559765625,9.116748046875,9.9999559765625C9.116748046875,9.9999559765625,7.200078046875,8.0832959765625,7.200078046875,8.0832959765625C6.958418046875,7.8416259765625,6.958418046875,7.4416259765625,7.200078046875,7.1999559765625C7.441748046875,6.9582959765625,7.841748046875,6.9582959765625,8.083418046875,7.1999559765625C8.083418046875,7.1999559765625,10.000078046875,9.1166259765625,10.000078046875,9.1166259765625C10.000078046875,9.1166259765625,11.916748046875,7.1999559765625,11.916748046875,7.1999559765625C12.158448046875,6.9582959765625,12.558448046875,6.9582959765625,12.800048046875,7.1999559765625C13.041748046875,7.4416259765625,13.041748046875,7.8416259765625,12.800048046875,8.0832959765625C12.800048046875,8.0832959765625,10.883418046875,9.9999559765625,10.883418046875,9.9999559765625C10.883418046875,9.9999559765625,12.800048046875,11.9166259765625,12.800048046875,11.9166259765625C12.800048046875,11.9166259765625,12.800048046875,11.9166259765625,12.800048046875,11.9166259765625Z" fill="#F5222D" fill-opacity="1"/></g><g transform="matrix(-1,0,0,-1,40,40)" style="opacity:0;"></g></g></g></g></svg>