<svg xmlns="http://www.w3.org/2000/svg" xmlns:xlink="http://www.w3.org/1999/xlink" fill="none" version="1.1" width="24" height="24" viewBox="0 0 24 24"><defs><clipPath id="master_svg0_42_21031"><rect x="0" y="0" width="24" height="24" rx="0"/></clipPath></defs><g clip-path="url(#master_svg0_42_21031)"><g><path d="M12.000119999999999,10.5078128515625L6.38695,4.8946438515625C5.9553,4.4629888515625,5.255447,4.4629878515625,4.823792,4.8946428515625C4.392138,5.3262978515625,4.392138,6.0261528515625,4.823793,6.4578028515625L10.43696,12.0709728515625L4.965811,17.5421228515625C4.5341555,17.973822851562502,4.5341551,18.6736228515625,4.96581,19.105322851562498C5.397465,19.5369228515625,6.09732,19.5369228515625,6.52897,19.105322851562498L12.000119999999999,13.6341328515625L17.4712,19.1052228515625C17.9028,19.536822851562498,18.6027,19.536822851562498,19.0343,19.1052228515625C19.466,18.673522851562502,19.466,17.9737228515625,19.0343,17.5420228515625L13.56328,12.0709728515625L19.1764,6.4579028515625C19.608,6.0262428515625,19.608,5.3263938515625,19.1764,4.8947388515625C18.7447,4.4630848515625,18.0449,4.4630848515625,17.6132,4.8947388515625L12.000119999999999,10.5078128515625Z" fill-rule="evenodd" fill="#F5222D" fill-opacity="1"/></g></g></svg>