<svg xmlns="http://www.w3.org/2000/svg" xmlns:xlink="http://www.w3.org/1999/xlink" fill="none" version="1.1" width="16" height="16" viewBox="0 0 16 16"><g><g><g><g><path d="M3.333251953125,7.1667040234375C3.333251953125,7.1667040234375,4.666581953125,7.1667040234375,4.666581953125,7.1667040234375C4.666581953125,7.1667040234375,4.666581953125,6.1667040234375,4.666581953125,6.1667040234375C4.666581953125,6.1667040234375,3.333251953125,6.1667040234375,3.333251953125,6.1667040234375C3.333251953125,6.1667040234375,3.333251953125,7.1667040234375,3.333251953125,7.1667040234375C3.333251953125,7.1667040234375,3.333251953125,7.1667040234375,3.333251953125,7.1667040234375ZM4.666581953125,7.1667040234375C5.410321953125,7.1667040234375,6.059961953125,6.9804340234375,6.520141953125,6.5202640234375C6.980311953125,6.0600840234375,7.166581953125,5.4104440234375,7.166581953125,4.6667040234375C7.166581953125,4.6667040234375,6.166581953125,4.6667040234375,6.166581953125,4.6667040234375C6.166581953125,5.2563040234375,6.019521953125,5.6066640234375,5.813031953125,5.8131540234375C5.606541953125,6.0196440234375,5.256181953125,6.1667040234375,4.666581953125,6.1667040234375C4.666581953125,6.1667040234375,4.666581953125,7.1667040234375,4.666581953125,7.1667040234375C4.666581953125,7.1667040234375,4.666581953125,7.1667040234375,4.666581953125,7.1667040234375ZM7.166581953125,4.6667040234375C7.166581953125,4.6667040234375,7.166581953125,3.3333740234375,7.166581953125,3.3333740234375C7.166581953125,3.3333740234375,6.166581953125,3.3333740234375,6.166581953125,3.3333740234375C6.166581953125,3.3333740234375,6.166581953125,4.6667040234375,6.166581953125,4.6667040234375C6.166581953125,4.6667040234375,7.166581953125,4.6667040234375,7.166581953125,4.6667040234375C7.166581953125,4.6667040234375,7.166581953125,4.6667040234375,7.166581953125,4.6667040234375ZM7.166581953125,3.3333740234375C7.166581953125,2.5896340234375,6.980311953125,1.9399940234375,6.520141953125,1.4798210234375C6.059961953125,1.0196470234375,5.410321953125,0.8333740234375,4.666581953125,0.8333740234375C4.666581953125,0.8333740234375,4.666581953125,1.8333740234375,4.666581953125,1.8333740234375C5.256181953125,1.8333740234375,5.606541953125,1.9804340234375,5.813031953125,2.1869240234375003C6.019521953125,2.3934240234375,6.166581953125,2.7437840234374997,6.166581953125,3.3333740234375C6.166581953125,3.3333740234375,7.166581953125,3.3333740234375,7.166581953125,3.3333740234375C7.166581953125,3.3333740234375,7.166581953125,3.3333740234375,7.166581953125,3.3333740234375ZM4.666581953125,0.8333740234375C4.666581953125,0.8333740234375,3.333251953125,0.8333740234375,3.333251953125,0.8333740234375C3.333251953125,0.8333740234375,3.333251953125,1.8333740234375,3.333251953125,1.8333740234375C3.333251953125,1.8333740234375,4.666581953125,1.8333740234375,4.666581953125,1.8333740234375C4.666581953125,1.8333740234375,4.666581953125,0.8333740234375,4.666581953125,0.8333740234375C4.666581953125,0.8333740234375,4.666581953125,0.8333740234375,4.666581953125,0.8333740234375ZM3.333251953125,0.8333740234375C2.589511953125,0.8333740234375,1.939871953125,1.0196470234375,1.479698953125,1.4798210234375C1.019524953125,1.9399940234375,0.833251953125,2.5896340234375,0.833251953125,3.3333740234375C0.833251953125,3.3333740234375,1.833251953125,3.3333740234375,1.833251953125,3.3333740234375C1.833251953125,2.7437840234374997,1.980311953125,2.3934240234375,2.1868019531250003,2.1869240234375003C2.393301953125,1.9804340234375,2.7436619531249997,1.8333740234375,3.333251953125,1.8333740234375C3.333251953125,1.8333740234375,3.333251953125,0.8333740234375,3.333251953125,0.8333740234375C3.333251953125,0.8333740234375,3.333251953125,0.8333740234375,3.333251953125,0.8333740234375ZM0.833251953125,3.3333740234375C0.833251953125,3.3333740234375,0.833251953125,4.6667040234375,0.833251953125,4.6667040234375C0.833251953125,4.6667040234375,1.833251953125,4.6667040234375,1.833251953125,4.6667040234375C1.833251953125,4.6667040234375,1.833251953125,3.3333740234375,1.833251953125,3.3333740234375C1.833251953125,3.3333740234375,0.833251953125,3.3333740234375,0.833251953125,3.3333740234375C0.833251953125,3.3333740234375,0.833251953125,3.3333740234375,0.833251953125,3.3333740234375ZM0.833251953125,4.6667040234375C0.833251953125,5.4104440234375,1.019524953125,6.0600840234375,1.479698953125,6.5202640234375C1.939871953125,6.9804340234375,2.589511953125,7.1667040234375,3.333251953125,7.1667040234375C3.333251953125,7.1667040234375,3.333251953125,6.1667040234375,3.333251953125,6.1667040234375C2.7436619531249997,6.1667040234375,2.393301953125,6.0196440234375,2.1868019531250003,5.8131540234375C1.980311953125,5.6066640234375,1.833251953125,5.2563040234375,1.833251953125,4.6667040234375C1.833251953125,4.6667040234375,0.833251953125,4.6667040234375,0.833251953125,4.6667040234375C0.833251953125,4.6667040234375,0.833251953125,4.6667040234375,0.833251953125,4.6667040234375Z" fill="#8C8C8C" fill-opacity="1"/></g><g><path d="M11.333251953125,7.1667040234375C11.333251953125,7.1667040234375,12.666581953125,7.1667040234375,12.666581953125,7.1667040234375C12.666581953125,7.1667040234375,12.666581953125,6.1667040234375,12.666581953125,6.1667040234375C12.666581953125,6.1667040234375,11.333251953125,6.1667040234375,11.333251953125,6.1667040234375C11.333251953125,6.1667040234375,11.333251953125,7.1667040234375,11.333251953125,7.1667040234375C11.333251953125,7.1667040234375,11.333251953125,7.1667040234375,11.333251953125,7.1667040234375ZM12.666581953125,7.1667040234375C13.410321953124999,7.1667040234375,14.059961953125,6.9804340234375,14.520141953125,6.5202640234375C14.980311953125,6.0600840234375,15.166581953125,5.4104440234375,15.166581953125,4.6667040234375C15.166581953125,4.6667040234375,14.166581953125,4.6667040234375,14.166581953125,4.6667040234375C14.166581953125,5.2563040234375,14.019521953125,5.6066640234375,13.813031953125,5.8131540234375C13.606541953125,6.0196440234375,13.256181953125001,6.1667040234375,12.666581953125,6.1667040234375C12.666581953125,6.1667040234375,12.666581953125,7.1667040234375,12.666581953125,7.1667040234375C12.666581953125,7.1667040234375,12.666581953125,7.1667040234375,12.666581953125,7.1667040234375ZM15.166581953125,4.6667040234375C15.166581953125,4.6667040234375,15.166581953125,3.3333740234375,15.166581953125,3.3333740234375C15.166581953125,3.3333740234375,14.166581953125,3.3333740234375,14.166581953125,3.3333740234375C14.166581953125,3.3333740234375,14.166581953125,4.6667040234375,14.166581953125,4.6667040234375C14.166581953125,4.6667040234375,15.166581953125,4.6667040234375,15.166581953125,4.6667040234375C15.166581953125,4.6667040234375,15.166581953125,4.6667040234375,15.166581953125,4.6667040234375ZM15.166581953125,3.3333740234375C15.166581953125,2.5896340234375,14.980311953125,1.9399940234375,14.520141953125,1.4798210234375C14.059961953125,1.0196470234375,13.410321953124999,0.8333740234375,12.666581953125,0.8333740234375C12.666581953125,0.8333740234375,12.666581953125,1.8333740234375,12.666581953125,1.8333740234375C13.256181953125001,1.8333740234375,13.606541953125,1.9804340234375,13.813031953125,2.1869240234375003C14.019521953125,2.3934240234375,14.166581953125,2.7437840234374997,14.166581953125,3.3333740234375C14.166581953125,3.3333740234375,15.166581953125,3.3333740234375,15.166581953125,3.3333740234375C15.166581953125,3.3333740234375,15.166581953125,3.3333740234375,15.166581953125,3.3333740234375ZM12.666581953125,0.8333740234375C12.666581953125,0.8333740234375,11.333251953125,0.8333740234375,11.333251953125,0.8333740234375C11.333251953125,0.8333740234375,11.333251953125,1.8333740234375,11.333251953125,1.8333740234375C11.333251953125,1.8333740234375,12.666581953125,1.8333740234375,12.666581953125,1.8333740234375C12.666581953125,1.8333740234375,12.666581953125,0.8333740234375,12.666581953125,0.8333740234375C12.666581953125,0.8333740234375,12.666581953125,0.8333740234375,12.666581953125,0.8333740234375ZM11.333251953125,0.8333740234375C10.589511953125,0.8333740234375,9.939871953125,1.0196470234375,9.479698953125,1.4798210234375C9.019524953125,1.9399940234375,8.833251953125,2.5896340234375,8.833251953125,3.3333740234375C8.833251953125,3.3333740234375,9.833251953125,3.3333740234375,9.833251953125,3.3333740234375C9.833251953125,2.7437840234374997,9.980311953125,2.3934240234375,10.186801953125,2.1869240234375003C10.393301953125,1.9804340234375,10.743661953125,1.8333740234375,11.333251953125,1.8333740234375C11.333251953125,1.8333740234375,11.333251953125,0.8333740234375,11.333251953125,0.8333740234375C11.333251953125,0.8333740234375,11.333251953125,0.8333740234375,11.333251953125,0.8333740234375ZM8.833251953125,3.3333740234375C8.833251953125,3.3333740234375,8.833251953125,4.6667040234375,8.833251953125,4.6667040234375C8.833251953125,4.6667040234375,9.833251953125,4.6667040234375,9.833251953125,4.6667040234375C9.833251953125,4.6667040234375,9.833251953125,3.3333740234375,9.833251953125,3.3333740234375C9.833251953125,3.3333740234375,8.833251953125,3.3333740234375,8.833251953125,3.3333740234375C8.833251953125,3.3333740234375,8.833251953125,3.3333740234375,8.833251953125,3.3333740234375ZM8.833251953125,4.6667040234375C8.833251953125,5.4104440234375,9.019524953125,6.0600840234375,9.479698953125,6.5202640234375C9.939871953125,6.9804340234375,10.589511953125,7.1667040234375,11.333251953125,7.1667040234375C11.333251953125,7.1667040234375,11.333251953125,6.1667040234375,11.333251953125,6.1667040234375C10.743661953125,6.1667040234375,10.393301953125,6.0196440234375,10.186801953125,5.8131540234375C9.980311953125,5.6066640234375,9.833251953125,5.2563040234375,9.833251953125,4.6667040234375C9.833251953125,4.6667040234375,8.833251953125,4.6667040234375,8.833251953125,4.6667040234375C8.833251953125,4.6667040234375,8.833251953125,4.6667040234375,8.833251953125,4.6667040234375Z" fill="#8C8C8C" fill-opacity="1"/></g><g><path d="M11.333251953125,15.1667040234375C11.333251953125,15.1667040234375,12.666581953125,15.1667040234375,12.666581953125,15.1667040234375C12.666581953125,15.1667040234375,12.666581953125,14.1667040234375,12.666581953125,14.1667040234375C12.666581953125,14.1667040234375,11.333251953125,14.1667040234375,11.333251953125,14.1667040234375C11.333251953125,14.1667040234375,11.333251953125,15.1667040234375,11.333251953125,15.1667040234375C11.333251953125,15.1667040234375,11.333251953125,15.1667040234375,11.333251953125,15.1667040234375ZM12.666581953125,15.1667040234375C13.410321953124999,15.1667040234375,14.059961953125,14.9804340234375,14.520141953125,14.5202640234375C14.980311953125,14.0600840234375,15.166581953125,13.410444023437499,15.166581953125,12.6667040234375C15.166581953125,12.6667040234375,14.166581953125,12.6667040234375,14.166581953125,12.6667040234375C14.166581953125,13.256304023437501,14.019521953125,13.6066640234375,13.813031953125,13.8131540234375C13.606541953125,14.0196440234375,13.256181953125001,14.1667040234375,12.666581953125,14.1667040234375C12.666581953125,14.1667040234375,12.666581953125,15.1667040234375,12.666581953125,15.1667040234375C12.666581953125,15.1667040234375,12.666581953125,15.1667040234375,12.666581953125,15.1667040234375ZM15.166581953125,12.6667040234375C15.166581953125,12.6667040234375,15.166581953125,11.3333740234375,15.166581953125,11.3333740234375C15.166581953125,11.3333740234375,14.166581953125,11.3333740234375,14.166581953125,11.3333740234375C14.166581953125,11.3333740234375,14.166581953125,12.6667040234375,14.166581953125,12.6667040234375C14.166581953125,12.6667040234375,15.166581953125,12.6667040234375,15.166581953125,12.6667040234375C15.166581953125,12.6667040234375,15.166581953125,12.6667040234375,15.166581953125,12.6667040234375ZM15.166581953125,11.3333740234375C15.166581953125,10.5896340234375,14.980311953125,9.9399940234375,14.520141953125,9.4798210234375C14.059961953125,9.0196470234375,13.410321953124999,8.8333740234375,12.666581953125,8.8333740234375C12.666581953125,8.8333740234375,12.666581953125,9.8333740234375,12.666581953125,9.8333740234375C13.256181953125001,9.8333740234375,13.606541953125,9.9804340234375,13.813031953125,10.1869240234375C14.019521953125,10.3934240234375,14.166581953125,10.7437840234375,14.166581953125,11.3333740234375C14.166581953125,11.3333740234375,15.166581953125,11.3333740234375,15.166581953125,11.3333740234375C15.166581953125,11.3333740234375,15.166581953125,11.3333740234375,15.166581953125,11.3333740234375ZM12.666581953125,8.8333740234375C12.666581953125,8.8333740234375,11.333251953125,8.8333740234375,11.333251953125,8.8333740234375C11.333251953125,8.8333740234375,11.333251953125,9.8333740234375,11.333251953125,9.8333740234375C11.333251953125,9.8333740234375,12.666581953125,9.8333740234375,12.666581953125,9.8333740234375C12.666581953125,9.8333740234375,12.666581953125,8.8333740234375,12.666581953125,8.8333740234375C12.666581953125,8.8333740234375,12.666581953125,8.8333740234375,12.666581953125,8.8333740234375ZM11.333251953125,8.8333740234375C10.589511953125,8.8333740234375,9.939871953125,9.0196470234375,9.479698953125,9.4798210234375C9.019524953125,9.9399940234375,8.833251953125,10.5896340234375,8.833251953125,11.3333740234375C8.833251953125,11.3333740234375,9.833251953125,11.3333740234375,9.833251953125,11.3333740234375C9.833251953125,10.7437840234375,9.980311953125,10.3934240234375,10.186801953125,10.1869240234375C10.393301953125,9.9804340234375,10.743661953125,9.8333740234375,11.333251953125,9.8333740234375C11.333251953125,9.8333740234375,11.333251953125,8.8333740234375,11.333251953125,8.8333740234375C11.333251953125,8.8333740234375,11.333251953125,8.8333740234375,11.333251953125,8.8333740234375ZM8.833251953125,11.3333740234375C8.833251953125,11.3333740234375,8.833251953125,12.6667040234375,8.833251953125,12.6667040234375C8.833251953125,12.6667040234375,9.833251953125,12.6667040234375,9.833251953125,12.6667040234375C9.833251953125,12.6667040234375,9.833251953125,11.3333740234375,9.833251953125,11.3333740234375C9.833251953125,11.3333740234375,8.833251953125,11.3333740234375,8.833251953125,11.3333740234375C8.833251953125,11.3333740234375,8.833251953125,11.3333740234375,8.833251953125,11.3333740234375ZM8.833251953125,12.6667040234375C8.833251953125,13.410444023437499,9.019524953125,14.0600840234375,9.479698953125,14.5202640234375C9.939871953125,14.9804340234375,10.589511953125,15.1667040234375,11.333251953125,15.1667040234375C11.333251953125,15.1667040234375,11.333251953125,14.1667040234375,11.333251953125,14.1667040234375C10.743661953125,14.1667040234375,10.393301953125,14.0196440234375,10.186801953125,13.8131540234375C9.980311953125,13.6066640234375,9.833251953125,13.256304023437501,9.833251953125,12.6667040234375C9.833251953125,12.6667040234375,8.833251953125,12.6667040234375,8.833251953125,12.6667040234375C8.833251953125,12.6667040234375,8.833251953125,12.6667040234375,8.833251953125,12.6667040234375Z" fill="#8C8C8C" fill-opacity="1"/></g><g><path d="M3.333251953125,15.1667040234375C3.333251953125,15.1667040234375,4.666581953125,15.1667040234375,4.666581953125,15.1667040234375C4.666581953125,15.1667040234375,4.666581953125,14.1667040234375,4.666581953125,14.1667040234375C4.666581953125,14.1667040234375,3.333251953125,14.1667040234375,3.333251953125,14.1667040234375C3.333251953125,14.1667040234375,3.333251953125,15.1667040234375,3.333251953125,15.1667040234375C3.333251953125,15.1667040234375,3.333251953125,15.1667040234375,3.333251953125,15.1667040234375ZM4.666581953125,15.1667040234375C5.410321953125,15.1667040234375,6.059961953125,14.9804340234375,6.520141953125,14.5202640234375C6.980311953125,14.0600840234375,7.166581953125,13.410444023437499,7.166581953125,12.6667040234375C7.166581953125,12.6667040234375,6.166581953125,12.6667040234375,6.166581953125,12.6667040234375C6.166581953125,13.256304023437501,6.019521953125,13.6066640234375,5.813031953125,13.8131540234375C5.606541953125,14.0196440234375,5.256181953125,14.1667040234375,4.666581953125,14.1667040234375C4.666581953125,14.1667040234375,4.666581953125,15.1667040234375,4.666581953125,15.1667040234375C4.666581953125,15.1667040234375,4.666581953125,15.1667040234375,4.666581953125,15.1667040234375ZM7.166581953125,12.6667040234375C7.166581953125,12.6667040234375,7.166581953125,11.3333740234375,7.166581953125,11.3333740234375C7.166581953125,11.3333740234375,6.166581953125,11.3333740234375,6.166581953125,11.3333740234375C6.166581953125,11.3333740234375,6.166581953125,12.6667040234375,6.166581953125,12.6667040234375C6.166581953125,12.6667040234375,7.166581953125,12.6667040234375,7.166581953125,12.6667040234375C7.166581953125,12.6667040234375,7.166581953125,12.6667040234375,7.166581953125,12.6667040234375ZM7.166581953125,11.3333740234375C7.166581953125,10.5896340234375,6.980311953125,9.9399940234375,6.520141953125,9.4798210234375C6.059961953125,9.0196470234375,5.410321953125,8.8333740234375,4.666581953125,8.8333740234375C4.666581953125,8.8333740234375,4.666581953125,9.8333740234375,4.666581953125,9.8333740234375C5.256181953125,9.8333740234375,5.606541953125,9.9804340234375,5.813031953125,10.1869240234375C6.019521953125,10.3934240234375,6.166581953125,10.7437840234375,6.166581953125,11.3333740234375C6.166581953125,11.3333740234375,7.166581953125,11.3333740234375,7.166581953125,11.3333740234375C7.166581953125,11.3333740234375,7.166581953125,11.3333740234375,7.166581953125,11.3333740234375ZM4.666581953125,8.8333740234375C4.666581953125,8.8333740234375,3.333251953125,8.8333740234375,3.333251953125,8.8333740234375C3.333251953125,8.8333740234375,3.333251953125,9.8333740234375,3.333251953125,9.8333740234375C3.333251953125,9.8333740234375,4.666581953125,9.8333740234375,4.666581953125,9.8333740234375C4.666581953125,9.8333740234375,4.666581953125,8.8333740234375,4.666581953125,8.8333740234375C4.666581953125,8.8333740234375,4.666581953125,8.8333740234375,4.666581953125,8.8333740234375ZM3.333251953125,8.8333740234375C2.589511953125,8.8333740234375,1.939871953125,9.0196470234375,1.479698953125,9.4798210234375C1.019524953125,9.9399940234375,0.833251953125,10.5896340234375,0.833251953125,11.3333740234375C0.833251953125,11.3333740234375,1.833251953125,11.3333740234375,1.833251953125,11.3333740234375C1.833251953125,10.7437840234375,1.980311953125,10.3934240234375,2.1868019531250003,10.1869240234375C2.393301953125,9.9804340234375,2.7436619531249997,9.8333740234375,3.333251953125,9.8333740234375C3.333251953125,9.8333740234375,3.333251953125,8.8333740234375,3.333251953125,8.8333740234375C3.333251953125,8.8333740234375,3.333251953125,8.8333740234375,3.333251953125,8.8333740234375ZM0.833251953125,11.3333740234375C0.833251953125,11.3333740234375,0.833251953125,12.6667040234375,0.833251953125,12.6667040234375C0.833251953125,12.6667040234375,1.833251953125,12.6667040234375,1.833251953125,12.6667040234375C1.833251953125,12.6667040234375,1.833251953125,11.3333740234375,1.833251953125,11.3333740234375C1.833251953125,11.3333740234375,0.833251953125,11.3333740234375,0.833251953125,11.3333740234375C0.833251953125,11.3333740234375,0.833251953125,11.3333740234375,0.833251953125,11.3333740234375ZM0.833251953125,12.6667040234375C0.833251953125,13.410444023437499,1.019524953125,14.0600840234375,1.479698953125,14.5202640234375C1.939871953125,14.9804340234375,2.589511953125,15.1667040234375,3.333251953125,15.1667040234375C3.333251953125,15.1667040234375,3.333251953125,14.1667040234375,3.333251953125,14.1667040234375C2.7436619531249997,14.1667040234375,2.393301953125,14.0196440234375,2.1868019531250003,13.8131540234375C1.980311953125,13.6066640234375,1.833251953125,13.256304023437501,1.833251953125,12.6667040234375C1.833251953125,12.6667040234375,0.833251953125,12.6667040234375,0.833251953125,12.6667040234375C0.833251953125,12.6667040234375,0.833251953125,12.6667040234375,0.833251953125,12.6667040234375Z" fill="#8C8C8C" fill-opacity="1"/></g><g style="opacity:0;"></g></g></g></g></svg>