<svg xmlns="http://www.w3.org/2000/svg" xmlns:xlink="http://www.w3.org/1999/xlink" fill="none" version="1.1" width="20" height="20" viewBox="0 0 20 20"><defs><clipPath id="master_svg0_42_21285/42_19332"><rect x="0" y="0" width="20" height="20" rx="0"/></clipPath></defs><g clip-path="url(#master_svg0_42_21285/42_19332)"><g><path d="M13.210597734375,2.130082776464844C13.210597734375,2.130082776464844,5.634786734375,9.442195876464844,5.634786734375,9.442195876464844C5.404061834375,9.671905876464844,5.390489634375,10.035965876464843,5.594070734375,10.281495876464843C5.594070734375,10.281495876464843,5.634786734375,10.326075876464843,5.634786734375,10.326075876464843C5.634786734375,10.326075876464843,13.210257734375,17.868035876464845,13.210257734375,17.868035876464845C13.241497734374999,17.899135876464843,13.283777734375,17.916635876464845,13.327847734375,17.916635876464845C13.327847734375,17.916635876464845,14.630677734375,17.916635876464845,14.630677734375,17.916635876464845C14.722677734375,17.916635876464845,14.797347734375,17.84203587646484,14.797347734375,17.750035876464842C14.797347734375,17.705635876464843,14.779677734375,17.663135876464843,14.748257734375,17.631935876464844C14.748257734375,17.631935876464844,6.991677734375,9.909045876464845,6.991677734375,9.909045876464845C6.991677734375,9.909045876464845,14.740177734375,2.3694528764648437,14.740177734375,2.3694528764648437C14.806177734375,2.3052618764648436,14.807597734375,2.199742876464844,14.743427734375,2.1337729764648437C14.712097734375,2.1015265764648436,14.669007734375,2.0833358764648438,14.624007734375,2.0833358764648438C14.624007734375,2.0833358764648438,13.326347734375,2.0833358764648438,13.326347734375,2.0833358764648438C13.283157734375,2.0833358764648438,13.241657734375,2.1000948764648437,13.210597734375,2.130082776464844C13.210597734375,2.130082776464844,13.210597734375,2.130082776464844,13.210597734375,2.130082776464844Z" fill="#1A1A1A" fill-opacity="1"/></g></g></svg>