<svg xmlns="http://www.w3.org/2000/svg" xmlns:xlink="http://www.w3.org/1999/xlink" fill="none" version="1.1" width="20" height="20" viewBox="0 0 20 20"><g><g><g><g><path d="M10.000078046875,1.6666259765625C5.408418046875,1.6666259765625,1.666748046875,5.4082959765625,1.666748046875,9.9999559765625C1.666748046875,14.5916259765625,5.408418046875,18.3333259765625,10.000078046875,18.3333259765625C14.591748046875,18.3333259765625,18.333448046875,14.5916259765625,18.333448046875,9.9999559765625C18.333448046875,5.4082959765625,14.591748046875,1.6666259765625,10.000078046875,1.6666259765625C10.000078046875,1.6666259765625,10.000078046875,1.6666259765625,10.000078046875,1.6666259765625ZM13.983448046875,8.0832959765625C13.983448046875,8.0832959765625,9.258418046875,12.8083259765625,9.258418046875,12.8083259765625C9.141748046875,12.9249259765625,8.983418046875,12.9916259765625,8.816748046875,12.9916259765625C8.650078046874999,12.9916259765625,8.491748046875,12.9249259765625,8.375078046875,12.8083259765625C8.375078046875,12.8083259765625,6.016748046875,10.4499559765625,6.016748046875,10.4499559765625C5.775078046875,10.2082959765625,5.775078046875,9.8082959765625,6.016748046875,9.5666259765625C6.258418046875,9.3249559765625,6.658418046875,9.3249559765625,6.900078046875,9.5666259765625C6.900078046875,9.5666259765625,8.816748046875,11.4832959765625,8.816748046875,11.4832959765625C8.816748046875,11.4832959765625,13.100048046875,7.1999559765625,13.100048046875,7.1999559765625C13.341748046875,6.9582959765625,13.741748046875,6.9582959765625,13.983448046875,7.1999559765625C14.225048046875,7.4416259765625,14.225048046875,7.8332959765625,13.983448046875,8.0832959765625C13.983448046875,8.0832959765625,13.983448046875,8.0832959765625,13.983448046875,8.0832959765625Z" fill="#12B858" fill-opacity="1"/></g><g transform="matrix(-1,0,0,-1,40,40)" style="opacity:0;"></g></g></g></g></svg>