<svg xmlns="http://www.w3.org/2000/svg" xmlns:xlink="http://www.w3.org/1999/xlink" fill="none" version="1.1" width="20" height="20" viewBox="0 0 20 20"><g><g><g><g><path d="M18.049928906250003,8.7000447265625C18.049928906250003,8.7000447265625,17.44142890625,8.5573847265625,17.44142890625,8.5573847265625C17.44142890625,8.5573847265625,17.44142890625,8.5573847265625,17.44142890625,8.5573847265625C17.44142890625,8.5573847265625,18.049928906250003,8.7000447265625,18.049928906250003,8.7000447265625C18.049928906250003,8.7000447265625,18.049928906250003,8.7000447265625,18.049928906250003,8.7000447265625ZM17.233228906249998,12.1832947265625C17.233228906249998,12.1832947265625,16.62472890625,12.0406947265625,16.62472890625,12.0406947265625C16.62472890625,12.0406947265625,16.62442890625,12.0417947265625,16.62442890625,12.0417947265625C16.62442890625,12.0417947265625,17.233228906249998,12.1832947265625,17.233228906249998,12.1832947265625C17.233228906249998,12.1832947265625,17.233228906249998,12.1832947265625,17.233228906249998,12.1832947265625ZM12.54990890625,16.158294726562502C12.54990890625,16.158294726562502,12.60973890625,15.5361947265625,12.60973890625,15.5361947265625C12.60973890625,15.5361947265625,12.599758906249999,15.5352947265625,12.599758906249999,15.5352947265625C12.599758906249999,15.5352947265625,12.54990890625,16.158294726562502,12.54990890625,16.158294726562502C12.54990890625,16.158294726562502,12.54990890625,16.158294726562502,12.54990890625,16.158294726562502ZM11.19990890625,15.9332947265625C11.19990890625,15.9332947265625,11.34655890625,15.3257947265625,11.34655890625,15.3257947265625C11.34655890625,15.3257947265625,11.34467890625,15.3253947265625,11.34467890625,15.3253947265625C11.34467890625,15.3253947265625,11.19990890625,15.9332947265625,11.19990890625,15.9332947265625C11.19990890625,15.9332947265625,11.19990890625,15.9332947265625,11.19990890625,15.9332947265625ZM9.79990890625,15.5999947265625C9.79990890625,15.5999947265625,9.944678906250001,14.9919947265625,9.944678906250001,14.9919947265625C9.944678906250001,14.9919947265625,9.94427890625,14.9918947265625,9.94427890625,14.9918947265625C9.94427890625,14.9918947265625,9.79990890625,15.5999947265625,9.79990890625,15.5999947265625C9.79990890625,15.5999947265625,9.79990890625,15.5999947265625,9.79990890625,15.5999947265625ZM6.06657990625,9.5750447265625C6.06657990625,9.5750447265625,6.67507890625,9.7177147265625,6.67507890625,9.7177147265625C6.67507890625,9.7177147265625,6.67515890625,9.7173847265625,6.67515890625,9.7173847265625C6.67515890625,9.7173847265625,6.06657990625,9.5750447265625,6.06657990625,9.5750447265625C6.06657990625,9.5750447265625,6.06657990625,9.5750447265625,6.06657990625,9.5750447265625ZM6.8832489062499995,6.0833747265625C6.8832489062499995,6.0833747265625,6.2748589062499995,5.9402247265625,6.2748589062499995,5.9402247265625C6.2748589062499995,5.9402247265625,6.27466890625,5.9410447265625,6.27466890625,5.9410447265625C6.27466890625,5.9410447265625,6.8832489062499995,6.0833747265625,6.8832489062499995,6.0833747265625C6.8832489062499995,6.0833747265625,6.8832489062499995,6.0833747265625,6.8832489062499995,6.0833747265625ZM7.49990890625,4.2500447265625C7.49990890625,4.2500447265625,8.06076890625,4.5258747265625,8.06076890625,4.5258747265625C8.06076890625,4.5258747265625,8.062598906249999,4.5220847265625,8.062598906249999,4.5220847265625C8.062598906249999,4.5220847265625,7.49990890625,4.2500447265625,7.49990890625,4.2500447265625C7.49990890625,4.2500447265625,7.49990890625,4.2500447265625,7.49990890625,4.2500447265625ZM12.916578906249999,2.3500467265625C12.916578906249999,2.3500467265625,12.772718906249999,2.9582647265624997,12.772718906249999,2.9582647265624997C12.772718906249999,2.9582647265624997,12.77444890625,2.9586647265624997,12.77444890625,2.9586647265624997C12.77444890625,2.9586647265624997,12.916578906249999,2.3500467265625,12.916578906249999,2.3500467265625C12.916578906249999,2.3500467265625,12.916578906249999,2.3500467265625,12.916578906249999,2.3500467265625ZM14.30821890625,2.6750447265624997C14.30821890625,2.6750447265624997,14.45055890625,2.0664717265625,14.45055890625,2.0664717265625C14.45055890625,2.0664717265625,14.45038890625,2.0664237265625,14.45038890625,2.0664237265625C14.45038890625,2.0664237265625,14.30821890625,2.6750447265624997,14.30821890625,2.6750447265624997C14.30821890625,2.6750447265624997,14.30821890625,2.6750447265624997,14.30821890625,2.6750447265624997ZM17.44142890625,8.5573847265625C17.44142890625,8.5573847265625,16.62472890625,12.0406947265625,16.62472890625,12.0406947265625C16.62472890625,12.0406947265625,17.841728906249998,12.3259947265625,17.841728906249998,12.3259947265625C17.841728906249998,12.3259947265625,18.658428906250002,8.8427147265625,18.658428906250002,8.8427147265625C18.658428906250002,8.8427147265625,17.44142890625,8.5573847265625,17.44142890625,8.5573847265625C17.44142890625,8.5573847265625,17.44142890625,8.5573847265625,17.44142890625,8.5573847265625ZM16.62442890625,12.0417947265625C16.28712890625,13.4914947265625,15.80852890625,14.3951947265625,15.19772890625,14.9178947265625C14.60796890625,15.4225947265625,13.80092890625,15.6507947265625,12.60972890625,15.5362947265625C12.60972890625,15.5362947265625,12.490098906250001,16.7804947265625,12.490098906250001,16.7804947265625C13.89889890625,16.915994726562502,15.08355890625,16.6608947265625,16.01042890625,15.8675947265625C16.916228906249998,15.0923947265625,17.47932890625,13.8834947265625,17.84192890625,12.3249947265625C17.84192890625,12.3249947265625,16.62442890625,12.0417947265625,16.62442890625,12.0417947265625C16.62442890625,12.0417947265625,16.62442890625,12.0417947265625,16.62442890625,12.0417947265625ZM12.599758906249999,15.5352947265625C12.221138906250001,15.5050947265625,11.80385890625,15.4361947265625,11.34655890625,15.3257947265625C11.34655890625,15.3257947265625,11.05325890625,16.5408947265625,11.05325890625,16.5408947265625C11.562638906250001,16.6637947265625,12.04535890625,16.7449947265625,12.50006890625,16.7813947265625C12.50006890625,16.7813947265625,12.599758906249999,15.5352947265625,12.599758906249999,15.5352947265625C12.599758906249999,15.5352947265625,12.599758906249999,15.5352947265625,12.599758906249999,15.5352947265625ZM11.34467890625,15.3253947265625C11.34467890625,15.3253947265625,9.944678906250001,14.9919947265625,9.944678906250001,14.9919947265625C9.944678906250001,14.9919947265625,9.65514890625,16.2079947265625,9.65514890625,16.2079947265625C9.65514890625,16.2079947265625,11.05514890625,16.541294726562498,11.05514890625,16.541294726562498C11.05514890625,16.541294726562498,11.34467890625,15.3253947265625,11.34467890625,15.3253947265625C11.34467890625,15.3253947265625,11.34467890625,15.3253947265625,11.34467890625,15.3253947265625ZM9.94427890625,14.9918947265625C8.26641890625,14.5935947265625,7.32617890625,14.0135947265625,6.85479890625,13.2546947265625C6.3838589062499995,12.4963947265625,6.28101890625,11.3985147265625,6.67507890625,9.7177147265625C6.67507890625,9.7177147265625,5.45807990625,9.4323847265625,5.45807990625,9.4323847265625C5.03547590625,11.2349247265625,5.06179690625,12.7369947265625,5.79294390625,13.9141947265625C6.52364890625,15.0906947265625,7.85840890625,15.7814947265625,9.65554890625,16.2081947265625C9.65554890625,16.2081947265625,9.94427890625,14.9918947265625,9.94427890625,14.9918947265625C9.94427890625,14.9918947265625,9.94427890625,14.9918947265625,9.94427890625,14.9918947265625ZM6.67515890625,9.7173847265625C6.67515890625,9.7173847265625,7.49181890625,6.2257147265625,7.49181890625,6.2257147265625C7.49181890625,6.2257147265625,6.27466890625,5.9410447265625,6.27466890625,5.9410447265625C6.27466890625,5.9410447265625,5.45800390625,9.4327147265625,5.45800390625,9.4327147265625C5.45800390625,9.4327147265625,6.67515890625,9.7173847265625,6.67515890625,9.7173847265625C6.67515890625,9.7173847265625,6.67515890625,9.7173847265625,6.67515890625,9.7173847265625ZM7.49162890625,6.2265247265625C7.652208906249999,5.5440547265625,7.83900890625,4.9767647265625,8.06075890625,4.525864726562499C8.06075890625,4.525864726562499,6.93906890625,3.9742147265625,6.93906890625,3.9742147265625C6.66081890625,4.5399947265625,6.44760890625,5.206044726562499,6.2748589062499995,5.9402247265625C6.2748589062499995,5.9402247265625,7.49162890625,6.2265247265625,7.49162890625,6.2265247265625C7.49162890625,6.2265247265625,7.49162890625,6.2265247265625,7.49162890625,6.2265247265625ZM8.062598906249999,4.5220847265625C8.49452890625,3.6286947265625,9.04003890625,3.1272247265625,9.73400890625,2.8877247265625C10.457058906250001,2.6381947265625003,11.43183890625,2.6411147265625,12.772718906249999,2.9582647265624997C12.772718906249999,2.9582647265624997,13.060438906249999,1.7418297265625,13.060438906249999,1.7418297265625C11.61798890625,1.4006505265625,10.37192890625,1.3452317265625,9.32622890625,1.7061167265625C8.25145890625,2.0770327265625,7.48029890625,2.8547347265625,6.93721890625,3.9780047265625C6.93721890625,3.9780047265625,8.062598906249999,4.5220847265625,8.062598906249999,4.5220847265625C8.062598906249999,4.5220847265625,8.062598906249999,4.5220847265625,8.062598906249999,4.5220847265625ZM12.77444890625,2.9586647265624997C12.77444890625,2.9586647265624997,14.16613890625,3.2836647265625,14.16613890625,3.2836647265625C14.16613890625,3.2836647265625,14.45038890625,2.0664237265625,14.45038890625,2.0664237265625C14.45038890625,2.0664237265625,13.05870890625,1.7414237265625,13.05870890625,1.7414237265625C13.05870890625,1.7414237265625,12.77444890625,2.9586647265624997,12.77444890625,2.9586647265624997C12.77444890625,2.9586647265624997,12.77444890625,2.9586647265624997,12.77444890625,2.9586647265624997ZM14.16588890625,3.2836147265625C15.85152890625,3.6778747265625,16.792728906249998,4.2580747265625,17.26362890625,5.0170547265625C17.734428906250002,5.7760147265625,17.83562890625,6.8758347265625,17.44142890625,8.5573847265625C17.44142890625,8.5573847265625,18.658428906250002,8.8427147265625,18.658428906250002,8.8427147265625C19.080828906249998,7.0409247265625,19.05692890625,5.5365647265625,18.325828906250003,4.3580447265625C17.594528906249998,3.1795147265625,16.25662890625,2.4888847265625,14.45055890625,2.0664717265625C14.45055890625,2.0664717265625,14.16588890625,3.2836147265625,14.16588890625,3.2836147265625C14.16588890625,3.2836147265625,14.16588890625,3.2836147265625,14.16588890625,3.2836147265625Z" fill="#1A1A1A" fill-opacity="1"/></g><g><path d="M12.550029296875,16.1584C12.550029296875,16.1584,12.900529296875,16.675800000000002,12.900529296875,16.675800000000002C13.120329296875,16.526899999999998,13.222029296875,16.2556,13.154429296875,15.999C13.086729296875,15.7424,12.864529296875,15.5565,12.599929296875,15.5354C12.599929296875,15.5354,12.550029296875,16.1584,12.550029296875,16.1584C12.550029296875,16.1584,12.550029296875,16.1584,12.550029296875,16.1584ZM10.591729296875,17.0584C10.591729296875,17.0584,10.397819296875,16.464199999999998,10.397819296875,16.464199999999998C10.397819296875,16.464199999999998,10.396309296875,16.4647,10.396309296875,16.4647C10.396309296875,16.4647,10.591729296875,17.0584,10.591729296875,17.0584C10.591729296875,17.0584,10.591729296875,17.0584,10.591729296875,17.0584ZM9.275069296875,17.4917C9.275069296875,17.4917,9.466869296875,18.0865,9.466869296875,18.0865C9.466869296875,18.0865,9.470459296875,18.0854,9.470459296875,18.0854C9.470459296875,18.0854,9.275069296875,17.4917,9.275069296875,17.4917C9.275069296875,17.4917,9.275069296875,17.4917,9.275069296875,17.4917ZM3.150069296875,14.3584C3.150069296875,14.3584,2.555519296875,14.551,2.555519296875,14.551C2.555519296875,14.551,2.555669296875,14.5515,2.555669296875,14.5515C2.555669296875,14.5515,3.150069296875,14.3584,3.150069296875,14.3584C3.150069296875,14.3584,3.150069296875,14.3584,3.150069296875,14.3584ZM2.0834092968749998,11.066690000000001C2.0834092968749998,11.066690000000001,1.488562296875,11.258479999999999,1.488562296875,11.258479999999999C1.488562296875,11.258479999999999,1.488847296875,11.259350000000001,1.488847296875,11.259350000000001C1.488847296875,11.259350000000001,2.0834092968749998,11.066690000000001,2.0834092968749998,11.066690000000001C2.0834092968749998,11.066690000000001,2.0834092968749998,11.066690000000001,2.0834092968749998,11.066690000000001ZM5.208409296875,4.9416899999999995C5.208409296875,4.9416899999999995,5.400199296875,5.5365400000000005,5.400199296875,5.5365400000000005C5.400199296875,5.5365400000000005,5.403799296875,5.53536,5.403799296875,5.53536C5.403799296875,5.53536,5.208409296875,4.9416899999999995,5.208409296875,4.9416899999999995C5.208409296875,4.9416899999999995,5.208409296875,4.9416899999999995,5.208409296875,4.9416899999999995ZM6.525069296875,4.508353C6.525069296875,4.508353,6.336169296875,3.912548,6.336169296875,3.912548C6.336169296875,3.912548,6.329689296875,3.914679,6.329689296875,3.914679C6.329689296875,3.914679,6.525069296875,4.508353,6.525069296875,4.508353C6.525069296875,4.508353,6.525069296875,4.508353,6.525069296875,4.508353ZM7.500069296875,4.250019C7.500069296875,4.250019,8.060919296875,4.525844,8.060919296875,4.525844C8.165419296875001,4.313357,8.140859296875,4.060059,7.997499296875,3.871602C7.854119296875,3.6831444,7.616559296875,3.5918952,7.383889296875,3.6359127C7.383889296875,3.6359127,7.500069296875,4.250019,7.500069296875,4.250019C7.500069296875,4.250019,7.500069296875,4.250019,7.500069296875,4.250019ZM6.883409296875,6.083349999999999C6.883409296875,6.083349999999999,6.275019296875,5.9402,6.275019296875,5.9402C6.275019296875,5.9402,6.274829296875,5.94101,6.274829296875,5.94101C6.274829296875,5.94101,6.883409296875,6.083349999999999,6.883409296875,6.083349999999999C6.883409296875,6.083349999999999,6.883409296875,6.083349999999999,6.883409296875,6.083349999999999ZM6.066739296875,9.57502C6.066739296875,9.57502,6.675239296875,9.717690000000001,6.675239296875,9.717690000000001C6.675239296875,9.717690000000001,6.675319296875,9.71736,6.675319296875,9.71736C6.675319296875,9.71736,6.066739296875,9.57502,6.066739296875,9.57502C6.066739296875,9.57502,6.066739296875,9.57502,6.066739296875,9.57502ZM9.800069296875,15.6C9.800069296875,15.6,9.944839296875,14.992,9.944839296875,14.992C9.944839296875,14.992,9.944449296875,14.9919,9.944449296875,14.9919C9.944449296875,14.9919,9.800069296875,15.6,9.800069296875,15.6C9.800069296875,15.6,9.800069296875,15.6,9.800069296875,15.6ZM11.200029296875,15.9334C11.200029296875,15.9334,11.346729296875,15.3258,11.346729296875,15.3258C11.346729296875,15.3258,11.344829296875,15.3254,11.344829296875,15.3254C11.344829296875,15.3254,11.200029296875,15.9334,11.200029296875,15.9334C11.200029296875,15.9334,11.200029296875,15.9334,11.200029296875,15.9334ZM12.199529296875,15.6409C11.748129296875,15.9467,11.157529296875,16.2163,10.397899296875,16.464199999999998C10.397899296875,16.464199999999998,10.785649296875,17.6525,10.785649296875,17.6525C11.609329296875,17.3838,12.318629296875,17.07,12.900529296875,16.675800000000002C12.900529296875,16.675800000000002,12.199529296875,15.6409,12.199529296875,15.6409C12.199529296875,15.6409,12.199529296875,15.6409,12.199529296875,15.6409ZM10.396309296875,16.4647C10.396309296875,16.4647,9.079689296875,16.898,9.079689296875,16.898C9.079689296875,16.898,9.470459296875,18.0854,9.470459296875,18.0854C9.470459296875,18.0854,10.787149296875,17.652,10.787149296875,17.652C10.787149296875,17.652,10.396309296875,16.4647,10.396309296875,16.4647C10.396309296875,16.4647,10.396309296875,16.4647,10.396309296875,16.4647ZM9.083289296875,16.896900000000002C7.487179296875,17.4114,6.423179296875,17.399900000000002,5.659759296875,17.0093C4.896119296875,16.618499999999997,4.2632192968750005,15.7616,3.744479296875,14.1652C3.744479296875,14.1652,2.555669296875,14.5515,2.555669296875,14.5515C3.111919296875,16.2634,3.887369296875,17.506500000000003,5.090389296875,18.122C6.293639296875,18.7377,7.754639296875,18.6386,9.466869296875,18.0865C9.466869296875,18.0865,9.083289296875,16.896900000000002,9.083289296875,16.896900000000002C9.083289296875,16.896900000000002,9.083289296875,16.896900000000002,9.083289296875,16.896900000000002ZM3.744639296875,14.1657C3.744639296875,14.1657,2.677969296875,10.87402,2.677969296875,10.87402C2.677969296875,10.87402,1.488847296875,11.259350000000001,1.488847296875,11.259350000000001C1.488847296875,11.259350000000001,2.555519296875,14.551,2.555519296875,14.551C2.555519296875,14.551,3.744639296875,14.1657,3.744639296875,14.1657C3.744639296875,14.1657,3.744639296875,14.1657,3.744639296875,14.1657ZM2.678259296875,10.87489C2.1634592968749997,9.27823,2.173099296875,8.21169,2.562279296875,7.44707C2.950969296875,6.68344,3.804979296875,6.05086,5.400199296875,5.5365400000000005C5.400199296875,5.5365400000000005,5.016619296875,4.34684,5.016619296875,4.34684C3.303509296875,4.89918,2.061689296875,5.67493,1.448285296875,6.880050000000001C0.835387296875,8.08419,0.936691196875,9.54681,1.488563296875,11.258479999999999C1.488563296875,11.258479999999999,2.678259296875,10.87489,2.678259296875,10.87489C2.678259296875,10.87489,2.678259296875,10.87489,2.678259296875,10.87489ZM5.403799296875,5.53536C5.403799296875,5.53536,6.720459296875,5.10203,6.720459296875,5.10203C6.720459296875,5.10203,6.329689296875,3.914679,6.329689296875,3.914679C6.329689296875,3.914679,5.013019296875,4.348012,5.013019296875,4.348012C5.013019296875,4.348012,5.403799296875,5.53536,5.403799296875,5.53536C5.403799296875,5.53536,5.403799296875,5.53536,5.403799296875,5.53536ZM6.713979296875,5.10412C7.046199296875,4.99878,7.343869296875,4.91566,7.616259296875,4.86413C7.616259296875,4.86413,7.383889296875,3.6359127,7.383889296875,3.6359127C7.039609296875,3.7010477,6.687279296875,3.801256,6.336169296875,3.912584C6.336169296875,3.912584,6.713979296875,5.10412,6.713979296875,5.10412C6.713979296875,5.10412,6.713979296875,5.10412,6.713979296875,5.10412ZM6.939229296875,3.974194C6.660979296875,4.539969,6.447769296875,5.2060200000000005,6.275019296875,5.9402C6.275019296875,5.9402,7.491799296875,6.2265,7.491799296875,6.2265C7.652379296875,5.54403,7.839169296875,4.9767399999999995,8.060919296875,4.525844C8.060919296875,4.525844,6.939229296875,3.974194,6.939229296875,3.974194C6.939229296875,3.974194,6.939229296875,3.974194,6.939229296875,3.974194ZM6.274829296875,5.94101C6.274829296875,5.94101,5.458159296875,9.432680000000001,5.458159296875,9.432680000000001C5.458159296875,9.432680000000001,6.675319296875,9.71736,6.675319296875,9.71736C6.675319296875,9.71736,7.491979296875,6.22569,7.491979296875,6.22569C7.491979296875,6.22569,6.274829296875,5.94101,6.274829296875,5.94101C6.274829296875,5.94101,6.274829296875,5.94101,6.274829296875,5.94101ZM5.458239296875,9.43235C5.035639296875,11.23489,5.061959296875,12.73694,5.793109296875,13.9142C6.523809296875,15.0906,7.858569296875,15.7814,9.655709296875,16.2081C9.655709296875,16.2081,9.944449296875,14.9919,9.944449296875,14.9919C8.266589296875,14.5936,7.326339296875,14.0136,6.854969296875,13.2546C6.384019296875,12.4964,6.281179296875,11.39848,6.675239296875,9.71768C6.675239296875,9.71768,5.458239296875,9.43235,5.458239296875,9.43235C5.458239296875,9.43235,5.458239296875,9.43235,5.458239296875,9.43235ZM9.655319296875,16.208C9.655319296875,16.208,11.055329296875,16.5414,11.055329296875,16.5414C11.055329296875,16.5414,11.344829296875,15.3254,11.344829296875,15.3254C11.344829296875,15.3254,9.944839296875,14.992,9.944839296875,14.992C9.944839296875,14.992,9.655319296875,16.208,9.655319296875,16.208C9.655319296875,16.208,9.655319296875,16.208,9.655319296875,16.208ZM11.053429296875,16.5409C11.562829296875,16.663899999999998,12.045529296875,16.744999999999997,12.500229296875,16.781399999999998C12.500229296875,16.781399999999998,12.599929296875,15.5354,12.599929296875,15.5354C12.221329296875,15.505,11.804029296875,15.4362,11.346729296875,15.3258C11.346729296875,15.3258,11.053429296875,16.5409,11.053429296875,16.5409C11.053429296875,16.5409,11.053429296875,16.5409,11.053429296875,16.5409Z" fill="#1A1A1A" fill-opacity="1"/></g><g><path d="M10.686994125,6.502482696875C10.352408125,6.417628496875,10.012385125,6.620076296875,9.927531525,6.954662296875C9.842677325,7.289247296875,10.045125125,7.629274296875,10.379711125,7.714124296875C10.379711125,7.714124296875,10.686994125,6.502482696875,10.686994125,6.502482696875C10.686994125,6.502482696875,10.686994125,6.502482696875,10.686994125,6.502482696875ZM14.421373124999999,8.739124296875C14.755963125000001,8.823974296875,15.095983125,8.621524296875,15.180833125,8.286944296875C15.265693125,7.952364296875,15.063243125,7.612334296875,14.728663125,7.527484296875C14.728663125,7.527484296875,14.421373124999999,8.739124296875,14.421373124999999,8.739124296875C14.421373124999999,8.739124296875,14.421373124999999,8.739124296875,14.421373124999999,8.739124296875ZM10.379711125,7.714124296875C10.379711125,7.714124296875,14.421373124999999,8.739124296875,14.421373124999999,8.739124296875C14.421373124999999,8.739124296875,14.728663125,7.527484296875,14.728663125,7.527484296875C14.728663125,7.527484296875,10.686994125,6.502482696875,10.686994125,6.502482696875C10.686994125,6.502482696875,10.379711125,7.714124296875,10.379711125,7.714124296875C10.379711125,7.714124296875,10.379711125,7.714124296875,10.379711125,7.714124296875Z" fill="#1A1A1A" fill-opacity="1"/></g><g><path d="M9.871233734375,9.7276849828125C9.536773734375,9.6423399828125,9.196452734375,9.8442878828125,9.111107834375,10.1787488828125C9.025762834375,10.5132088828125,9.227710734375,10.8535298828125,9.562171734375,10.9388798828125C9.562171734375,10.9388798828125,9.871233734375,9.7276849828125,9.871233734375,9.7276849828125C9.871233734375,9.7276849828125,9.871233734375,9.7276849828125,9.871233734375,9.7276849828125ZM11.978832734375,11.5555398828125C12.313302734375,11.6408898828125,12.653622734375,11.4389398828125,12.738962734375,11.1044798828125C12.824312734374999,10.7700198828125,12.622362734374999,10.4296978828125,12.287902734374999,10.3443528828125C12.287902734374999,10.3443528828125,11.978832734375,11.5555398828125,11.978832734375,11.5555398828125C11.978832734375,11.5555398828125,11.978832734375,11.5555398828125,11.978832734375,11.5555398828125ZM9.562171734375,10.9388798828125C9.562171734375,10.9388798828125,11.978832734375,11.5555398828125,11.978832734375,11.5555398828125C11.978832734375,11.5555398828125,12.287902734374999,10.3443528828125,12.287902734374999,10.3443528828125C12.287902734374999,10.3443528828125,9.871233734375,9.7276849828125,9.871233734375,9.7276849828125C9.871233734375,9.7276849828125,9.562171734375,10.9388798828125,9.562171734375,10.9388798828125C9.562171734375,10.9388798828125,9.562171734375,10.9388798828125,9.562171734375,10.9388798828125Z" fill="#1A1A1A" fill-opacity="1"/></g><g transform="matrix(-1,0,0,-1,40,40)" style="opacity:0;"></g></g></g></g></svg>