<svg xmlns="http://www.w3.org/2000/svg" xmlns:xlink="http://www.w3.org/1999/xlink" fill="none" version="1.1" width="28" height="28" viewBox="0 0 28 28"><g><g><path d="M6.292748617630005,25.666633253860475L21.708618617630005,25.666633253860475C23.352818617630003,25.666633253860475,24.685818617630005,24.376833253860475,24.684418617630005,22.785133253860472L24.684418617630005,11.385653253860474C24.684418617630005,10.527123253860474,24.288218617630005,9.713063253860474,23.604918617630005,9.165873253860473L15.897018617630005,2.9944162538604737C14.795818617630005,2.1129722538604736,13.202788617630004,2.1129722538604736,12.101658617630004,2.9944162538604737L4.395088617630005,9.165873253860473C3.711763617630005,9.713063253860474,3.315518617630005,10.527123253860474,3.315518617630005,11.385653253860474L3.315518617630005,22.786433253860473C3.315518617630005,24.376833253860475,4.648468617630005,25.666633253860475,6.292748617630005,25.666633253860475ZM10.691898617630006,21.613533253860474L17.309418617630005,21.613533253860474C17.903818617630005,21.613533253860474,18.387718617630007,21.131033253860473,18.387718617630007,20.535233253860472C18.387718617630007,19.939533253860475,17.905218617630005,19.457033253860473,17.309418617630005,19.457033253860473L10.691898617630006,19.457033253860473C10.096178617630006,19.457033253860473,9.613678617630004,19.939533253860475,9.613678617630004,20.535233253860472C9.613678617630004,21.131033253860473,10.096178617630006,21.613533253860474,10.691898617630006,21.613533253860474Z" fill-rule="evenodd" fill="#979798" fill-opacity="1"/></g></g></svg>