<svg xmlns="http://www.w3.org/2000/svg" xmlns:xlink="http://www.w3.org/1999/xlink" fill="none" version="1.1" width="21.368896484375" height="23.33331298828125" viewBox="0 0 21.368896484375 23.33331298828125"><g><path d="M2.97723,23.3333L18.3931,23.3333C20.0373,23.3333,21.3703,22.0435,21.3689,20.4518L21.3689,9.05232C21.3689,8.19379,20.9727,7.37973,20.2894,6.83254L12.5815,0.661083C11.4803,-0.220361,9.88727,-0.220361,8.78614,0.661083L1.07957,6.83254C0.396245,7.37973,0,8.19379,0,9.05232L0,20.4531C0,22.0435,1.33295,23.3333,2.97723,23.3333ZM7.37638,19.2802L13.9939,19.2802C14.5883,19.2802,15.0722,18.7977,15.0722,18.2019C15.0722,17.6062,14.5897,17.1237,13.9939,17.1237L7.37638,17.1237C6.78066,17.1237,6.29816,17.6062,6.29816,18.2019C6.29816,18.7977,6.78066,19.2802,7.37638,19.2802Z" fill-rule="evenodd" fill="#12B858" fill-opacity="1"/></g></svg>