<svg xmlns="http://www.w3.org/2000/svg" xmlns:xlink="http://www.w3.org/1999/xlink" fill="none" version="1.1" width="28" height="28" viewBox="0 0 28 28"><g><g><path d="M13.991892985153198,14.878133253860474C17.450492985153197,14.878133253860474,20.264292985153197,12.064383253860473,20.264292985153197,8.605733253860475C20.264292985153197,5.147113253860473,17.4505929851532,2.3333332538604736,13.991892985153198,2.3333332538604736C10.533312985153199,2.3333332538604736,7.719542985153198,5.147083253860474,7.719542985153198,8.605733253860475C7.719542985153198,12.064383253860473,10.533312985153199,14.878133253860474,13.991892985153198,14.878133253860474ZM19.0178929851532,15.630833253860473C19.0178929851532,15.630833253860473,8.982102985153197,15.630833253860473,8.982102985153197,15.630833253860473C5.661892985153198,15.630833253860473,2.9605929851531982,18.085433253860472,2.9605929851531982,21.102533253860475C2.9605929851531982,21.102533253860475,2.9605929851531982,23.769733253860473,2.9605929851531982,23.769733253860473C2.9605929851531982,24.815433253860473,3.8610169851531984,25.666633253860475,4.967752985153198,25.666633253860475C4.967752985153198,25.666633253860475,23.032292985153198,25.666633253860475,23.032292985153198,25.666633253860475C24.138992985153198,25.666633253860475,25.0393929851532,24.815433253860473,25.0393929851532,23.769733253860473C25.0393929851532,23.769733253860473,25.0393929851532,21.102533253860475,25.0393929851532,21.102533253860475C25.0393929851532,18.085433253860472,22.3380929851532,15.630833253860473,19.0178929851532,15.630833253860473Z" fill="#979798" fill-opacity="1"/></g></g></svg>