<svg xmlns="http://www.w3.org/2000/svg" xmlns:xlink="http://www.w3.org/1999/xlink" fill="none" version="1.1" width="28" height="28" viewBox="0 0 28 28"><g><g><g><g><path d="M24.570006984710695,13.790000762939453C24.570006984710695,13.790000762939453,24.383306984710693,13.533330762939453,24.383306984710693,13.533330762939453C24.056706984710694,13.136670762939453,23.671706984710692,12.821666762939453,23.228306984710695,12.588333762939452C22.633306984710693,12.250000762939454,21.956706984710692,12.075000762939453,21.256706984710693,12.075000762939453C21.256706984710693,12.075000762939453,6.731666984710693,12.075000762939453,6.731666984710693,12.075000762939453C6.031666984710693,12.075000762939453,5.366666984710694,12.250000762939454,4.7599969847106935,12.588333762939452C4.3049969847106935,12.833333762939453,3.896666984710693,13.171670762939453,3.5583329847106935,13.591670762939453C2.8933329847106934,14.443330762939453,2.5783333847106933,15.493330762939454,2.6833333847106933,16.543330762939455C2.6833333847106933,16.543330762939455,3.1149999847106935,21.991670762939453,3.1149999847106935,21.991670762939453C3.2666669847106933,23.636700762939455,3.464999984710693,25.666700762939453,7.163336984710694,25.666700762939453C7.163336984710694,25.666700762939453,20.836706984710695,25.666700762939453,20.836706984710695,25.666700762939453C24.535006984710694,25.666700762939453,24.721706984710693,23.636700762939455,24.885006984710692,21.980000762939454C24.885006984710692,21.980000762939454,25.31670698471069,16.555000762939454,25.31670698471069,16.555000762939454C25.421706984710692,15.575000762939453,25.165006984710693,14.595000762939453,24.570006984710695,13.790000762939453ZM16.788306984710694,20.230000762939454C16.788306984710694,20.230000762939454,11.199996984710694,20.230000762939454,11.199996984710694,20.230000762939454C10.744996984710694,20.230000762939454,10.383336984710693,19.85667076293945,10.383336984710693,19.413330762939452C10.383336984710693,18.970000762939453,10.744996984710694,18.596670762939453,11.199996984710694,18.596670762939453C11.199996984710694,18.596670762939453,16.788306984710694,18.596670762939453,16.788306984710694,18.596670762939453C17.243306984710692,18.596670762939453,17.60500698471069,18.970000762939453,17.60500698471069,19.413330762939452C17.60500698471069,19.868330762939454,17.243306984710692,20.230000762939454,16.788306984710694,20.230000762939454Z" fill="#1A1A1A" fill-opacity="1"/></g><g><path d="M23.277333387374878,10.687053253860473C22.64233338737488,10.453463253860473,21.969933387374876,10.336663253860474,21.268333387374877,10.336663253860474C21.268333387374877,10.336663253860474,6.731663387374878,10.336663253860474,6.731663387374878,10.336663253860474C6.037503387374878,10.336663253860474,5.354763387374878,10.456713253860473,4.723483387374878,10.684813253860474C4.365925387374878,10.814003253860474,3.943333387374878,10.584413253860474,3.943333387374878,10.204233253860473C3.943333387374878,9.236403253860473,3.943333387374878,7.770003253860474,3.943333387374878,7.770003253860474C3.9433333873748784,3.605003253860474,5.215003387374878,2.3333332538604736,9.380003387374877,2.3333332538604736C9.380003387374877,2.3333332538604736,10.756663387374878,2.3333332538604736,10.756663387374878,2.3333332538604736C12.425003387374877,2.3333332538604736,12.950003387374878,2.8700002538604736,13.626663387374878,3.7450032538604736C13.626663387374878,3.7450032538604736,15.026633387374877,5.611663253860474,15.026633387374877,5.611663253860474C15.318333387374878,6.0083332538604735,15.330033387374877,6.031663253860474,15.843333387374878,6.031663253860474C15.843333387374878,6.031663253860474,18.62003338737488,6.031663253860474,18.62003338737488,6.031663253860474C22.320533387374876,6.031663253860474,23.733133387374878,7.037513253860474,24.000333387374877,10.164353253860472C24.03313338737488,10.547653253860474,23.638333387374878,10.819883253860473,23.277333387374878,10.687053253860473" fill="#1A1A1A" fill-opacity="1"/></g><g transform="matrix(-1,0,0,-1,56,56)" style="opacity:0;"></g></g></g></g></svg>