<svg xmlns="http://www.w3.org/2000/svg" xmlns:xlink="http://www.w3.org/1999/xlink" fill="none" version="1.1" width="21" height="23" viewBox="0 0 21 23"><g><path d="M10.5001,9.19016L2.64173,0.501112C2.03741,-0.16708,1.05762,-0.16708,0.453308,0.50111C-0.151007,1.1693,-0.151006,2.25265,0.453309,2.92084L8.31172,11.6099L0.652133,20.0791C0.0478176,20.7473,0.047817,21.8306,0.652132,22.4988C1.25645,23.167,2.23623,23.167,2.84055,22.4988L10.5001,14.0296L18.1596,22.4987C18.7639,23.1669,19.7437,23.1669,20.348,22.4987C20.9523,21.8305,20.9523,20.7471,20.348,20.0789L12.6886,11.6099L20.5468,2.92099C21.1512,2.2528,21.1512,1.16945,20.5468,0.501259C19.9425,-0.166931,18.9627,-0.166931,18.3584,0.501259L10.5001,9.19016Z" fill-rule="evenodd" fill="#1A1A1A" fill-opacity="1"/></g></svg>