<svg xmlns="http://www.w3.org/2000/svg" xmlns:xlink="http://www.w3.org/1999/xlink" fill="none" version="1.1" width="24" height="24" viewBox="0 0 24 24"><g><g><g><g><path d="M21.25,5C21.25,6.24264,20.24264,7.25,19,7.25C19,7.25,19,8.75,19,8.75C21.07107,8.75,22.75,7.07107,22.75,5C22.75,5,21.25,5,21.25,5C21.25,5,21.25,5,21.25,5ZM19,7.25C17.75736,7.25,16.75,6.24264,16.75,5C16.75,5,15.25,5,15.25,5C15.25,7.07107,16.92893,8.75,19,8.75C19,8.75,19,7.25,19,7.25C19,7.25,19,7.25,19,7.25ZM16.75,5C16.75,3.75736,17.75736,2.75,19,2.75C19,2.75,19,1.25,19,1.25C16.92893,1.25,15.25,2.9289300000000003,15.25,5C15.25,5,16.75,5,16.75,5C16.75,5,16.75,5,16.75,5ZM19,2.75C20.24264,2.75,21.25,3.75736,21.25,5C21.25,5,22.75,5,22.75,5C22.75,2.9289300000000003,21.07107,1.25,19,1.25C19,1.25,19,2.75,19,2.75C19,2.75,19,2.75,19,2.75Z" fill="#1A1A1A" fill-opacity="1"/></g><g><path d="M7,12.25C6.585786,12.25,6.25,12.585786,6.25,13C6.25,13.41421,6.585786,13.75,7,13.75C7,13.75,7,12.25,7,12.25C7,12.25,7,12.25,7,12.25ZM12,13.75C12.41421,13.75,12.75,13.41421,12.75,13C12.75,12.585786,12.41421,12.25,12,12.25C12,12.25,12,13.75,12,13.75C12,13.75,12,13.75,12,13.75ZM7,13.75C7,13.75,12,13.75,12,13.75C12,13.75,12,12.25,12,12.25C12,12.25,7,12.25,7,12.25C7,12.25,7,13.75,7,13.75C7,13.75,7,13.75,7,13.75Z" fill="#1A1A1A" fill-opacity="1"/></g><g><path d="M7,16.25C6.585786,16.25,6.25,16.585786,6.25,17C6.25,17.41421,6.585786,17.75,7,17.75C7,17.75,7,16.25,7,16.25C7,16.25,7,16.25,7,16.25ZM16,17.75C16.4142,17.75,16.75,17.41421,16.75,17C16.75,16.585786,16.4142,16.25,16,16.25C16,16.25,16,17.75,16,17.75C16,17.75,16,17.75,16,17.75ZM7,17.75C7,17.75,16,17.75,16,17.75C16,17.75,16,16.25,16,16.25C16,16.25,7,16.25,7,16.25C7,16.25,7,17.75,7,17.75C7,17.75,7,17.75,7,17.75Z" fill="#1A1A1A" fill-opacity="1"/></g><g><path d="M14,2.75C14.4142,2.75,14.75,2.4142099999999997,14.75,2C14.75,1.585786,14.4142,1.25,14,1.25C14,1.25,14,2.75,14,2.75C14,2.75,14,2.75,14,2.75ZM22.75,10C22.75,9.58579,22.4142,9.25,22,9.25C21.5858,9.25,21.25,9.58579,21.25,10C21.25,10,22.75,10,22.75,10C22.75,10,22.75,10,22.75,10ZM14,1.25C14,1.25,9,1.25,9,1.25C9,1.25,9,2.75,9,2.75C9,2.75,14,2.75,14,2.75C14,2.75,14,1.25,14,1.25C14,1.25,14,1.25,14,1.25ZM9,1.25C6.42603,1.25,4.42914,1.760201,3.09467,3.09467C1.760201,4.42914,1.25,6.42603,1.25,9C1.25,9,2.75,9,2.75,9C2.75,6.57397,3.2398,5.07086,4.15533,4.15533C5.07086,3.2398,6.57397,2.75,9,2.75C9,2.75,9,1.25,9,1.25C9,1.25,9,1.25,9,1.25ZM1.25,9C1.25,9,1.25,15,1.25,15C1.25,15,2.75,15,2.75,15C2.75,15,2.75,9,2.75,9C2.75,9,1.25,9,1.25,9C1.25,9,1.25,9,1.25,9ZM1.25,15C1.25,17.574,1.760201,19.5709,3.09467,20.9053C4.42914,22.2398,6.42603,22.75,9,22.75C9,22.75,9,21.25,9,21.25C6.57397,21.25,5.07086,20.7602,4.15533,19.8447C3.2398,18.9291,2.75,17.426,2.75,15C2.75,15,1.25,15,1.25,15C1.25,15,1.25,15,1.25,15ZM9,22.75C9,22.75,15,22.75,15,22.75C15,22.75,15,21.25,15,21.25C15,21.25,9,21.25,9,21.25C9,21.25,9,22.75,9,22.75C9,22.75,9,22.75,9,22.75ZM15,22.75C17.574,22.75,19.5709,22.2398,20.9053,20.9053C22.2398,19.5709,22.75,17.574,22.75,15C22.75,15,21.25,15,21.25,15C21.25,17.426,20.7602,18.9291,19.8447,19.8447C18.9291,20.7602,17.426,21.25,15,21.25C15,21.25,15,22.75,15,22.75C15,22.75,15,22.75,15,22.75ZM22.75,15C22.75,15,22.75,10,22.75,10C22.75,10,21.25,10,21.25,10C21.25,10,21.25,15,21.25,15C21.25,15,22.75,15,22.75,15C22.75,15,22.75,15,22.75,15Z" fill="#1A1A1A" fill-opacity="1"/></g><g style="opacity:0;"></g></g></g></g></svg>