<svg xmlns="http://www.w3.org/2000/svg" xmlns:xlink="http://www.w3.org/1999/xlink" fill="none" version="1.1" width="24" height="24" viewBox="0 0 24 24"><g><g><g><g><path d="M20.26,18.720051608276368C20.26,18.720051608276368,20.3503,19.464551608276366,20.3503,19.464551608276366C20.3503,19.464551608276366,20.353,19.464251608276367,20.353,19.464251608276367C20.353,19.464251608276367,20.26,18.720051608276368,20.26,18.720051608276368C20.26,18.720051608276368,20.26,18.720051608276368,20.26,18.720051608276368ZM19.93,18.760051608276367C19.93,18.760051608276367,19.8397,18.01545160827637,19.8397,18.01545160827637C19.8397,18.01545160827637,19.8311,18.016651608276366,19.8311,18.016651608276366C19.8311,18.016651608276366,19.93,18.760051608276367,19.93,18.760051608276367C19.93,18.760051608276367,19.93,18.760051608276367,19.93,18.760051608276367ZM12.47,21.220051608276368C12.47,21.220051608276368,12.1074,20.563351608276367,12.1074,20.563351608276367C12.1074,20.563351608276367,12.0952,20.57035160827637,12.0952,20.57035160827637C12.0952,20.57035160827637,12.47,21.220051608276368,12.47,21.220051608276368C12.47,21.220051608276368,12.47,21.220051608276368,12.47,21.220051608276368ZM11.51,21.220051608276368C11.51,21.220051608276368,11.8742,20.564451608276368,11.8742,20.564451608276368C11.8645,20.558951608276367,11.8546,20.553751608276368,11.8446,20.54885160827637C11.8446,20.54885160827637,11.51,21.220051608276368,11.51,21.220051608276368C11.51,21.220051608276368,11.51,21.220051608276368,11.51,21.220051608276368ZM11.47,21.200051608276368C11.47,21.200051608276368,11.11011,21.858051608276366,11.11011,21.858051608276366C11.11845,21.862651608276366,11.12687,21.867051608276366,11.13538,21.871251608276367C11.13538,21.871251608276367,11.47,21.200051608276368,11.47,21.200051608276368C11.47,21.200051608276368,11.47,21.200051608276368,11.47,21.200051608276368ZM4.03003,18.760051608276367C4.03003,18.760051608276367,3.92747,19.503051608276365,3.92747,19.503051608276365C3.92747,19.503051608276365,3.93068,19.503451608276368,3.93068,19.503451608276368C3.93068,19.503451608276368,4.03003,18.760051608276367,4.03003,18.760051608276367C4.03003,18.760051608276367,4.03003,18.760051608276367,4.03003,18.760051608276367ZM3.73999,18.720051608276368C3.73999,18.720051608276368,3.84256,17.977051608276366,3.84256,17.977051608276366C3.84256,17.977051608276366,3.83302,17.97585160827637,3.83302,17.97585160827637C3.83302,17.97585160827637,3.73999,18.720051608276368,3.73999,18.720051608276368C3.73999,18.720051608276368,3.73999,18.720051608276368,3.73999,18.720051608276368ZM4.1599699999999995,2.6700056082763672C4.1599699999999995,2.6700056082763672,4.09717,3.417371608276367,4.09717,3.417371608276367C4.09717,3.417371608276367,4.0994600000000005,3.417561608276367,4.0994600000000005,3.417561608276367C4.0994600000000005,3.417561608276367,4.1599699999999995,2.6700056082763672,4.1599699999999995,2.6700056082763672C4.1599699999999995,2.6700056082763672,4.1599699999999995,2.6700056082763672,4.1599699999999995,2.6700056082763672ZM11.21997,5.010031608276368C11.21997,5.010031608276368,10.82306,5.646521608276368,10.82306,5.646521608276368C10.82306,5.646521608276368,10.83417,5.653191608276368,10.83417,5.653191608276368C10.83417,5.653191608276368,11.21997,5.010031608276368,11.21997,5.010031608276368C11.21997,5.010031608276368,11.21997,5.010031608276368,11.21997,5.010031608276368ZM11.47,5.159991608276368C11.47,5.159991608276368,11.8655,4.522691608276367,11.8655,4.522691608276367C11.8655,4.522691608276367,11.8558,4.516831608276368,11.8558,4.516831608276368C11.8558,4.516831608276368,11.47,5.159991608276368,11.47,5.159991608276368C11.47,5.159991608276368,11.47,5.159991608276368,11.47,5.159991608276368ZM12.53,5.159991608276368C12.53,5.159991608276368,12.9256,5.797331608276368,12.9256,5.797331608276368C12.9256,5.797331608276368,12.9375,5.789681608276368,12.9375,5.789681608276368C12.9375,5.789681608276368,12.53,5.159991608276368,12.53,5.159991608276368C12.53,5.159991608276368,12.53,5.159991608276368,12.53,5.159991608276368ZM12.7,5.0500116082763675C12.7,5.0500116082763675,12.3052,4.412311608276367,12.3052,4.412311608276367C12.301,4.414941608276367,12.2968,4.417611608276367,12.2926,4.420321608276367C12.2926,4.420321608276367,12.7,5.0500116082763675,12.7,5.0500116082763675C12.7,5.0500116082763675,12.7,5.0500116082763675,12.7,5.0500116082763675ZM15,3.920001608276367C15,3.920001608276367,15.75,3.920001608276367,15.75,3.920001608276367C15.75,3.670871608276367,15.6263,3.438001608276367,15.4199,3.298541608276367C15.2134,3.159071608276367,14.9512,3.131221608276367,14.7201,3.224201608276367C14.7201,3.224201608276367,15,3.920001608276367,15,3.920001608276367C15,3.920001608276367,15,3.920001608276367,15,3.920001608276367ZM15,8.000021608276366C15,8.000021608276366,14.25,8.000021608276366,14.25,8.000021608276366C14.25,8.276461608276367,14.4021,8.530491608276368,14.6457,8.661071608276366C14.8894,8.791651608276368,15.1851,8.777611608276366,15.4153,8.624531608276367C15.4153,8.624531608276367,15,8.000021608276366,15,8.000021608276366C15,8.000021608276366,15,8.000021608276366,15,8.000021608276366ZM17,6.670001608276367C17,6.670001608276367,17.4153,6.045491608276367,17.4153,6.045491608276367C17.1637,5.878171608276367,16.8363,5.878171608276367,16.584699999999998,6.045491608276367C16.584699999999998,6.045491608276367,17,6.670001608276367,17,6.670001608276367C17,6.670001608276367,17,6.670001608276367,17,6.670001608276367ZM19,8.000021608276366C19,8.000021608276366,18.5847,8.624531608276367,18.5847,8.624531608276367C18.8149,8.777611608276366,19.1106,8.791651608276368,19.3543,8.661071608276366C19.5979,8.530491608276368,19.75,8.276461608276367,19.75,8.000021608276366C19.75,8.000021608276366,19,8.000021608276366,19,8.000021608276366C19,8.000021608276366,19,8.000021608276366,19,8.000021608276366ZM19,2.780052608276367C19,2.780052608276367,18.8634,2.042590608276367,18.8634,2.042590608276367C18.5079,2.108423608276367,18.25,2.418508608276367,18.25,2.780052608276367C18.25,2.780052608276367,19,2.780052608276367,19,2.780052608276367C19,2.780052608276367,19,2.780052608276367,19,2.780052608276367ZM19.77,2.680015608276367C19.77,2.680015608276367,19.77,1.9300155082763673,19.77,1.9300155082763673C19.7492,1.9300155082763673,19.7285,1.9308795082763672,19.7077,1.9326065082763673C19.7077,1.9326065082763673,19.77,2.680015608276367,19.77,2.680015608276367C19.77,2.680015608276367,19.77,2.680015608276367,19.77,2.680015608276367ZM19.83,2.680015608276367C19.83,2.680015608276367,19.83,3.4300116082763674,19.83,3.4300116082763674C19.851,3.4300116082763674,19.8719,3.429131608276367,19.8928,3.4273816082763675C19.8928,3.4273816082763675,19.83,2.680015608276367,19.83,2.680015608276367C19.83,2.680015608276367,19.83,2.680015608276367,19.83,2.680015608276367ZM21.25,4.670001608276367C21.25,4.670001608276367,21.25,16.740051608276367,21.25,16.740051608276367C21.25,16.740051608276367,22.75,16.740051608276367,22.75,16.740051608276367C22.75,16.740051608276367,22.75,4.670001608276367,22.75,4.670001608276367C22.75,4.670001608276367,21.25,4.670001608276367,21.25,4.670001608276367C21.25,4.670001608276367,21.25,4.670001608276367,21.25,4.670001608276367ZM21.25,16.740051608276367C21.25,17.32765160827637,20.7459,17.903451608276367,20.167,17.97585160827637C20.167,17.97585160827637,20.353,19.464251608276367,20.353,19.464251608276367C21.6942,19.296551608276367,22.75,18.072451608276367,22.75,16.740051608276367C22.75,16.740051608276367,21.25,16.740051608276367,21.25,16.740051608276367C21.25,16.740051608276367,21.25,16.740051608276367,21.25,16.740051608276367ZM20.1697,17.975451608276366C20.1697,17.975451608276366,19.8397,18.01555160827637,19.8397,18.01555160827637C19.8397,18.01555160827637,20.0203,19.50465160827637,20.0203,19.50465160827637C20.0203,19.50465160827637,20.3503,19.464551608276366,20.3503,19.464551608276366C20.3503,19.464551608276366,20.1697,17.975451608276366,20.1697,17.975451608276366C20.1697,17.975451608276366,20.1697,17.975451608276366,20.1697,17.975451608276366ZM19.8311,18.016651608276366C17.5582,18.318951608276368,14.1089,19.458551608276366,12.1075,20.563451608276367C12.1075,20.563451608276367,12.8325,21.87665160827637,12.8325,21.87665160827637C14.6711,20.86155160827637,17.9417,19.781151608276367,20.0289,19.503551608276368C20.0289,19.503551608276368,19.8311,18.016651608276366,19.8311,18.016651608276366C19.8311,18.016651608276366,19.8311,18.016651608276366,19.8311,18.016651608276366ZM12.0952,20.57035160827637C12.1057,20.564351608276368,12.1021,20.568451608276366,12.0793,20.573651608276368C12.0576,20.578751608276367,12.028,20.58255160827637,11.9937,20.58255160827637C11.9596,20.58255160827637,11.9284,20.578751608276367,11.9039,20.573151608276365C11.8784,20.56735160827637,11.8696,20.561851608276367,11.8742,20.564451608276368C11.8742,20.564451608276368,11.14578,21.875651608276367,11.14578,21.875651608276367C11.4174,22.026551608276367,11.7249,22.08255160827637,11.9937,22.08255160827637C12.2611,22.08255160827637,12.5719,22.027051608276366,12.8448,21.869651608276367C12.8448,21.869651608276367,12.0952,20.57035160827637,12.0952,20.57035160827637C12.0952,20.57035160827637,12.0952,20.57035160827637,12.0952,20.57035160827637ZM11.8446,20.54885160827637C11.8446,20.54885160827637,11.8046,20.528851608276366,11.8046,20.528851608276366C11.8046,20.528851608276366,11.13538,21.871251608276367,11.13538,21.871251608276367C11.13538,21.871251608276367,11.17542,21.891251608276367,11.17542,21.891251608276367C11.17542,21.891251608276367,11.8446,20.54885160827637,11.8446,20.54885160827637C11.8446,20.54885160827637,11.8446,20.54885160827637,11.8446,20.54885160827637ZM11.8298,20.542051608276367C9.82931,19.448051608276366,6.3911,18.318951608276368,4.129379999999999,18.016651608276366C4.129379999999999,18.016651608276366,3.93068,19.503451608276368,3.93068,19.503451608276368C6.00896,19.781251608276367,9.27063,20.85215160827637,11.11011,21.858051608276366C11.11011,21.858051608276366,11.8298,20.542051608276367,11.8298,20.542051608276367C11.8298,20.542051608276367,11.8298,20.542051608276367,11.8298,20.542051608276367ZM4.13259,18.017151608276368C4.13259,18.017151608276368,3.84255,17.977051608276366,3.84255,17.977051608276366C3.84255,17.977051608276366,3.63743,19.462951608276366,3.63743,19.462951608276366C3.63743,19.462951608276366,3.92747,19.503051608276365,3.92747,19.503051608276365C3.92747,19.503051608276365,4.13259,18.017151608276368,4.13259,18.017151608276368C4.13259,18.017151608276368,4.13259,18.017151608276368,4.13259,18.017151608276368ZM3.83302,17.97585160827637C3.25413,17.903451608276367,2.75,17.32765160827637,2.75,16.740051608276367C2.75,16.740051608276367,1.25,16.740051608276367,1.25,16.740051608276367C1.25,18.072451608276367,2.30585,19.296551608276367,3.64696,19.464251608276367C3.64696,19.464251608276367,3.83302,17.97585160827637,3.83302,17.97585160827637C3.83302,17.97585160827637,3.83302,17.97585160827637,3.83302,17.97585160827637ZM2.75,16.740051608276367C2.75,16.740051608276367,2.75,4.659991608276368,2.75,4.659991608276368C2.75,4.659991608276368,1.25,4.659991608276368,1.25,4.659991608276368C1.25,4.659991608276368,1.25,16.740051608276367,1.25,16.740051608276367C1.25,16.740051608276367,2.75,16.740051608276367,2.75,16.740051608276367C2.75,16.740051608276367,2.75,16.740051608276367,2.75,16.740051608276367ZM2.75,4.659991608276368C2.75,3.905911608276367,3.34767,3.354391608276367,4.09717,3.417371608276367C4.09717,3.417371608276367,4.22278,1.9226395082763672,4.22278,1.9226395082763672C2.5922799999999997,1.7856236082763672,1.25,3.034081608276367,1.25,4.659991608276368C1.25,4.659991608276368,2.75,4.659991608276368,2.75,4.659991608276368C2.75,4.659991608276368,2.75,4.659991608276368,2.75,4.659991608276368ZM4.0994600000000005,3.417561608276367C6.07864,3.577781608276367,9.143519999999999,4.599041608276368,10.82311,5.646431608276368C10.82311,5.646431608276368,11.6168,4.3736316082763675,11.6168,4.3736316082763675C9.73642,3.201021608276367,6.4413,2.1022316082763672,4.22049,1.9224515082763671C4.22049,1.9224515082763671,4.0994600000000005,3.417561608276367,4.0994600000000005,3.417561608276367C4.0994600000000005,3.417561608276367,4.0994600000000005,3.417561608276367,4.0994600000000005,3.417561608276367ZM10.83417,5.653191608276368C10.83417,5.653191608276368,11.08417,5.803151608276368,11.08417,5.803151608276368C11.08417,5.803151608276368,11.8558,4.516831608276368,11.8558,4.516831608276368C11.8558,4.516831608276368,11.6058,4.366871608276368,11.6058,4.366871608276368C11.6058,4.366871608276368,10.83417,5.653191608276368,10.83417,5.653191608276368C10.83417,5.653191608276368,10.83417,5.653191608276368,10.83417,5.653191608276368ZM11.07445,5.797221608276367C11.3661,5.978271608276367,11.7047,6.0449916082763675,12,6.0449916082763675C12.2953,6.0449916082763675,12.6339,5.978271608276367,12.9256,5.797221608276367C12.9256,5.797221608276367,12.1345,4.522761608276367,12.1345,4.522761608276367C12.1391,4.519901608276367,12.1296,4.526481608276367,12.1015,4.533481608276367C12.0743,4.540271608276367,12.0392,4.5449916082763675,12,4.5449916082763675C11.9608,4.5449916082763675,11.9257,4.540271608276367,11.8985,4.533481608276367C11.8703,4.526481608276367,11.8609,4.519901608276367,11.8655,4.522761608276367C11.8655,4.522761608276367,11.07445,5.797221608276367,11.07445,5.797221608276367C11.07445,5.797221608276367,11.07445,5.797221608276367,11.07445,5.797221608276367ZM12.9375,5.789681608276368C12.9375,5.789681608276368,13.1074,5.679691608276367,13.1074,5.679691608276367C13.1074,5.679691608276367,12.2926,4.420321608276367,12.2926,4.420321608276367C12.2926,4.420321608276367,12.1226,4.530311608276367,12.1226,4.530311608276367C12.1226,4.530311608276367,12.9375,5.789681608276368,12.9375,5.789681608276368C12.9375,5.789681608276368,12.9375,5.789681608276368,12.9375,5.789681608276368ZM13.0948,5.687711608276367C13.6783,5.326461608276367,14.4373,4.954791608276367,15.2799,4.615811608276367C15.2799,4.615811608276367,14.7201,3.224201608276367,14.7201,3.224201608276367C13.8227,3.585211608276367,12.9817,3.993551608276367,12.3052,4.412311608276367C12.3052,4.412311608276367,13.0948,5.687711608276367,13.0948,5.687711608276367C13.0948,5.687711608276367,13.0948,5.687711608276367,13.0948,5.687711608276367ZM14.25,3.920001608276367C14.25,3.920001608276367,14.25,8.000021608276366,14.25,8.000021608276366C14.25,8.000021608276366,15.75,8.000021608276366,15.75,8.000021608276366C15.75,8.000021608276366,15.75,3.920001608276367,15.75,3.920001608276367C15.75,3.920001608276367,14.25,3.920001608276367,14.25,3.920001608276367C14.25,3.920001608276367,14.25,3.920001608276367,14.25,3.920001608276367ZM15.4153,8.624531608276367C15.4153,8.624531608276367,17.4153,7.2945216082763675,17.4153,7.2945216082763675C17.4153,7.2945216082763675,16.584699999999998,6.045491608276367,16.584699999999998,6.045491608276367C16.584699999999998,6.045491608276367,14.5847,7.375501608276367,14.5847,7.375501608276367C14.5847,7.375501608276367,15.4153,8.624531608276367,15.4153,8.624531608276367C15.4153,8.624531608276367,15.4153,8.624531608276367,15.4153,8.624531608276367ZM16.584699999999998,7.2945216082763675C16.584699999999998,7.2945216082763675,18.5847,8.624531608276367,18.5847,8.624531608276367C18.5847,8.624531608276367,19.4153,7.375501608276367,19.4153,7.375501608276367C19.4153,7.375501608276367,17.4153,6.045491608276367,17.4153,6.045491608276367C17.4153,6.045491608276367,16.584699999999998,7.2945216082763675,16.584699999999998,7.2945216082763675C16.584699999999998,7.2945216082763675,16.584699999999998,7.2945216082763675,16.584699999999998,7.2945216082763675ZM19.75,8.000021608276366C19.75,8.000021608276366,19.75,2.780052608276367,19.75,2.780052608276367C19.75,2.780052608276367,18.25,2.780052608276367,18.25,2.780052608276367C18.25,2.780052608276367,18.25,8.000021608276366,18.25,8.000021608276366C18.25,8.000021608276366,19.75,8.000021608276366,19.75,8.000021608276366C19.75,8.000021608276366,19.75,8.000021608276366,19.75,8.000021608276366ZM19.1366,3.517511608276367C19.3751,3.473331608276367,19.6092,3.446021608276367,19.8323,3.427421608276367C19.8323,3.427421608276367,19.7077,1.9326065082763673,19.7077,1.9326065082763673C19.4509,1.9540105082763672,19.1649,1.9867725082763672,18.8634,2.042590608276367C18.8634,2.042590608276367,19.1366,3.517511608276367,19.1366,3.517511608276367C19.1366,3.517511608276367,19.1366,3.517511608276367,19.1366,3.517511608276367ZM19.77,3.4300116082763674C19.77,3.4300116082763674,19.83,3.4300116082763674,19.83,3.4300116082763674C19.83,3.4300116082763674,19.83,1.9300155082763673,19.83,1.9300155082763673C19.83,1.9300155082763673,19.77,1.9300155082763673,19.77,1.9300155082763673C19.77,1.9300155082763673,19.77,3.4300116082763674,19.77,3.4300116082763674C19.77,3.4300116082763674,19.77,3.4300116082763674,19.77,3.4300116082763674ZM19.8928,3.4273816082763675C20.6495,3.363791608276367,21.25,3.913161608276367,21.25,4.670001608276367C21.25,4.670001608276367,22.75,4.670001608276367,22.75,4.670001608276367C22.75,3.0268516082763672,21.3905,1.7962396082763672,19.7672,1.9326495082763673C19.7672,1.9326495082763673,19.8928,3.4273816082763675,19.8928,3.4273816082763675C19.8928,3.4273816082763675,19.8928,3.4273816082763675,19.8928,3.4273816082763675Z" fill="#FFFFFF" fill-opacity="1"/></g><g><path d="M12.75,5.489990234375C12.75,5.075776234375,12.41421,4.739990234375,12,4.739990234375C11.585786,4.739990234375,11.25,5.075776234375,11.25,5.489990234375C11.25,5.489990234375,12.75,5.489990234375,12.75,5.489990234375C12.75,5.489990234375,12.75,5.489990234375,12.75,5.489990234375ZM11.25,20.489990234375C11.25,20.904190234375,11.585786,21.239990234375,12,21.239990234375C12.41421,21.239990234375,12.75,20.904190234375,12.75,20.489990234375C12.75,20.489990234375,11.25,20.489990234375,11.25,20.489990234375C11.25,20.489990234375,11.25,20.489990234375,11.25,20.489990234375ZM11.25,5.489990234375C11.25,5.489990234375,11.25,20.489990234375,11.25,20.489990234375C11.25,20.489990234375,12.75,20.489990234375,12.75,20.489990234375C12.75,20.489990234375,12.75,5.489990234375,12.75,5.489990234375C12.75,5.489990234375,11.25,5.489990234375,11.25,5.489990234375C11.25,5.489990234375,11.25,5.489990234375,11.25,5.489990234375Z" fill="#FFFFFF" fill-opacity="1"/></g><g><path d="M19,2.7800293364105224C19,2.7800293364105224,19.75,2.7800293364105224,19.75,2.7800293364105224C19.75,2.560083336410522,19.65345,2.3512243364105223,19.48591,2.2087243364105227C19.31837,2.0662253364105223,19.09672,2.0044513364105225,18.87963,2.0397513064105226C18.87963,2.0397513064105226,19,2.7800293364105224,19,2.7800293364105224C19,2.7800293364105224,19,2.7800293364105224,19,2.7800293364105224ZM19,8.000003336410522C19,8.000003336410522,18.584690000000002,8.624523336410522,18.584690000000002,8.624523336410522C18.81488,8.777593336410522,19.11062,8.791633336410523,19.35427,8.661053336410522C19.597929999999998,8.530473336410523,19.75,8.276443336410523,19.75,8.000003336410522C19.75,8.000003336410522,19,8.000003336410522,19,8.000003336410522C19,8.000003336410522,19,8.000003336410522,19,8.000003336410522ZM17,6.669983336410523C17,6.669983336410523,17.415309999999998,6.045473336410523,17.415309999999998,6.045473336410523C17.163710000000002,5.878163336410522,16.836289999999998,5.878163336410522,16.584690000000002,6.045473336410523C16.584690000000002,6.045473336410523,17,6.669983336410523,17,6.669983336410523C17,6.669983336410523,17,6.669983336410523,17,6.669983336410523ZM15,8.000003336410522C15,8.000003336410522,14.25,8.000003336410522,14.25,8.000003336410522C14.25,8.276443336410523,14.40207,8.530473336410523,14.645727,8.661053336410522C14.889384,8.791633336410523,15.185118,8.777593336410522,15.41531,8.624523336410522C15.41531,8.624523336410522,15,8.000003336410522,15,8.000003336410522C15,8.000003336410522,15,8.000003336410522,15,8.000003336410522ZM15,3.9199833364105228C15,3.9199833364105228,14.723293,3.2228933364105226,14.723293,3.2228933364105226C14.43758,3.3363033364105226,14.25,3.6125833364105224,14.25,3.9199833364105228C14.25,3.9199833364105228,15,3.9199833364105228,15,3.9199833364105228C15,3.9199833364105228,15,3.9199833364105228,15,3.9199833364105228ZM18.25,2.7800293364105224C18.25,2.7800293364105224,18.25,8.000003336410522,18.25,8.000003336410522C18.25,8.000003336410522,19.75,8.000003336410522,19.75,8.000003336410522C19.75,8.000003336410522,19.75,2.7800293364105224,19.75,2.7800293364105224C19.75,2.7800293364105224,18.25,2.7800293364105224,18.25,2.7800293364105224C18.25,2.7800293364105224,18.25,2.7800293364105224,18.25,2.7800293364105224ZM19.415309999999998,7.375493336410522C19.415309999999998,7.375493336410522,17.415309999999998,6.045473336410523,17.415309999999998,6.045473336410523C17.415309999999998,6.045473336410523,16.584690000000002,7.294503336410522,16.584690000000002,7.294503336410522C16.584690000000002,7.294503336410522,18.584690000000002,8.624523336410522,18.584690000000002,8.624523336410522C18.584690000000002,8.624523336410522,19.415309999999998,7.375493336410522,19.415309999999998,7.375493336410522C19.415309999999998,7.375493336410522,19.415309999999998,7.375493336410522,19.415309999999998,7.375493336410522ZM16.584690000000002,6.045473336410523C16.584690000000002,6.045473336410523,14.584692,7.375493336410522,14.584692,7.375493336410522C14.584692,7.375493336410522,15.41531,8.624523336410522,15.41531,8.624523336410522C15.41531,8.624523336410522,17.415309999999998,7.294503336410522,17.415309999999998,7.294503336410522C17.415309999999998,7.294503336410522,16.584690000000002,6.045473336410523,16.584690000000002,6.045473336410523C16.584690000000002,6.045473336410523,16.584690000000002,6.045473336410523,16.584690000000002,6.045473336410523ZM15.75,8.000003336410522C15.75,8.000003336410522,15.75,3.9199833364105228,15.75,3.9199833364105228C15.75,3.9199833364105228,14.25,3.9199833364105228,14.25,3.9199833364105228C14.25,3.9199833364105228,14.25,8.000003336410522,14.25,8.000003336410522C14.25,8.000003336410522,15.75,8.000003336410522,15.75,8.000003336410522C15.75,8.000003336410522,15.75,8.000003336410522,15.75,8.000003336410522ZM15.27671,4.617073336410522C16.54482,4.113703336410523,17.95223,3.7102533364105224,19.12037,3.5203033364105227C19.12037,3.5203033364105227,18.87963,2.0397513064105226,18.87963,2.0397513064105226C17.58777,2.2498103364105226,16.07518,2.6862673364105225,14.723293,3.2228933364105226C14.723293,3.2228933364105226,15.27671,4.617073336410522,15.27671,4.617073336410522C15.27671,4.617073336410522,15.27671,4.617073336410522,15.27671,4.617073336410522Z" fill="#FFFFFF" fill-opacity="1"/></g><g style="opacity:0;"><path d="" fill="#FFFFFF" fill-opacity="1"/></g></g></g></g></svg>