<svg xmlns="http://www.w3.org/2000/svg" xmlns:xlink="http://www.w3.org/1999/xlink" fill="none" version="1.1" width="24" height="24" viewBox="0 0 24 24"><g><g><g><g><path d="M2.75,18C2.75,18.4142,3.085786,18.75,3.5,18.75C3.9142099999999997,18.75,4.25,18.4142,4.25,18C4.25,18,2.75,18,2.75,18C2.75,18,2.75,18,2.75,18ZM19.7419,17.3666C19.7124,17.7797,20.0234,18.1386,20.4366,18.1681C20.8497,18.1976,21.2086,17.8866,21.2381,17.4734C21.2381,17.4734,19.7419,17.3666,19.7419,17.3666C19.7419,17.3666,19.7419,17.3666,19.7419,17.3666ZM4.25,18C4.25,18,4.25,7,4.25,7C4.25,7,2.75,7,2.75,7C2.75,7,2.75,18,2.75,18C2.75,18,4.25,18,4.25,18C4.25,18,4.25,18,4.25,18ZM4.25,7C4.25,4.99464,4.51884,4.0418199999999995,5.03033,3.53033C5.5418199999999995,3.01884,6.49464,2.75,8.5,2.75C8.5,2.75,8.5,1.25,8.5,1.25C6.50536,1.25,4.9581800000000005,1.481164,3.96967,2.46967C2.981164,3.45818,2.75,5.00536,2.75,7C2.75,7,4.25,7,4.25,7C4.25,7,4.25,7,4.25,7ZM8.5,2.75C8.5,2.75,15.5,2.75,15.5,2.75C15.5,2.75,15.5,1.25,15.5,1.25C15.5,1.25,8.5,1.25,8.5,1.25C8.5,1.25,8.5,2.75,8.5,2.75C8.5,2.75,8.5,2.75,8.5,2.75ZM15.5,2.75C17.5054,2.75,18.458199999999998,3.01884,18.9697,3.53033C19.4812,4.0418199999999995,19.75,4.99464,19.75,7C19.75,7,21.25,7,21.25,7C21.25,5.00536,21.0188,3.45818,20.0303,2.46967C19.0418,1.481164,17.4946,1.25,15.5,1.25C15.5,1.25,15.5,2.75,15.5,2.75C15.5,2.75,15.5,2.75,15.5,2.75ZM19.75,7C19.75,7,19.75,17,19.75,17C19.75,17,21.25,17,21.25,17C21.25,17,21.25,7,21.25,7C21.25,7,19.75,7,19.75,7C19.75,7,19.75,7,19.75,7ZM19.75,17C19.75,17.144399999999997,19.7497,17.2577,19.7419,17.3666C19.7419,17.3666,21.2381,17.4734,21.2381,17.4734C21.2503,17.3023,21.25,17.1356,21.25,17C21.25,17,19.75,17,19.75,17C19.75,17,19.75,17,19.75,17Z" fill="#1A1A1A" fill-opacity="1"/></g><g><path d="M20.5,15C20.5,15,21.25,15,21.25,15C21.25,14.585786,20.9142,14.25,20.5,14.25C20.5,14.25,20.5,15,20.5,15C20.5,15,20.5,15,20.5,15ZM6.35,15.75C6.35,15.75,20.5,15.75,20.5,15.75C20.5,15.75,20.5,14.25,20.5,14.25C20.5,14.25,6.35,14.25,6.35,14.25C6.35,14.25,6.35,15.75,6.35,15.75C6.35,15.75,6.35,15.75,6.35,15.75ZM19.75,15C19.75,15,19.75,18.5,19.75,18.5C19.75,18.5,21.25,18.5,21.25,18.5C21.25,18.5,21.25,15,21.25,15C21.25,15,19.75,15,19.75,15C19.75,15,19.75,15,19.75,15ZM19.75,18.5C19.75,20.01579,18.5158,21.25,17,21.25C17,21.25,17,22.75,17,22.75C19.3442,22.75,21.25,20.84421,21.25,18.5C21.25,18.5,19.75,18.5,19.75,18.5C19.75,18.5,19.75,18.5,19.75,18.5ZM17,21.25C17,21.25,7,21.25,7,21.25C7,21.25,7,22.75,7,22.75C7,22.75,17,22.75,17,22.75C17,22.75,17,21.25,17,21.25C17,21.25,17,21.25,17,21.25ZM7,21.25C5.48421,21.25,4.25,20.01579,4.25,18.5C4.25,18.5,2.75,18.5,2.75,18.5C2.75,20.84421,4.65579,22.75,7,22.75C7,22.75,7,21.25,7,21.25C7,21.25,7,21.25,7,21.25ZM4.25,18.5C4.25,18.5,4.25,17.85,4.25,17.85C4.25,17.85,2.75,17.85,2.75,17.85C2.75,17.85,2.75,18.5,2.75,18.5C2.75,18.5,4.25,18.5,4.25,18.5C4.25,18.5,4.25,18.5,4.25,18.5ZM4.25,17.85C4.25,16.694209999999998,5.19421,15.75,6.35,15.75C6.35,15.75,6.35,14.25,6.35,14.25C4.3657900000000005,14.25,2.75,15.86579,2.75,17.85C2.75,17.85,4.25,17.85,4.25,17.85C4.25,17.85,4.25,17.85,4.25,17.85Z" fill="#1A1A1A" fill-opacity="1"/></g><g><path d="M8,6.25C7.585786,6.25,7.25,6.585786,7.25,7C7.25,7.41421,7.585786,7.75,8,7.75C8,7.75,8,6.25,8,6.25C8,6.25,8,6.25,8,6.25ZM16,7.75C16.41421,7.75,16.75,7.41421,16.75,7C16.75,6.585786,16.41421,6.25,16,6.25C16,6.25,16,7.75,16,7.75C16,7.75,16,7.75,16,7.75ZM8,7.75C8,7.75,16,7.75,16,7.75C16,7.75,16,6.25,16,6.25C16,6.25,8,6.25,8,6.25C8,6.25,8,7.75,8,7.75C8,7.75,8,7.75,8,7.75Z" fill="#1A1A1A" fill-opacity="1"/></g><g><path d="M8,9.75C7.585786,9.75,7.25,10.085786,7.25,10.5C7.25,10.91421,7.585786,11.25,8,11.25C8,11.25,8,9.75,8,9.75C8,9.75,8,9.75,8,9.75ZM13,11.25C13.41421,11.25,13.75,10.91421,13.75,10.5C13.75,10.085786,13.41421,9.75,13,9.75C13,9.75,13,11.25,13,11.25C13,11.25,13,11.25,13,11.25ZM8,11.25C8,11.25,13,11.25,13,11.25C13,11.25,13,9.75,13,9.75C13,9.75,8,9.75,8,9.75C8,9.75,8,11.25,8,11.25C8,11.25,8,11.25,8,11.25Z" fill="#1A1A1A" fill-opacity="1"/></g><g transform="matrix(-1,0,0,-1,48,48)" style="opacity:0;"></g></g></g></g></svg>