<svg xmlns="http://www.w3.org/2000/svg" xmlns:xlink="http://www.w3.org/1999/xlink" fill="none" version="1.1" width="24" height="24" viewBox="0 0 24 24"><g><g><g><g><path d="M21.65995892410278,10.43999673751831C21.65995892410278,10.43999673751831,20.929758924102785,10.268806737518311,20.929758924102785,10.268806737518311C20.929758924102785,10.268806737518311,20.929758924102785,10.268806737518311,20.929758924102785,10.268806737518311C20.929758924102785,10.268806737518311,21.65995892410278,10.43999673751831,21.65995892410278,10.43999673751831C21.65995892410278,10.43999673751831,21.65995892410278,10.43999673751831,21.65995892410278,10.43999673751831ZM20.679958924102785,14.61995673751831C20.679958924102785,14.61995673751831,19.94975892410278,14.44875673751831,19.94975892410278,14.44875673751831C19.94975892410278,14.44875673751831,19.949458924102785,14.450056737518311,19.949458924102785,14.450056737518311C19.949458924102785,14.450056737518311,20.679958924102785,14.61995673751831,20.679958924102785,14.61995673751831C20.679958924102785,14.61995673751831,20.679958924102785,14.61995673751831,20.679958924102785,14.61995673751831ZM15.059998924102784,19.38995673751831C15.059998924102784,19.38995673751831,15.131788924102784,18.64335673751831,15.131788924102784,18.64335673751831C15.131788924102784,18.64335673751831,15.119808924102783,18.64235673751831,15.119808924102783,18.64235673751831C15.119808924102783,18.64235673751831,15.059998924102784,19.38995673751831,15.059998924102784,19.38995673751831C15.059998924102784,19.38995673751831,15.059998924102784,19.38995673751831,15.059998924102784,19.38995673751831ZM13.439998924102783,19.11995673751831C13.439998924102783,19.11995673751831,13.615978924102784,18.390956737518312,13.615978924102784,18.390956737518312C13.615978924102784,18.390956737518312,13.613718924102784,18.39035673751831,13.613718924102784,18.39035673751831C13.613718924102784,18.39035673751831,13.439998924102783,19.11995673751831,13.439998924102783,19.11995673751831C13.439998924102783,19.11995673751831,13.439998924102783,19.11995673751831,13.439998924102783,19.11995673751831ZM11.759998924102783,18.71995673751831C11.759998924102783,18.71995673751831,11.933718924102784,17.99035673751831,11.933718924102784,17.99035673751831C11.933718924102784,17.99035673751831,11.933238924102783,17.990256737518312,11.933238924102783,17.990256737518312C11.933238924102783,17.990256737518312,11.759998924102783,18.71995673751831,11.759998924102783,18.71995673751831C11.759998924102783,18.71995673751831,11.759998924102783,18.71995673751831,11.759998924102783,18.71995673751831ZM7.279998924102783,11.489996737518311C7.279998924102783,11.489996737518311,8.010198924102783,11.66119673751831,8.010198924102783,11.66119673751831C8.010198924102783,11.66119673751831,8.010288924102783,11.66080673751831,8.010288924102783,11.66080673751831C8.010288924102783,11.66080673751831,7.279998924102783,11.489996737518311,7.279998924102783,11.489996737518311C7.279998924102783,11.489996737518311,7.279998924102783,11.489996737518311,7.279998924102783,11.489996737518311ZM8.259998924102783,7.299996737518311C8.259998924102783,7.299996737518311,7.529938924102783,7.1282167375183105,7.529938924102783,7.1282167375183105C7.529938924102783,7.1282167375183105,7.529708924102783,7.129196737518311,7.529708924102783,7.129196737518311C7.529708924102783,7.129196737518311,8.259998924102783,7.299996737518311,8.259998924102783,7.299996737518311C8.259998924102783,7.299996737518311,8.259998924102783,7.299996737518311,8.259998924102783,7.299996737518311ZM8.999998924102783,5.09999673751831C8.999998924102783,5.09999673751831,9.673028924102784,5.43099673751831,9.673028924102784,5.43099673751831C9.673028924102784,5.43099673751831,9.675218924102783,5.426446737518311,9.675218924102783,5.426446737518311C9.675218924102783,5.426446737518311,8.999998924102783,5.09999673751831,8.999998924102783,5.09999673751831C8.999998924102783,5.09999673751831,8.999998924102783,5.09999673751831,8.999998924102783,5.09999673751831ZM15.499998924102783,2.8199967375183106C15.499998924102783,2.8199967375183106,15.327368924102784,3.5498667375183106,15.327368924102784,3.5498667375183106C15.327368924102784,3.5498667375183106,15.329438924102783,3.5503467375183106,15.329438924102783,3.5503467375183106C15.329438924102783,3.5503467375183106,15.499998924102783,2.8199967375183106,15.499998924102783,2.8199967375183106C15.499998924102783,2.8199967375183106,15.499998924102783,2.8199967375183106,15.499998924102783,2.8199967375183106ZM17.169958924102783,3.2099967375183107C17.169958924102783,3.2099967375183107,17.340758924102783,2.4797097375183106,17.340758924102783,2.4797097375183106C17.340758924102783,2.4797097375183106,17.340558924102783,2.4796517375183105,17.340558924102783,2.4796517375183105C17.340558924102783,2.4796517375183105,17.169958924102783,3.2099967375183107,17.169958924102783,3.2099967375183107C17.169958924102783,3.2099967375183107,17.169958924102783,3.2099967375183107,17.169958924102783,3.2099967375183107ZM20.929758924102785,10.268806737518311C20.929758924102785,10.268806737518311,19.94975892410278,14.44875673751831,19.94975892410278,14.44875673751831C19.94975892410278,14.44875673751831,21.41015892410278,14.79115673751831,21.41015892410278,14.79115673751831C21.41015892410278,14.79115673751831,22.390158924102785,10.611196737518311,22.390158924102785,10.611196737518311C22.390158924102785,10.611196737518311,20.929758924102785,10.268806737518311,20.929758924102785,10.268806737518311C20.929758924102785,10.268806737518311,20.929758924102785,10.268806737518311,20.929758924102785,10.268806737518311ZM19.949458924102785,14.450056737518311C19.544658924102784,16.18975673751831,18.970358924102783,17.27415673751831,18.237358924102786,17.90145673751831C17.529658924102783,18.50705673751831,16.56125892410278,18.78085673751831,15.131778924102782,18.64345673751831C15.131778924102782,18.64345673751831,14.988218924102783,20.136556737518312,14.988218924102783,20.136556737518312C16.678758924102784,20.29915673751831,18.100358924102785,19.99295673751831,19.212658924102783,19.04105673751831C20.299558924102783,18.11085673751831,20.975258924102782,16.66015673751831,21.410458924102784,14.789956737518311C21.410458924102784,14.789956737518311,19.949458924102785,14.450056737518311,19.949458924102785,14.450056737518311C19.949458924102785,14.450056737518311,19.949458924102785,14.450056737518311,19.949458924102785,14.450056737518311ZM15.119808924102783,18.64235673751831C14.665468924102782,18.606056737518312,14.164728924102782,18.52335673751831,13.615978924102784,18.390956737518312C13.615978924102784,18.390956737518312,13.264018924102782,19.84905673751831,13.264018924102782,19.84905673751831C13.875268924102784,19.99655673751831,14.454528924102783,20.09395673751831,15.000188924102783,20.13765673751831C15.000188924102783,20.13765673751831,15.119808924102783,18.64235673751831,15.119808924102783,18.64235673751831C15.119808924102783,18.64235673751831,15.119808924102783,18.64235673751831,15.119808924102783,18.64235673751831ZM13.613718924102784,18.39035673751831C13.613718924102784,18.39035673751831,11.933718924102784,17.99035673751831,11.933718924102784,17.99035673751831C11.933718924102784,17.99035673751831,11.586278924102782,19.44955673751831,11.586278924102782,19.44955673751831C11.586278924102782,19.44955673751831,13.266278924102783,19.84955673751831,13.266278924102783,19.84955673751831C13.266278924102783,19.84955673751831,13.613718924102784,18.39035673751831,13.613718924102784,18.39035673751831C13.613718924102784,18.39035673751831,13.613718924102784,18.39035673751831,13.613718924102784,18.39035673751831ZM11.933238924102783,17.990256737518312C9.919808924102783,17.51225673751831,8.791518924102784,16.81625673751831,8.225858924102784,15.90555673751831C7.660738924102783,14.99565673751831,7.537328924102783,13.67815673751831,8.010198924102783,11.66119673751831C8.010198924102783,11.66119673751831,6.549799924102783,11.31880673751831,6.549799924102783,11.31880673751831C6.0426749241027835,13.48185673751831,6.074260924102783,15.28435673751831,6.951635924102783,16.69695673751831C7.828478924102783,18.10875673751831,9.430188924102783,18.93775673751831,11.586758924102783,19.44975673751831C11.586758924102783,19.44975673751831,11.933238924102783,17.990256737518312,11.933238924102783,17.990256737518312C11.933238924102783,17.990256737518312,11.933238924102783,17.990256737518312,11.933238924102783,17.990256737518312ZM8.010288924102783,11.66080673751831C8.010288924102783,11.66080673751831,8.990288924102783,7.470806737518311,8.990288924102783,7.470806737518311C8.990288924102783,7.470806737518311,7.529708924102783,7.129196737518311,7.529708924102783,7.129196737518311C7.529708924102783,7.129196737518311,6.5497089241027835,11.319196737518311,6.5497089241027835,11.319196737518311C6.5497089241027835,11.319196737518311,8.010288924102783,11.66080673751831,8.010288924102783,11.66080673751831C8.010288924102783,11.66080673751831,8.010288924102783,11.66080673751831,8.010288924102783,11.66080673751831ZM8.990058924102783,7.471776737518311C9.182758924102783,6.65280673751831,9.406908924102783,5.972056737518311,9.673008924102783,5.43098673751831C9.673008924102783,5.43098673751831,8.326988924102784,4.7690067375183105,8.326988924102784,4.7690067375183105C7.993088924102783,5.447936737518311,7.737238924102783,6.24719673751831,7.529938924102783,7.1282167375183105C7.529938924102783,7.1282167375183105,8.990058924102783,7.471776737518311,8.990058924102783,7.471776737518311C8.990058924102783,7.471776737518311,8.990058924102783,7.471776737518311,8.990058924102783,7.471776737518311ZM9.675218924102783,5.426446737518311C10.193538924102784,4.354376737518311,10.848148924102784,3.7526167375183106,11.680918924102784,3.4652167375183103C12.548578924102785,3.1657767375183106,13.718308924102782,3.1692767375183104,15.327368924102784,3.5498667375183106C15.327368924102784,3.5498667375183106,15.672628924102783,2.0901387375183105,15.672628924102783,2.0901387375183105C13.941688924102783,1.6807237375183106,12.446418924102783,1.6142217375183106,11.191578924102783,2.0472827375183105C9.901848924102783,2.4923817375183104,8.976458924102783,3.4256167375183106,8.324768924102784,4.773546737518311C8.324768924102784,4.773546737518311,9.675218924102783,5.426446737518311,9.675218924102783,5.426446737518311C9.675218924102783,5.426446737518311,9.675218924102783,5.426446737518311,9.675218924102783,5.426446737518311ZM15.329438924102783,3.5503467375183106C15.329438924102783,3.5503467375183106,16.999458924102782,3.9403467375183103,16.999458924102782,3.9403467375183103C16.999458924102782,3.9403467375183103,17.340558924102783,2.4796517375183105,17.340558924102783,2.4796517375183105C17.340558924102783,2.4796517375183105,15.670558924102783,2.0896517375183103,15.670558924102783,2.0896517375183103C15.670558924102783,2.0896517375183103,15.329438924102783,3.5503467375183106,15.329438924102783,3.5503467375183106C15.329438924102783,3.5503467375183106,15.329438924102783,3.5503467375183106,15.329438924102783,3.5503467375183106ZM16.999158924102783,3.9402867375183104C19.021958924102783,4.41339673751831,20.151358924102784,5.1096367375183105,20.71645892410278,6.020406737518311C21.281458924102783,6.931166737518311,21.402858924102784,8.25094673751831,20.929758924102785,10.268806737518311C20.929758924102785,10.268806737518311,22.390158924102785,10.611196737518311,22.390158924102785,10.611196737518311C22.897058924102783,8.449056737518312,22.868458924102782,6.64382673751831,21.99105892410278,5.22959673751831C21.113558924102783,3.8153567375183104,19.508058924102784,2.9866067375183105,17.340758924102783,2.4797097375183106C17.340758924102783,2.4797097375183106,16.999158924102783,3.9402867375183104,16.999158924102783,3.9402867375183104C16.999158924102783,3.9402867375183104,16.999158924102783,3.9402867375183104,16.999158924102783,3.9402867375183104Z" fill="#1A1A1A" fill-opacity="1"/></g><g><path d="M15.0599619140625,19.389976539611816C15.0599619140625,19.389976539611816,15.4805619140625,20.010876539611814,15.4805619140625,20.010876539611814C15.7442619140625,19.83227653961182,15.8663619140625,19.506676539611817,15.7851619140625,19.198776539611817C15.7039619140625,18.890876539611817,15.4372619140625,18.667776539611815,15.1197619140625,18.642376539611817C15.1197619140625,18.642376539611817,15.0599619140625,19.389976539611816,15.0599619140625,19.389976539611816C15.0599619140625,19.389976539611816,15.0599619140625,19.389976539611816,15.0599619140625,19.389976539611816ZM12.7099619140625,20.469976539611817C12.7099619140625,20.469976539611817,12.4772619140625,19.756976539611816,12.4772619140625,19.756976539611816C12.4772619140625,19.756976539611816,12.4754619140625,19.75757653961182,12.4754619140625,19.75757653961182C12.4754619140625,19.75757653961182,12.7099619140625,20.469976539611817,12.7099619140625,20.469976539611817C12.7099619140625,20.469976539611817,12.7099619140625,20.469976539611817,12.7099619140625,20.469976539611817ZM11.1300119140625,20.989976539611817C11.1300119140625,20.989976539611817,11.3601619140625,21.703776539611816,11.3601619140625,21.703776539611816C11.3601619140625,21.703776539611816,11.3644619140625,21.702376539611816,11.3644619140625,21.702376539611816C11.3644619140625,21.702376539611816,11.1300119140625,20.989976539611817,11.1300119140625,20.989976539611817C11.1300119140625,20.989976539611817,11.1300119140625,20.989976539611817,11.1300119140625,20.989976539611817ZM3.7800119140625,17.22997653961182C3.7800119140625,17.22997653961182,3.0665419140625003,17.461176539611817,3.0665419140625003,17.461176539611817C3.0665419140625003,17.461176539611817,3.0667219140624997,17.46177653961182,3.0667219140624997,17.46177653961182C3.0667219140624997,17.46177653961182,3.7800119140625,17.22997653961182,3.7800119140625,17.22997653961182C3.7800119140625,17.22997653961182,3.7800119140625,17.22997653961182,3.7800119140625,17.22997653961182ZM2.5000219140624997,13.279996539611817C2.5000219140624997,13.279996539611817,1.7862009140625,13.510146539611817,1.7862009140625,13.510146539611817C1.7862009140625,13.510146539611817,1.7865429140625,13.511196539611817,1.7865429140625,13.511196539611817C1.7865429140625,13.511196539611817,2.5000219140624997,13.279996539611817,2.5000219140624997,13.279996539611817C2.5000219140624997,13.279996539611817,2.5000219140624997,13.279996539611817,2.5000219140624997,13.279996539611817ZM6.2500119140625,5.929996539611817C6.2500119140625,5.929996539611817,6.4801619140625,6.643826539611816,6.4801619140625,6.643826539611816C6.4801619140625,6.643826539611816,6.4844819140625,6.642406539611816,6.4844819140625,6.642406539611816C6.4844819140625,6.642406539611816,6.2500119140625,5.929996539611817,6.2500119140625,5.929996539611817C6.2500119140625,5.929996539611817,6.2500119140625,5.929996539611817,6.2500119140625,5.929996539611817ZM7.8300119140625,5.409996539611816C7.8300119140625,5.409996539611816,7.6033219140625,4.695033539611816,7.6033219140625,4.695033539611816C7.6033219140625,4.695033539611816,7.5955519140625,4.6975905396118165,7.5955519140625,4.6975905396118165C7.5955519140625,4.6975905396118165,7.8300119140625,5.409996539611816,7.8300119140625,5.409996539611816C7.8300119140625,5.409996539611816,7.8300119140625,5.409996539611816,7.8300119140625,5.409996539611816ZM9.000011914062501,5.099999539611816C9.000011914062501,5.099999539611816,9.6730319140625,5.430986539611816,9.6730319140625,5.430986539611816C9.7984319140625,5.176004539611816,9.7689619140625,4.872047539611817,9.5969219140625,4.645898539611816C9.4248719140625,4.419749839611816,9.1397919140625,4.310250839611816,8.8605919140625,4.363071839611816C8.8605919140625,4.363071839611816,9.000011914062501,5.099999539611816,9.000011914062501,5.099999539611816C9.000011914062501,5.099999539611816,9.000011914062501,5.099999539611816,9.000011914062501,5.099999539611816ZM8.260011914062499,7.299996539611817C8.260011914062499,7.299996539611817,7.5299519140625,7.128216539611817,7.5299519140625,7.128216539611817C7.5299519140625,7.128216539611817,7.5297219140625,7.129186539611816,7.5297219140625,7.129186539611816C7.5297219140625,7.129186539611816,8.260011914062499,7.299996539611817,8.260011914062499,7.299996539611817C8.260011914062499,7.299996539611817,8.260011914062499,7.299996539611817,8.260011914062499,7.299996539611817ZM7.2800119140625,11.489996539611816C7.2800119140625,11.489996539611816,8.0102119140625,11.661196539611815,8.0102119140625,11.661196539611815C8.0102119140625,11.661196539611815,8.010301914062499,11.660806539611816,8.010301914062499,11.660806539611816C8.010301914062499,11.660806539611816,7.2800119140625,11.489996539611816,7.2800119140625,11.489996539611816C7.2800119140625,11.489996539611816,7.2800119140625,11.489996539611816,7.2800119140625,11.489996539611816ZM11.7600619140625,18.719976539611814C11.7600619140625,18.719976539611814,11.9337619140625,17.990376539611816,11.9337619140625,17.990376539611816C11.9337619140625,17.990376539611816,11.9332619140625,17.990276539611816,11.9332619140625,17.990276539611816C11.9332619140625,17.990276539611816,11.7600619140625,18.719976539611814,11.7600619140625,18.719976539611814C11.7600619140625,18.719976539611814,11.7600619140625,18.719976539611814,11.7600619140625,18.719976539611814ZM13.4399619140625,19.119976539611816C13.4399619140625,19.119976539611816,13.6159619140625,18.390876539611817,13.6159619140625,18.390876539611817C13.6159619140625,18.390876539611817,13.6136619140625,18.390376539611815,13.6136619140625,18.390376539611815C13.6136619140625,18.390376539611815,13.4399619140625,19.119976539611816,13.4399619140625,19.119976539611816C13.4399619140625,19.119976539611816,13.4399619140625,19.119976539611816,13.4399619140625,19.119976539611816ZM14.6393619140625,18.769076539611817C14.0976619140625,19.135976539611818,13.3888619140625,19.459476539611817,12.4773619140625,19.756976539611816C12.4773619140625,19.756976539611816,12.9426619140625,21.182976539611815,12.9426619140625,21.182976539611815C13.9310619140625,20.860476539611817,14.7822619140625,20.483976539611817,15.4805619140625,20.010876539611814C15.4805619140625,20.010876539611814,14.6393619140625,18.769076539611817,14.6393619140625,18.769076539611817C14.6393619140625,18.769076539611817,14.6393619140625,18.769076539611817,14.6393619140625,18.769076539611817ZM12.4754619140625,19.75757653961182C12.4754619140625,19.75757653961182,10.8955519140625,20.277576539611815,10.8955519140625,20.277576539611815C10.8955519140625,20.277576539611815,11.3644619140625,21.702376539611816,11.3644619140625,21.702376539611816C11.3644619140625,21.702376539611816,12.9444619140625,21.182376539611816,12.9444619140625,21.182376539611816C12.9444619140625,21.182376539611816,12.4754619140625,19.75757653961182,12.4754619140625,19.75757653961182C12.4754619140625,19.75757653961182,12.4754619140625,19.75757653961182,12.4754619140625,19.75757653961182ZM10.8998719140625,20.276176539611818C8.9845419140625,20.893676539611818,7.7077419140625,20.879776539611818,6.7916319140625,20.411076539611816C5.8752719140625,19.942176539611815,5.1157919140625,18.913876539611817,4.4933019140625,16.998176539611816C4.4933019140625,16.998176539611816,3.0667219140624997,17.46177653961182,3.0667219140624997,17.46177653961182C3.7342319140625,19.515976539611817,4.6647619140625,21.007776539611818,6.1083919140625,21.746376539611816C7.5522919140625,22.485176539611818,9.3054919140625,22.366276539611817,11.3601619140625,21.703776539611816C11.3601619140625,21.703776539611816,10.8998719140625,20.276176539611818,10.8998719140625,20.276176539611818C10.8998719140625,20.276176539611818,10.8998719140625,20.276176539611818,10.8998719140625,20.276176539611818ZM4.4934919140625,16.998776539611818C4.4934919140625,16.998776539611818,3.2134919140625,13.048796539611816,3.2134919140625,13.048796539611816C3.2134919140625,13.048796539611816,1.7865429140625,13.511196539611817,1.7865429140625,13.511196539611817C1.7865429140625,13.511196539611817,3.0665419140625003,17.461176539611817,3.0665419140625003,17.461176539611817C3.0665419140625003,17.461176539611817,4.4934919140625,16.998776539611818,4.4934919140625,16.998776539611818C4.4934919140625,16.998776539611818,4.4934919140625,16.998776539611818,4.4934919140625,16.998776539611818ZM3.2138319140625002,13.049846539611817C2.5960819140625,11.133846539611817,2.6076419140625,9.853996539611817,3.0746619140625002,8.936456539611816C3.5410819140625,8.020106539611817,4.565901914062501,7.261006539611817,6.4801619140625,6.643816539611816C6.4801619140625,6.643816539611816,6.0198719140625,5.216184539611817,6.0198719140625,5.216184539611817C3.9641319140625,5.878986539611816,2.4739519140625,6.809886539611816,1.7378689140625,8.256036539611816C1.0023909140625,9.700996539611817,1.1239559140625,11.456146539611815,1.7862019140625,13.510146539611817C1.7862019140625,13.510146539611817,3.2138319140625002,13.049846539611817,3.2138319140625002,13.049846539611817C3.2138319140625002,13.049846539611817,3.2138319140625002,13.049846539611817,3.2138319140625002,13.049846539611817ZM6.4844819140625,6.642406539611816C6.4844819140625,6.642406539611816,8.064481914062501,6.122406539611816,8.064481914062501,6.122406539611816C8.064481914062501,6.122406539611816,7.5955519140625,4.6975905396118165,7.5955519140625,4.6975905396118165C7.5955519140625,4.6975905396118165,6.0155519140625,5.217590539611816,6.0155519140625,5.217590539611816C6.0155519140625,5.217590539611816,6.4844819140625,6.642406539611816,6.4844819140625,6.642406539611816C6.4844819140625,6.642406539611816,6.4844819140625,6.642406539611816,6.4844819140625,6.642406539611816ZM8.0567019140625,6.124916539611816C8.4553619140625,5.998516539611816,8.812571914062499,5.898766539611817,9.1394319140625,5.836926539611817C9.1394319140625,5.836926539611817,8.8605919140625,4.363071839611816,8.8605919140625,4.363071839611816C8.447451914062501,4.441233839611816,8.0246619140625,4.5614835396118165,7.6033319140625,4.695076539611817C7.6033319140625,4.695076539611817,8.0567019140625,6.124916539611816,8.0567019140625,6.124916539611816C8.0567019140625,6.124916539611816,8.0567019140625,6.124916539611816,8.0567019140625,6.124916539611816ZM8.3270019140625,4.769009539611816C7.9931019140625,5.447936539611817,7.7372519140625,6.247196539611816,7.5299519140625,7.128216539611817C7.5299519140625,7.128216539611817,8.9900819140625,7.471776539611817,8.9900819140625,7.471776539611817C9.182781914062499,6.652806539611817,9.4069319140625,5.972056539611817,9.6730319140625,5.430986539611816C9.6730319140625,5.430986539611816,8.3270019140625,4.769009539611816,8.3270019140625,4.769009539611816C8.3270019140625,4.769009539611816,8.3270019140625,4.769009539611816,8.3270019140625,4.769009539611816ZM7.5297219140625,7.129186539611816C7.5297219140625,7.129186539611816,6.5497219140625,11.319186539611817,6.5497219140625,11.319186539611817C6.5497219140625,11.319186539611817,8.010301914062499,11.660806539611816,8.010301914062499,11.660806539611816C8.010301914062499,11.660806539611816,8.9903019140625,7.470806539611816,8.9903019140625,7.470806539611816C8.9903019140625,7.470806539611816,7.5297219140625,7.129186539611816,7.5297219140625,7.129186539611816C7.5297219140625,7.129186539611816,7.5297219140625,7.129186539611816,7.5297219140625,7.129186539611816ZM6.5498119140625,11.318796539611817C6.0426919140625,13.481846539611816,6.0742719140625,15.284276539611817,6.9516519140625,16.696976539611818C7.8285019140625,18.108676539611814,9.4302019140625,18.937676539611815,11.5867619140625,19.449676539611815C11.5867619140625,19.449676539611815,11.9332619140625,17.990276539611816,11.9332619140625,17.990276539611816C9.9198319140625,17.51227653961182,8.7915319140625,16.816276539611817,8.2258819140625,15.905476539611817C7.6607519140625,14.995676539611816,7.5373419140625,13.678146539611816,8.0102119140625,11.661186539611816C8.0102119140625,11.661186539611816,6.5498119140625,11.318796539611817,6.5498119140625,11.318796539611817C6.5498119140625,11.318796539611817,6.5498119140625,11.318796539611817,6.5498119140625,11.318796539611817ZM11.5862619140625,19.44957653961182C11.5862619140625,19.44957653961182,13.2662619140625,19.849576539611817,13.2662619140625,19.849576539611817C13.2662619140625,19.849576539611817,13.6136619140625,18.390376539611815,13.6136619140625,18.390376539611815C13.6136619140625,18.390376539611815,11.9337619140625,17.990376539611816,11.9337619140625,17.990376539611816C11.9337619140625,17.990376539611816,11.5862619140625,19.44957653961182,11.5862619140625,19.44957653961182C11.5862619140625,19.44957653961182,11.5862619140625,19.44957653961182,11.5862619140625,19.44957653961182ZM13.2639619140625,19.849076539611815C13.8752619140625,19.996576539611816,14.4544619140625,20.093976539611816,15.0001619140625,20.137576539611814C15.0001619140625,20.137576539611814,15.1197619140625,18.642376539611817,15.1197619140625,18.642376539611817C14.6654619140625,18.605976539611817,14.1646619140625,18.523376539611817,13.6159619140625,18.390876539611817C13.6159619140625,18.390876539611817,13.2639619140625,19.849076539611815,13.2639619140625,19.849076539611815C13.2639619140625,19.849076539611815,13.2639619140625,19.849076539611815,13.2639619140625,19.849076539611815Z" fill="#1A1A1A" fill-opacity="1"/></g><g><path d="M12.8243195078125,7.8030145421997075C12.4228165078125,7.701189542199707,12.0147885078125,7.944126442199707,11.9129646078125,8.345629442199707C11.8111396078125,8.747132442199707,12.0540765078125,9.155160442199707,12.4555795078125,9.256980442199707C12.4555795078125,9.256980442199707,12.8243195078125,7.8030145421997075,12.8243195078125,7.8030145421997075C12.8243195078125,7.8030145421997075,12.8243195078125,7.8030145421997075,12.8243195078125,7.8030145421997075ZM17.3055805078125,10.486990442199707C17.7070805078125,10.588810442199707,18.1151105078125,10.345870442199708,18.2169305078125,9.944370442199707C18.3187605078125,9.542870442199707,18.0758205078125,9.134840442199707,17.6743205078125,9.033010442199707C17.6743205078125,9.033010442199707,17.3055805078125,10.486990442199707,17.3055805078125,10.486990442199707C17.3055805078125,10.486990442199707,17.3055805078125,10.486990442199707,17.3055805078125,10.486990442199707ZM12.4555795078125,9.256980442199707C12.4555795078125,9.256980442199707,17.3055805078125,10.486990442199707,17.3055805078125,10.486990442199707C17.3055805078125,10.486990442199707,17.6743205078125,9.033010442199707,17.6743205078125,9.033010442199707C17.6743205078125,9.033010442199707,12.8243195078125,7.8030145421997075,12.8243195078125,7.8030145421997075C12.8243195078125,7.8030145421997075,12.4555795078125,9.256980442199707,12.4555795078125,9.256980442199707C12.4555795078125,9.256980442199707,12.4555795078125,9.256980442199707,12.4555795078125,9.256980442199707Z" fill="#1A1A1A" fill-opacity="1"/></g><g><path d="M11.8454070390625,11.673285574084472C11.4440550390625,11.570871574084473,11.0356700390625,11.813209374084472,10.9332562390625,12.214562374084473C10.8308422390625,12.615914374084472,11.0731800390625,13.024299374084473,11.4745330390625,13.126709374084474C11.4745330390625,13.126709374084474,11.8454070390625,11.673285574084472,11.8454070390625,11.673285574084472C11.8454070390625,11.673285574084472,11.8454070390625,11.673285574084472,11.8454070390625,11.673285574084472ZM14.374530039062499,13.866709374084472C14.7758900390625,13.969129374084472,15.1842700390625,13.726789374084472,15.2866800390625,13.325439374084473C15.3891000390625,12.924089374084472,15.1467600390625,12.515700374084473,14.7454100390625,12.413286374084473C14.7454100390625,12.413286374084473,14.374530039062499,13.866709374084472,14.374530039062499,13.866709374084472C14.374530039062499,13.866709374084472,14.374530039062499,13.866709374084472,14.374530039062499,13.866709374084472ZM11.4745330390625,13.126709374084474C11.4745330390625,13.126709374084474,14.374530039062499,13.866709374084472,14.374530039062499,13.866709374084472C14.374530039062499,13.866709374084472,14.7454100390625,12.413286374084473,14.7454100390625,12.413286374084473C14.7454100390625,12.413286374084473,11.8454070390625,11.673285574084472,11.8454070390625,11.673285574084472C11.8454070390625,11.673285574084472,11.4745330390625,13.126709374084474,11.4745330390625,13.126709374084474C11.4745330390625,13.126709374084474,11.4745330390625,13.126709374084474,11.4745330390625,13.126709374084474Z" fill="#1A1A1A" fill-opacity="1"/></g><g transform="matrix(-1,0,0,-1,48,48)" style="opacity:0;"></g></g></g></g></svg>