<svg xmlns="http://www.w3.org/2000/svg" xmlns:xlink="http://www.w3.org/1999/xlink" fill="none" version="1.1" width="16" height="16" viewBox="0 0 16 16"><g><g><g><path d="M11.999999848205567,11.16667134048462C11.893333848205566,11.16667134048462,11.793332848205566,11.13333134048462,11.699999848205566,11.06667134048462C11.479999548205566,10.900001340484618,11.433333148205566,10.586671340484619,11.599999848205567,10.366671340484618C12.646667848205567,8.97333134048462,12.646667848205567,7.026671340484619,11.599999848205567,5.633333340484619C11.433333148205566,5.413333340484619,11.479999548205566,5.100000340484619,11.699999848205566,4.933333340484619C11.919999848205567,4.76666654048462,12.233333848205566,4.813333240484619,12.400000848205567,5.033333340484619C13.706667848205566,6.780001340484619,13.706667848205566,9.220001340484618,12.400000848205567,10.96667134048462C12.300000848205567,11.100001340484619,12.153333848205566,11.16667134048462,11.999999848205567,11.16667134048462Z" fill="#FF3B30" fill-opacity="1"/><path d="M11.999999848205567,11.16667134048462C11.893333848205566,11.16667134048462,11.793332848205566,11.13333134048462,11.699999848205566,11.06667134048462C11.479999548205566,10.900001340484618,11.433333148205566,10.586671340484619,11.599999848205567,10.366671340484618C11.646506848205567,10.30476134048462,11.690947848205566,10.241751340484619,11.733321848205566,10.177751340484619C12.008500848205566,9.76215134048462,12.196530848205567,9.304561340484618,12.297413848205567,8.831581340484618C12.411701848205567,8.295761340484619,12.414141848205567,7.740191340484619,12.304735848205567,7.203521340484619C12.194661848205566,6.663581340484619,11.971371848205566,6.142781340484619,11.634867848205566,5.680484340484619C11.623376848205567,5.66469834048462,11.611754848205566,5.648981340484619,11.599999848205567,5.633333340484619C11.433333148205566,5.413333340484619,11.479999548205566,5.100000340484619,11.699999848205566,4.933333340484619C11.919940848205567,4.766711440484619,12.233164848205567,4.813308140484619,12.399865848205566,5.033155340484619L12.400318848205567,5.033758340484619C12.401500848205567,5.035339340484619,12.402682848205567,5.03692134048462,12.403863848205566,5.038504340484619C13.704597848205566,6.782031340484619,13.705377848205567,9.213971340484619,12.406219848205566,10.958341340484619C12.404149848205567,10.961111340484619,12.402076848205567,10.963891340484619,12.400000848205567,10.96667134048462C12.399488848205566,10.967351340484619,12.398974848205567,10.968031340484618,12.398460848205566,10.968711340484619L12.397842848205567,10.969521340484619C12.297897848205567,11.10095134048462,12.152234848205566,11.16667134048462,11.999999848205567,11.16667134048462Z" fill-rule="evenodd" fill="#FF3B30" fill-opacity="1"/></g><g><path d="M13.220000115234376,12.833334832763672C13.113334115234375,12.833334832763672,13.013333115234374,12.800004832763673,12.920000115234375,12.733334832763672C12.699999815234374,12.566664832763673,12.653333415234375,12.253334832763672,12.820000115234375,12.033334832763671C14.599998115234374,9.659994832763672,14.599998115234374,6.339994832763672,12.820000115234375,3.966666832763672C12.653333415234375,3.7466668327636716,12.699999815234374,3.433333832763672,12.920000115234375,3.266666832763672C13.140000115234375,3.100000032763672,13.453334115234375,3.1466667327636717,13.620000115234376,3.3666668327636717C15.666668115234375,6.093334832763672,15.666668115234375,9.90666483276367,13.620000115234376,12.633334832763673C13.526667115234375,12.766664832763672,13.373334115234375,12.833334832763672,13.220000115234376,12.833334832763672Z" fill="#FF3B30" fill-opacity="1"/><path d="M15.154998115234374,8.004794832763672C15.153998115234375,9.638194832763672,14.642338115234375,11.271334832763673,13.620000115234376,12.633334832763673C13.526667115234375,12.766664832763672,13.373334115234375,12.833334832763672,13.220000115234376,12.833334832763672C13.113334115234375,12.833334832763672,13.013333115234374,12.800004832763673,12.920000115234375,12.733334832763672C12.704424115234374,12.570014832763672,12.655280515234375,12.265874832763672,12.810203415234374,12.046714832763671C12.812530015234374,12.043424832763671,12.814902615234375,12.040154832763672,12.817323215234374,12.036904832763671L12.820001115234374,12.033334832763671L12.820234115234374,12.033024832763672C14.599998115234374,9.659704832763673,14.599918115234376,6.339894832763672,12.820000115234375,3.966666832763672C12.653333415234375,3.7466668327636716,12.699999815234374,3.433333832763672,12.920000115234375,3.266666832763672C13.140000115234375,3.100000032763672,13.453334115234375,3.1466667327636717,13.620000115234376,3.3666668327636717Q13.621771115234376,3.369027832763672,13.623540115234375,3.371389832763672L13.623268115234374,3.3710228327636718C13.634907115234375,3.386552832763672,13.646481115234375,3.402117832763672,13.657988115234375,3.417717832763672C14.655008115234375,4.769374832763672,15.154018115234376,6.382164832763672,15.154998115234374,7.9952048327636716L15.154998115234374,8.004794832763672ZM13.620061115234375,3.366746832763672C13.621130115234376,3.368171832763672,13.622199115234375,3.369596832763672,13.623268115234374,3.3710228327636718Q13.621677115234375,3.3688808327636717,13.620061115234375,3.366746832763672Z" fill-rule="evenodd" fill="#FF3B30" fill-opacity="1"/></g><g><path d="M9.346663313465118,2.5199995552825927C8.60000331346512,2.106666555282593,7.646663313465118,2.2133333552825927,6.673333313465118,2.8199995552825925C6.673333313465118,2.8199995552825925,4.726663313465119,4.039999555282593,4.726663313465119,4.039999555282593C4.593333313465118,4.119999555282593,4.440003313465118,4.166669555282593,4.286663313465118,4.166669555282593C4.286663313465118,4.166669555282593,3.6666633134651185,4.166669555282593,3.6666633134651185,4.166669555282593C3.6666633134651185,4.166669555282593,3.3333333134651184,4.166669555282593,3.3333333134651184,4.166669555282593C1.7200003134651185,4.166669555282593,0.8333333134651184,5.053329555282593,0.8333333134651184,6.666669555282593C0.8333333134651184,6.666669555282593,0.8333333134651184,9.333329555282592,0.8333333134651184,9.333329555282592C0.8333333134651184,10.946669555282593,1.7200003134651185,11.833329555282592,3.3333333134651184,11.833329555282592C3.3333333134651184,11.833329555282592,3.6666633134651185,11.833329555282592,3.6666633134651185,11.833329555282592C3.6666633134651185,11.833329555282592,4.286663313465118,11.833329555282592,4.286663313465118,11.833329555282592C4.440003313465118,11.833329555282592,4.593333313465118,11.879999555282593,4.726663313465119,11.959999555282593C4.726663313465119,11.959999555282593,6.673333313465118,13.180019555282593,6.673333313465118,13.180019555282593C7.260003313465118,13.546619555282593,7.833333313465118,13.726619555282593,8.366663313465118,13.726619555282593C8.713333313465117,13.726619555282593,9.046663313465118,13.646619555282593,9.346663313465118,13.480019555282594C10.086663313465118,13.066619555282593,10.500003313465118,12.206669555282593,10.500003313465118,11.059999555282593C10.500003313465118,11.059999555282593,10.500003313465118,4.939999555282593,10.500003313465118,4.939999555282593C10.500003313465118,3.7933295552825927,10.086663313465118,2.9333335552825925,9.346663313465118,2.5199995552825927Z" fill="#FF3B30" fill-opacity="1"/><path d="M9.346663313465118,2.5199995552825927C8.60000331346512,2.106666555282593,7.646663313465118,2.2133333552825927,6.673333313465118,2.8199995552825925L4.726663313465119,4.039999555282593C4.593333313465118,4.119999555282593,4.440003313465118,4.166669555282593,4.286663313465118,4.166669555282593L3.3333333134651184,4.166669555282593C1.7200003134651185,4.166669555282593,0.8333333134651184,5.053329555282593,0.8333333134651184,6.666669555282593L0.8333333134651184,9.333329555282592C0.8333333134651184,10.946669555282593,1.7200003134651185,11.833329555282592,3.3333333134651184,11.833329555282592L4.286663313465118,11.833329555282592C4.440003313465118,11.833329555282592,4.593333313465118,11.879999555282593,4.726663313465119,11.959999555282593L6.673333313465118,13.180019555282593C7.260003313465118,13.546619555282593,7.833333313465118,13.726619555282593,8.366663313465118,13.726619555282593C8.713333313465117,13.726619555282593,9.046663313465118,13.646619555282593,9.346663313465118,13.480019555282594C10.086663313465118,13.066619555282593,10.500003313465118,12.206669555282593,10.500003313465118,11.059999555282593L10.500003313465118,4.939999555282593C10.500003313465118,3.7933295552825927,10.086663313465118,2.9333335552825925,9.346663313465118,2.5199995552825927ZM8.862353313465118,3.394889555282593L8.860723313465119,3.3939895552825927L8.859013313465118,3.3930495552825928Q8.213153313465117,3.038590555282593,7.202283313465118,3.6686495552825926L5.257713313465119,4.887349555282593Q4.792543313465119,5.166669555282593,4.286663313465118,5.166669555282593L3.3333333134651184,5.166669555282593Q1.8333333134651184,5.166669555282593,1.8333333134651184,6.666669555282593L1.8333333134651184,9.333329555282592Q1.8333333134651184,10.833329555282592,3.3333333134651184,10.833329555282592L4.286663313465118,10.833329555282592Q4.792543313465119,10.833329555282592,5.241163313465118,11.102509555282593L7.204373313465118,12.332619555282593Q7.834803313465119,12.726619555282593,8.366663313465118,12.726619555282593Q8.643543313465118,12.726619555282593,8.861023313465118,12.605819555282594Q9.500003313465118,12.248929555282594,9.500003313465118,11.059999555282593L9.500003313465118,4.939999555282593Q9.500003313465118,3.7541495552825928,8.862353313465118,3.394889555282593Z" fill-rule="evenodd" fill="#FF3B30" fill-opacity="1"/></g><g style="opacity:0;"></g></g></g></svg>