<svg xmlns="http://www.w3.org/2000/svg" xmlns:xlink="http://www.w3.org/1999/xlink" fill="none" version="1.1" width="16" height="16" viewBox="0 0 16 16"><g><g><g><g><path d="M13.499951953125,7.666673505859375C13.499951953125,10.888343505859375,10.888251953125,13.500043505859376,7.666581953125,13.500043505859376C7.666581953125,13.500043505859376,7.666581953125,14.500043505859376,7.666581953125,14.500043505859376C11.440551953125,14.500043505859376,14.499951953125,11.440643505859375,14.499951953125,7.666673505859375C14.499951953125,7.666673505859375,13.499951953125,7.666673505859375,13.499951953125,7.666673505859375C13.499951953125,7.666673505859375,13.499951953125,7.666673505859375,13.499951953125,7.666673505859375ZM7.666581953125,13.500043505859376C4.444921953125,13.500043505859376,1.833251953125,10.888343505859375,1.833251953125,7.666673505859375C1.833251953125,7.666673505859375,0.833251953125,7.666673505859375,0.833251953125,7.666673505859375C0.833251953125,11.440643505859375,3.892641953125,14.500043505859376,7.666581953125,14.500043505859376C7.666581953125,14.500043505859376,7.666581953125,13.500043505859376,7.666581953125,13.500043505859376C7.666581953125,13.500043505859376,7.666581953125,13.500043505859376,7.666581953125,13.500043505859376ZM1.833251953125,7.666673505859375C1.833251953125,4.445013505859375,4.444921953125,1.833343505859375,7.666581953125,1.833343505859375C7.666581953125,1.833343505859375,7.666581953125,0.833343505859375,7.666581953125,0.833343505859375C3.892641953125,0.833343505859375,0.833251953125,3.892733505859375,0.833251953125,7.666673505859375C0.833251953125,7.666673505859375,1.833251953125,7.666673505859375,1.833251953125,7.666673505859375C1.833251953125,7.666673505859375,1.833251953125,7.666673505859375,1.833251953125,7.666673505859375ZM7.666581953125,1.833343505859375C10.888251953125,1.833343505859375,13.499951953125,4.445013505859375,13.499951953125,7.666673505859375C13.499951953125,7.666673505859375,14.499951953125,7.666673505859375,14.499951953125,7.666673505859375C14.499951953125,3.892733505859375,11.440551953125,0.833343505859375,7.666581953125,0.833343505859375C7.666581953125,0.833343505859375,7.666581953125,1.833343505859375,7.666581953125,1.833343505859375C7.666581953125,1.833343505859375,7.666581953125,1.833343505859375,7.666581953125,1.833343505859375Z" fill="#1A1A1A" fill-opacity="1"/></g><g><path d="M14.313031953125,15.02020298828125C14.508291953125,15.21546298828125,14.824881953125,15.21546298828125,15.020141953125,15.02020298828125C15.215401953125,14.82494298828125,15.215401953125,14.50835298828125,15.020141953125,14.31309298828125C15.020141953125,14.31309298828125,14.313031953125,15.02020298828125,14.313031953125,15.02020298828125C14.313031953125,15.02020298828125,14.313031953125,15.02020298828125,14.313031953125,15.02020298828125ZM13.686804953125,12.97975898828125C13.491542953125,12.78449748828125,13.174960953125,12.78449748828125,12.979697953125,12.97975898828125C12.784436453125,13.17502198828125,12.784436453125,13.49160398828125,12.979697953125,13.68686598828125C12.979697953125,13.68686598828125,13.686804953125,12.97975898828125,13.686804953125,12.97975898828125C13.686804953125,12.97975898828125,13.686804953125,12.97975898828125,13.686804953125,12.97975898828125ZM15.020141953125,14.31309298828125C15.020141953125,14.31309298828125,13.686804953125,12.97975898828125,13.686804953125,12.97975898828125C13.686804953125,12.97975898828125,12.979697953125,13.68686598828125,12.979697953125,13.68686598828125C12.979697953125,13.68686598828125,14.313031953125,15.02020298828125,14.313031953125,15.02020298828125C14.313031953125,15.02020298828125,15.020141953125,14.31309298828125,15.020141953125,14.31309298828125C15.020141953125,14.31309298828125,15.020141953125,14.31309298828125,15.020141953125,14.31309298828125Z" fill="#1A1A1A" fill-opacity="1"/></g><g style="opacity:0;"></g></g></g></g></svg>