<svg xmlns="http://www.w3.org/2000/svg" xmlns:xlink="http://www.w3.org/1999/xlink" fill="none" version="1.1" width="68" height="68" viewBox="0 0 68 68"><g><rect x="0.10000000149011612" y="0.10000000149011612" width="67.79999999701977" height="67.79999999701977" rx="0" fill-opacity="0" stroke-opacity="1" stroke="#FFFFFF" fill="none" stroke-width="0.20000000298023224"/><g><path d="M60.3034917427063,23.448021030426027C60.3034917427063,23.448021030426027,43.4429917427063,20.997621030426025,43.4429917427063,20.997621030426025C43.4429917427063,20.997621030426025,35.9058917427063,5.717581030426025,35.9058917427063,5.717581030426025C35.6999917427063,5.299217030426026,35.3612917427063,4.960545030426025,34.9429917427063,4.754686030426026C33.8937917427063,4.236718030426025,32.6187917427063,4.668358030426026,32.0941917427063,5.717581030426025C32.0941917427063,5.717581030426025,24.5569917427063,20.997621030426025,24.5569917427063,20.997621030426025C24.5569917427063,20.997621030426025,7.696491742706299,23.448021030426027,7.696491742706299,23.448021030426027C7.2316517427062985,23.514421030426025,6.806647742706299,23.733621030426026,6.481256742706298,24.065621030426026C6.087877742706299,24.469921030426026,5.871107582706299,25.013921030426026,5.8785786487062985,25.577921030426026C5.886049712706299,26.142021030426026,6.117150742706299,26.680021030426026,6.521100742706299,27.073821030426025C6.521100742706299,27.073821030426025,18.7198917427063,38.967221030426025,18.7198917427063,38.967221030426025C18.7198917427063,38.967221030426025,15.837901742706299,55.761321030426025,15.837901742706299,55.761321030426025C15.7703117427063,56.15202103042603,15.813541742706299,56.55382103042603,15.9626917427063,56.92112103042602C16.1117917427063,57.288521030426026,16.3608917427063,57.60672103042602,16.6816917427063,57.839621030426024C17.002491742706297,58.07262103042603,17.382191742706297,58.21112103042603,17.7775917427063,58.23932103042603C18.173091742706298,58.267521030426025,18.5685917427063,58.18432103042603,18.9191917427063,57.99922103042603C18.9191917427063,57.99922103042603,33.9999917427063,50.07032103042602,33.9999917427063,50.07032103042602C33.9999917427063,50.07032103042602,49.0808917427063,57.99922103042603,49.0808917427063,57.99922103042603C49.492591742706296,58.218321030426026,49.9706917427063,58.29142103042602,50.4288917427063,58.21172103042603C51.5843917427063,58.01252103042602,52.3612917427063,56.91682103042603,52.1620917427063,55.761321030426025C52.1620917427063,55.761321030426025,49.2800917427063,38.967221030426025,49.2800917427063,38.967221030426025C49.2800917427063,38.967221030426025,61.478891742706296,27.073821030426025,61.478891742706296,27.073821030426025C61.8109917427063,26.748421030426027,62.0300917427063,26.323421030426026,62.0964917427063,25.858621030426026C62.275791742706296,24.696521030426027,61.4655917427063,23.620721030426026,60.3034917427063,23.448021030426027C60.3034917427063,23.448021030426027,60.3034917427063,23.448021030426027,60.3034917427063,23.448021030426027C60.3034917427063,23.448021030426027,60.3034917427063,23.448021030426027,60.3034917427063,23.448021030426027ZM44.1468917427063,37.29372103042603C44.1468917427063,37.29372103042603,46.544191742706296,51.25902103042603,46.544191742706296,51.25902103042603C46.544191742706296,51.25902103042603,33.9999917427063,44.67152103042603,33.9999917427063,44.67152103042603C33.9999917427063,44.67152103042603,21.4558917427063,51.265621030426026,21.4558917427063,51.265621030426026C21.4558917427063,51.265621030426026,23.853091742706297,37.30042103042602,23.853091742706297,37.30042103042602C23.853091742706297,37.30042103042602,13.7062617427063,27.405821030426026,13.7062617427063,27.405821030426026C13.7062617427063,27.405821030426026,27.7312917427063,25.367221030426027,27.7312917427063,25.367221030426027C27.7312917427063,25.367221030426027,33.9999917427063,12.663671030426025,33.9999917427063,12.663671030426025C33.9999917427063,12.663671030426025,40.2687917427063,25.367221030426027,40.2687917427063,25.367221030426027C40.2687917427063,25.367221030426027,54.2937917427063,27.405821030426026,54.2937917427063,27.405821030426026C54.2937917427063,27.405821030426026,44.1468917427063,37.29372103042603,44.1468917427063,37.29372103042603C44.1468917427063,37.29372103042603,44.1468917427063,37.29372103042603,44.1468917427063,37.29372103042603Z" fill="#12B858" fill-opacity="1"/></g></g></svg>