<svg xmlns="http://www.w3.org/2000/svg" xmlns:xlink="http://www.w3.org/1999/xlink" fill="none" version="1.1" width="112.0634765625" height="86.9337158203125" viewBox="0 0 112.0634765625 86.9337158203125"><g><g><g><g><g><path d="M57.276411987304684,0.404542140625C56.07888198730469,-0.432085859375,54.55098198730469,0.071524740625,53.86376398730469,1.529404140625C53.17653398730469,2.987264140625,53.590213887304685,4.847314140625,54.78775198730469,5.683934140625C54.78775198730469,5.683934140625,57.276411987304684,0.404542140625,57.276411987304684,0.404542140625C57.276411987304684,0.404542140625,57.276411987304684,0.404542140625,57.276411987304684,0.404542140625ZM71.31636198730469,38.214144140625C71.3948619873047,39.892244140625,72.57596198730468,41.175244140625,73.95446198730468,41.079544140625C75.33296198730469,40.983944140625,76.38676198730468,39.546044140625,76.30826198730469,37.867944140625C76.30826198730469,37.867944140625,71.31636198730469,38.214144140625,71.31636198730469,38.214144140625C71.31636198730469,38.214144140625,71.31636198730469,38.214144140625,71.31636198730469,38.214144140625ZM54.78775198730469,5.683934140625C59.553141987304684,9.013154140625,63.55936198730468,13.731244140625,66.44486198730469,19.410844140625C66.44486198730469,19.410844140625,70.69726198730469,16.208944140625,70.69726198730469,16.208944140625C67.37416198730469,9.668114140625,62.76143198730469,4.236494140625,57.276411987304684,0.404542140625C57.276411987304684,0.404542140625,54.78775198730469,5.683934140625,54.78775198730469,5.683934140625C54.78775198730469,5.683934140625,54.78775198730469,5.683934140625,54.78775198730469,5.683934140625ZM66.44486198730469,19.410844140625C69.33046198730469,25.090444140625,71.00456198730468,31.552944140625,71.31636198730469,38.214144140625C71.31636198730469,38.214144140625,76.30826198730469,37.867944140625,76.30826198730469,37.867944140625C75.94906198730469,30.193844140625,74.02036198730468,22.749944140625,70.69726198730469,16.208944140625C70.69726198730469,16.208944140625,66.44486198730469,19.410844140625,66.44486198730469,19.410844140625C66.44486198730469,19.410844140625,66.44486198730469,19.410844140625,66.44486198730469,19.410844140625Z" fill="#12B858" fill-opacity="1"/></g><g><path d="M56.3128,74.74980302734375C55.1372,73.86830302734376,53.5972,74.31400302734374,52.8731,75.74510302734376C52.149,77.17630302734375,52.5151,79.05110302734374,53.6907,79.93260302734376C53.6907,79.93260302734376,56.3128,74.74980302734375,56.3128,74.74980302734375C56.3128,74.74980302734375,56.3128,74.74980302734375,56.3128,74.74980302734375ZM56.0314,78.07730302734376C56.0314,78.07730302734376,57.4235,80.60520302734375,57.4235,80.60520302734375C58.155,80.00830302734374,58.5745,78.98690302734374,58.5279,77.91630302734376C58.4814,76.84580302734375,57.9755,75.88390302734375,57.1964,75.38440302734375C57.1964,75.38440302734375,56.0314,78.07730302734376,56.0314,78.07730302734376C56.0314,78.07730302734376,56.0314,78.07730302734376,56.0314,78.07730302734376ZM55.0455,78.76820302734376C55.0455,78.76820302734376,56.1624,81.49100302734375,56.1624,81.49100302734375C56.1993,81.46860302734375,56.2358,81.44500302734374,56.2718,81.42020302734375C56.2718,81.42020302734375,55.0455,78.76820302734376,55.0455,78.76820302734376C55.0455,78.76820302734376,55.0455,78.76820302734376,55.0455,78.76820302734376ZM54.9192,78.84480302734374C54.9192,78.84480302734374,53.8023,76.12200302734375,53.8023,76.12200302734375C53.7852,76.13250302734374,53.7681,76.14320302734376,53.7511,76.15400302734375C53.7511,76.15400302734375,54.9192,78.84480302734374,54.9192,78.84480302734374C54.9192,78.84480302734374,54.9192,78.84480302734374,54.9192,78.84480302734374ZM2.5,40.56040302734375C2.5,40.56040302734375,0,40.56040302734375,0,40.56040302734375C0,40.56040302734375,0,40.56150302734375,0,40.56150302734375C0,40.56150302734375,2.5,40.56040302734375,2.5,40.56040302734375C2.5,40.56040302734375,2.5,40.56040302734375,2.5,40.56040302734375ZM2.56239,37.96268302734375C2.56239,37.96268302734375,1.3907,35.27417302734375,1.3907,35.27417302734375C0.61962,35.77220302734375,0.11775,36.72378302734375,0.06668,37.78460302734375C0.06668,37.78460302734375,2.56239,37.96268302734375,2.56239,37.96268302734375C2.56239,37.96268302734375,2.56239,37.96268302734375,2.56239,37.96268302734375ZM19.2892,35.95511302734375C20.6699,35.95755302734375,21.7908,34.59694302734375,21.7928,32.91607302734375C21.7948,31.23521302734375,20.6772,29.87061155734375,19.2965,29.86815242494375C19.2965,29.86815242494375,19.2892,35.95511302734375,19.2892,35.95511302734375C19.2892,35.95511302734375,19.2892,35.95511302734375,19.2892,35.95511302734375ZM53.6907,79.93260302734376C54.0071,80.16990302734375,54.4192,80.48330302734375,54.8665,80.77020302734374C54.8665,80.77020302734374,57.1964,75.38440302734375,57.1964,75.38440302734375C56.929,75.21290302734374,56.6724,75.01940302734374,56.3128,74.74980302734375C56.3128,74.74980302734375,53.6907,79.93260302734376,53.6907,79.93260302734376C53.6907,79.93260302734376,53.6907,79.93260302734376,53.6907,79.93260302734376ZM54.6394,75.54920302734375C54.4313,75.71910302734375,54.297,75.78860302734375,53.8191,76.11610302734374C53.8191,76.11610302734374,56.2718,81.42020302734375,56.2718,81.42020302734375C56.4626,81.28960302734376,57.0016,80.94960302734376,57.4235,80.60520302734375C57.4235,80.60520302734375,54.6394,75.54920302734375,54.6394,75.54920302734375C54.6394,75.54920302734375,54.6394,75.54920302734375,54.6394,75.54920302734375ZM53.9286,76.04530302734375C53.9286,76.04530302734375,53.8023,76.12200302734375,53.8023,76.12200302734375C53.8023,76.12200302734375,56.0361,81.56780302734376,56.0361,81.56780302734376C56.0361,81.56780302734376,56.1624,81.49100302734375,56.1624,81.49100302734375C56.1624,81.49100302734375,53.9286,76.04530302734375,53.9286,76.04530302734375C53.9286,76.04530302734375,53.9286,76.04530302734375,53.9286,76.04530302734375ZM53.7511,76.15400302734375C48.6921,79.40900302734374,43.0253,81.02060302734375,37.3012,80.83190302734374C37.3012,80.83190302734374,37.1659,86.91660302734374,37.1659,86.91660302734374C43.7493,87.13360302734375,50.2674,85.28010302734376,56.0874,81.53580302734375C56.0874,81.53580302734375,53.7511,76.15400302734375,53.7511,76.15400302734375C53.7511,76.15400302734375,53.7511,76.15400302734375,53.7511,76.15400302734375ZM37.3012,80.83190302734374C31.5771,80.64330302734375,25.9908,78.66090302734375,21.0848,75.07780302734375C21.0848,75.07780302734375,18.5125,80.29740302734375,18.5125,80.29740302734375C24.1568,84.41960302734375,30.5825,86.69970302734376,37.1659,86.91660302734374C37.1659,86.91660302734374,37.3012,80.83190302734374,37.3012,80.83190302734374C37.3012,80.83190302734374,37.3012,80.83190302734374,37.3012,80.83190302734374ZM21.0848,75.07780302734375C16.1788,71.49470302734375,12.1202,66.43290302734374,9.30215,60.38470302734375C9.30215,60.38470302734375,4.95306,63.38770302734375,4.95306,63.38770302734375C8.19708,70.35030302734376,12.8682,76.17510302734375,18.5125,80.29740302734375C18.5125,80.29740302734375,21.0848,75.07780302734375,21.0848,75.07780302734375C21.0848,75.07780302734375,21.0848,75.07780302734375,21.0848,75.07780302734375ZM9.30215,60.38470302734375C6.48411,54.33640302734375,5.00218,47.50690302734375,5,40.55920302734375C5,40.55920302734375,0,40.56150302734375,0,40.56150302734375C0.00251,48.56200302734375,1.70904,56.42540302734375,4.95306,63.38770302734375C4.95306,63.38770302734375,9.30215,60.38470302734375,9.30215,60.38470302734375C9.30215,60.38470302734375,9.30215,60.38470302734375,9.30215,60.38470302734375ZM5,40.56040302734375C5,39.75451302734375,5.01937,38.94529302734375,5.05811,38.14076302734375C5.05811,38.14076302734375,0.06668,37.78460302734375,0.06668,37.78460302734375C0.02221,38.70826302734375,0,39.63625302734375,0,40.56040302734375C0,40.56040302734375,5,40.56040302734375,5,40.56040302734375C5,40.56040302734375,5,40.56040302734375,5,40.56040302734375ZM3.73409,40.65120302734375C8.52229,37.55851302734375,13.8648,35.94546302734375,19.2892,35.95511302734375C19.2892,35.95511302734375,19.2965,29.86815242494375,19.2965,29.86815242494375C13.0531,29.85706202734375,6.9033,31.71359302734375,1.3907,35.27417302734375C1.3907,35.27417302734375,3.73409,40.65120302734375,3.73409,40.65120302734375C3.73409,40.65120302734375,3.73409,40.65120302734375,3.73409,40.65120302734375Z" fill="#12B858" fill-opacity="1"/></g><g><path d="M55.00171797485352,80.3846C56.38241797485352,80.3846,57.50171797485352,79.022,57.50171797485352,77.3411C57.50171797485352,75.6603,56.38241797485352,74.2976,55.00171797485352,74.2976C55.00171797485352,74.2976,55.00171797485352,80.3846,55.00171797485352,80.3846C55.00171797485352,80.3846,55.00171797485352,80.3846,55.00171797485352,80.3846ZM54.962417974853516,77.2889C54.962417974853516,77.2889,56.72771797485352,75.1339,56.72771797485352,75.1339C56.593217974853516,74.9705,56.44371797485351,74.8263,56.28231797485351,74.7042C56.28231797485351,74.7042,54.962417974853516,77.2889,54.962417974853516,77.2889C54.962417974853516,77.2889,54.962417974853516,77.2889,54.962417974853516,77.2889ZM38.189537974853515,40.5603C38.189537974853515,40.5603,40.68952797485352,40.563,40.68952797485352,40.563C40.68952797485352,40.563,40.68952797485352,40.5603,40.68952797485352,40.5603C40.68952797485352,40.5603,38.189537974853515,40.5603,38.189537974853515,40.5603C38.189537974853515,40.5603,38.189537974853515,40.5603,38.189537974853515,40.5603ZM38.20966797485352,39.5149C38.20966797485352,39.5149,40.703867974853516,39.722,40.703867974853516,39.722C40.70642797485352,39.6764,40.708137974853514,39.6306,40.70900797485351,39.5848C40.70900797485351,39.5848,38.20966797485352,39.5149,38.20966797485352,39.5149C38.20966797485352,39.5149,38.20966797485352,39.5149,38.20966797485352,39.5149ZM56.03211797485352,3.04348C56.03211797485352,3.04348,57.27651797485352,0.403783,57.27651797485352,0.403783C56.505417974853515,-0.134925,55.55731797485352,-0.134572,54.78641797485352,0.404708C54.78641797485352,0.404708,56.03211797485352,3.04348,56.03211797485352,3.04348C56.03211797485352,3.04348,56.03211797485352,3.04348,56.03211797485352,3.04348ZM71.31621797485352,38.2134C71.3947179748535,39.8915,72.57591797485352,41.1745,73.95431797485352,41.0788C75.33281797485353,40.9832,76.38661797485352,39.5452,76.30811797485352,37.8672C76.30811797485352,37.8672,71.31621797485352,38.2134,71.31621797485352,38.2134C71.31621797485352,38.2134,71.31621797485352,38.2134,71.31621797485352,38.2134ZM55.00171797485352,74.2976C55.252217974853515,74.2976,55.534917974853514,74.3441,55.82811797485351,74.4703C56.122917974853515,74.597,56.36981797485352,74.7792,56.56841797485352,74.976C56.92421797485352,75.3285,57.10591797485351,75.7171,57.12901797485351,75.7643C57.26241797485352,76.0363,57.02761797485351,75.498,56.72771797485352,75.1339C56.72771797485352,75.1339,53.197017974853516,79.4438,53.197017974853516,79.4438C52.917217974853514,79.1041,52.69241797485351,78.5919,52.83561797485352,78.8839C52.863717974853515,78.9411,53.05021797485352,79.3382,53.412117974853516,79.6969C53.613717974853515,79.8967,53.863917974853514,80.0811,54.162517974853515,80.2095C54.45951797485351,80.3372,54.746417974853514,80.3846,55.00171797485352,80.3846C55.00171797485352,80.3846,55.00171797485352,74.2976,55.00171797485352,74.2976C55.00171797485352,74.2976,55.00171797485352,74.2976,55.00171797485352,74.2976ZM56.28231797485351,74.7042C51.50681797485352,71.0897,47.569417974853515,66.0578,44.841467974853515,60.0842C44.841467974853515,60.0842,40.47140797485351,63.0419,40.47140797485351,63.0419C43.612867974853515,69.921,48.14611797485352,75.7136,53.642417974853515,79.8735C53.642417974853515,79.8735,56.28231797485351,74.7042,56.28231797485351,74.7042C56.28231797485351,74.7042,56.28231797485351,74.7042,56.28231797485351,74.7042ZM44.841467974853515,60.0842C42.113537974853514,54.1106,40.68471797485351,47.3922,40.68952797485352,40.563C40.68952797485352,40.563,35.68953191375351,40.5578,35.68953191375351,40.5578C35.683991914853515,48.4245,37.329937974853515,56.1628,40.47140797485351,63.0419C40.47140797485351,63.0419,44.841467974853515,60.0842,44.841467974853515,60.0842C44.841467974853515,60.0842,44.841467974853515,60.0842,44.841467974853515,60.0842ZM40.68952797485352,40.5603C40.68952797485352,40.1877,40.69046797485352,39.9612,40.703867974853516,39.722C40.703867974853516,39.722,35.71546187485352,39.3079,35.71546187485352,39.3079C35.688751913853515,39.7847,35.68953191375351,40.2114,35.68953191375351,40.5603C35.68953191375351,40.5603,40.68952797485352,40.5603,40.68952797485352,40.5603C40.68952797485352,40.5603,40.68952797485352,40.5603,40.68952797485352,40.5603ZM40.70900797485351,39.5848C40.83932797485352,32.6832,42.43191797485352,25.9383,45.333697974853514,20.0002C45.333697974853514,20.0002,41.036597974853514,16.8881,41.036597974853514,16.8881C37.69502797485352,23.7262,35.860461974853514,31.4948,35.710331874853516,39.4449C35.710331874853516,39.4449,40.70900797485351,39.5848,40.70900797485351,39.5848C40.70900797485351,39.5848,40.70900797485351,39.5848,40.70900797485351,39.5848ZM45.333697974853514,20.0002C48.235517974853515,14.062,52.34881797485352,9.13065,57.27781797485352,5.68225C57.27781797485352,5.68225,54.78641797485352,0.404708,54.78641797485352,0.404708C49.11381797485352,4.37342,44.37814797485352,10.05,41.036597974853514,16.8881C41.036597974853514,16.8881,45.333697974853514,20.0002,45.333697974853514,20.0002C45.333697974853514,20.0002,45.333697974853514,20.0002,45.333697974853514,20.0002ZM54.78781797485351,5.68317C59.55321797485352,9.01241,63.55941797485352,13.7304,66.44491797485352,19.41C66.44491797485352,19.41,70.69731797485352,16.2081,70.69731797485352,16.2081C67.37421797485351,9.66723,62.761417974853515,4.23572,57.27651797485352,0.403783C57.27651797485352,0.403783,54.78781797485351,5.68317,54.78781797485351,5.68317C54.78781797485351,5.68317,54.78781797485351,5.68317,54.78781797485351,5.68317ZM66.44491797485352,19.41C69.33041797485352,25.0896,71.00441797485351,31.5521,71.31621797485352,38.2134C71.31621797485352,38.2134,76.30811797485352,37.8672,76.30811797485352,37.8672C75.94901797485352,30.1931,74.02051797485352,22.7491,70.69731797485352,16.2081C70.69731797485352,16.2081,66.44491797485352,19.41,66.44491797485352,19.41C66.44491797485352,19.41,66.44491797485352,19.41,66.44491797485352,19.41Z" fill="#12B858" fill-opacity="1"/></g><g><path d="M109.5634265625,40.561198681640626C109.5634265625,40.561198681640626,107.0634265625,40.561198681640626,107.0634265625,40.561198681640626C107.0634265625,40.561198681640626,107.0634265625,40.561998681640624,107.0634265625,40.561998681640624C107.0634265625,40.561998681640624,109.5634265625,40.561198681640626,109.5634265625,40.561198681640626C109.5634265625,40.561198681640626,109.5634265625,40.561198681640626,109.5634265625,40.561198681640626ZM56.0322265625,78.07719868164062C56.0322265625,78.07719868164062,54.7863965625,75.43859868164063,54.7863965625,75.43859868164063C54.0110065625,75.98109868164062,53.5327670205,76.98659868164063,53.532227020255,78.07539868164062C53.5316870205,79.16409868164062,54.0089465625,80.17029868164062,54.7837965625,80.71399868164062C54.7837965625,80.71399868164062,56.0322265625,78.07719868164062,56.0322265625,78.07719868164062C56.0322265625,78.07719868164062,56.0322265625,78.07719868164062,56.0322265625,78.07719868164062ZM73.8755265625,40.56039868164062C73.8755265625,40.56039868164062,71.3755265625,40.56039868164062,71.3755265625,40.56039868164062C71.3755265625,40.56039868164062,71.3755265625,40.56229868164063,71.3755265625,40.56229868164063C71.3755265625,40.56229868164063,73.8755265625,40.56039868164062,73.8755265625,40.56039868164062C73.8755265625,40.56039868164062,73.8755265625,40.56039868164062,73.8755265625,40.56039868164062ZM73.8131265625,38.034868681640624C73.8131265625,38.034868681640624,72.6367265625,35.34945868164063,72.6367265625,35.34945868164063C71.7742265625,35.90940868164063,71.2589265625,37.029878681640625,71.3176265625,38.217648681640625C71.3176265625,38.217648681640625,73.8131265625,38.034868681640624,73.8131265625,38.034868681640624C73.8131265625,38.034868681640624,73.8131265625,38.034868681640624,73.8131265625,38.034868681640624ZM109.5471265625,39.462608681640624C109.5471265625,39.462608681640624,112.0471265625,39.462608681640624,112.0471265625,39.462608681640624C112.0471265625,38.41005868164062,111.60042656249999,37.43222868164062,110.8659265625,36.877008681640625C110.8659265625,36.877008681640625,109.5471265625,39.462608681640624,109.5471265625,39.462608681640624C109.5471265625,39.462608681640624,109.5471265625,39.462608681640624,109.5471265625,39.462608681640624ZM109.5471265625,39.48704868164062C109.5471265625,39.48704868164062,107.0471265625,39.48704868164062,107.0471265625,39.48704868164062C107.0471265625,39.54266868164063,107.0484265625,39.598268681640626,107.0509265625,39.653808681640626C107.0509265625,39.653808681640626,109.5471265625,39.48704868164062,109.5471265625,39.48704868164062C109.5471265625,39.48704868164062,109.5471265625,39.48704868164062,109.5471265625,39.48704868164062ZM107.0634265625,40.561998681640624C107.06502656250001,47.63249868164063,105.5332265625,54.57919868164063,102.6214265625,60.70359868164063C102.6214265625,60.70359868164063,106.9488265625,63.75279868164063,106.9488265625,63.75279868164063C110.3011265625,56.701798681640625,112.0652265625,48.70279868164063,112.0634265625,40.56039868164062C112.0634265625,40.56039868164062,107.0634265625,40.561998681640624,107.0634265625,40.561998681640624C107.0634265625,40.561998681640624,107.0634265625,40.561998681640624,107.0634265625,40.561998681640624ZM102.6214265625,60.70359868164063C99.7096265625,66.82809868164063,95.5203265625,71.91479868164063,90.47432656250001,75.45109868164062C90.47432656250001,75.45109868164062,92.9688265625,80.72639868164063,92.9688265625,80.72639868164063C98.7747265625,76.65749868164062,103.5966265625,70.80369868164063,106.9488265625,63.75279868164063C106.9488265625,63.75279868164063,102.6214265625,60.70359868164063,102.6214265625,60.70359868164063C102.6214265625,60.70359868164063,102.6214265625,60.70359868164063,102.6214265625,60.70359868164063ZM90.47432656250001,75.45109868164062C85.4282265625,78.98749868164063,79.7035265625,80.84879868164063,73.8762265625,80.84679868164062C73.8762265625,80.84679868164062,73.87492656250001,86.93379868164062,73.87492656250001,86.93379868164062C80.5776265625,86.93599868164063,87.1630265625,84.79529868164062,92.9688265625,80.72639868164063C92.9688265625,80.72639868164063,90.47432656250001,75.45109868164062,90.47432656250001,75.45109868164062C90.47432656250001,75.45109868164062,90.47432656250001,75.45109868164062,90.47432656250001,75.45109868164062ZM73.8762265625,80.84679868164062C68.0489265625,80.84499868164062,62.3251865625,78.98009868164063,57.2806565625,75.44039868164063C57.2806565625,75.44039868164063,54.7837965625,80.71399868164062,54.7837965625,80.71399868164062C60.5878065625,84.78669868164062,67.1721265625,86.93159868164062,73.87492656250001,86.93379868164062C73.87492656250001,86.93379868164062,73.8762265625,80.84679868164062,73.8762265625,80.84679868164062C73.8762265625,80.84679868164062,73.8762265625,80.84679868164062,73.8762265625,80.84679868164062ZM57.2780565625,80.71579868164062C63.0860065625,76.65179868164063,67.91002656250001,70.80029868164063,71.26312656249999,63.75029868164062C71.26312656249999,63.75029868164062,66.9360265625,60.70019868164063,66.9360265625,60.70019868164063C64.0240265625,66.82309868164063,59.8335165625,71.90689868164063,54.7863965625,75.43859868164063C54.7863965625,75.43859868164063,57.2780565625,80.71579868164062,57.2780565625,80.71579868164062C57.2780565625,80.71579868164062,57.2780565625,80.71579868164062,57.2780565625,80.71579868164062ZM71.26312656249999,63.75029868164062C74.6162265625,56.69999868164062,76.3797265625,48.700698681640624,76.3755265625,40.558398681640625C76.3755265625,40.558398681640625,71.3755265625,40.56229868164063,71.3755265625,40.56229868164063C71.37922656250001,47.63149868164062,69.8481265625,54.57749868164062,66.9360265625,60.70019868164063C66.9360265625,60.70019868164063,71.26312656249999,63.75029868164062,71.26312656249999,63.75029868164062C71.26312656249999,63.75029868164062,71.26312656249999,63.75029868164062,71.26312656249999,63.75029868164062ZM76.3755265625,40.56039868164062C76.3755265625,39.65745868164063,76.3532265625,38.75472868164063,76.3086265625,37.85210868164062C76.3086265625,37.85210868164062,71.3176265625,38.217648681640625,71.3176265625,38.217648681640625C71.3562265625,38.998718681640625,71.3755265625,39.77954868164063,71.3755265625,40.56039868164062C71.3755265625,40.56039868164062,76.3755265625,40.56039868164062,76.3755265625,40.56039868164062C76.3755265625,40.56039868164062,76.3755265625,40.56039868164062,76.3755265625,40.56039868164062ZM74.9896265625,40.72029868164063C80.1376265625,37.37789868164062,85.9204265625,35.740528681640626,91.7558265625,35.97369868164063C91.7558265625,35.97369868164063,91.91982656249999,29.890014381640626,91.91982656249999,29.890014381640626C85.2091265625,29.621871681640624,78.5583265625,31.504748681640624,72.6367265625,35.34945868164063C72.6367265625,35.34945868164063,74.9896265625,40.72029868164063,74.9896265625,40.72029868164063C74.9896265625,40.72029868164063,74.9896265625,40.72029868164063,74.9896265625,40.72029868164063ZM91.7558265625,35.97369868164063C97.5913265625,36.206858681640625,103.2727265625,38.30220868164062,108.2284265625,42.04819868164063C108.2284265625,42.04819868164063,110.8659265625,36.877008681640625,110.8659265625,36.877008681640625C105.1651265625,32.567778681640625,98.6306265625,30.158156681640627,91.91982656249999,29.890014381640626C91.91982656249999,29.890014381640626,91.7558265625,35.97369868164063,91.7558265625,35.97369868164063C91.7558265625,35.97369868164063,91.7558265625,35.97369868164063,91.7558265625,35.97369868164063ZM107.0471265625,39.462608681640624C107.0471265625,39.462608681640624,107.0471265625,39.48704868164062,107.0471265625,39.48704868164062C107.0471265625,39.48704868164062,112.0471265625,39.48704868164062,112.0471265625,39.48704868164062C112.0471265625,39.48704868164062,112.0471265625,39.462608681640624,112.0471265625,39.462608681640624C112.0471265625,39.462608681640624,107.0471265625,39.462608681640624,107.0471265625,39.462608681640624C107.0471265625,39.462608681640624,107.0471265625,39.462608681640624,107.0471265625,39.462608681640624ZM107.0509265625,39.653808681640626C107.06282656249999,39.91959868164062,107.0634265625,40.191298681640625,107.0634265625,40.561198681640626C107.0634265625,40.561198681640626,112.0634265625,40.561198681640626,112.0634265625,40.561198681640626C112.0634265625,40.216798681640626,112.06412656250001,39.779698681640625,112.0434265625,39.320288681640626C112.0434265625,39.320288681640626,107.0509265625,39.653808681640626,107.0509265625,39.653808681640626C107.0509265625,39.653808681640626,107.0509265625,39.653808681640626,107.0509265625,39.653808681640626Z" fill="#12B858" fill-opacity="1"/></g><g><path d="M107.04323984375,39.4914975390625C107.04323984375,41.1723275390625,108.16253984375,42.5349275390625,109.54323984375,42.5349275390625C110.92393984374999,42.5349275390625,112.04323984375,41.1723275390625,112.04323984375,39.4914975390625C112.04323984375,39.4914975390625,107.04323984375,39.4914975390625,107.04323984375,39.4914975390625C107.04323984375,39.4914975390625,107.04323984375,39.4914975390625,107.04323984375,39.4914975390625ZM109.54323984375,39.4670475390625C109.54323984375,39.4670475390625,112.04323984375,39.4670475390625,112.04323984375,39.4670475390625C112.04323984375,38.417007539062496,111.59863984375,37.4411275390625,110.86693984375,36.8851775390625C110.86693984375,36.8851775390625,109.54323984375,39.4670475390625,109.54323984375,39.4670475390625C109.54323984375,39.4670475390625,109.54323984375,39.4670475390625,109.54323984375,39.4670475390625ZM90.66832984375,29.8708202555625C89.28762984375,29.8741802590625,88.17057498375,31.2395075390625,88.1733449843,32.9203775390625C88.17610498375,34.6012375390625,89.29762984375,35.9611275390625,90.67833984375,35.9577675390625C90.67833984375,35.9577675390625,90.66832984375,29.8708202555625,90.66832984375,29.8708202555625C90.66832984375,29.8708202555625,90.66832984375,29.8708202555625,90.66832984375,29.8708202555625ZM112.04323984375,39.4914975390625C112.04323984375,39.4914975390625,112.04323984375,39.4670475390625,112.04323984375,39.4670475390625C112.04323984375,39.4670475390625,107.04323984375,39.4670475390625,107.04323984375,39.4670475390625C107.04323984375,39.4670475390625,107.04323984375,39.4914975390625,107.04323984375,39.4914975390625C107.04323984375,39.4914975390625,112.04323984375,39.4914975390625,112.04323984375,39.4914975390625C112.04323984375,39.4914975390625,112.04323984375,39.4914975390625,112.04323984375,39.4914975390625ZM110.86693984375,36.8851775390625C104.81173984375,32.2844575390625,97.81033984375,29.8534237390625,90.66832984375,29.8708202555625C90.66832984375,29.8708202555625,90.67833984375,35.9577675390625,90.67833984375,35.9577675390625C96.88170984375,35.9426575390625,102.96203984375,38.0542575390625,108.21963984375,42.048927539062504C108.21963984375,42.048927539062504,110.86693984375,36.8851775390625,110.86693984375,36.8851775390625C110.86693984375,36.8851775390625,110.86693984375,36.8851775390625,110.86693984375,36.8851775390625Z" fill="#12B858" fill-opacity="1"/></g><g><path d="M1.3907182586669922,35.27502751953125C0.1710442586669922,36.06281751953125,-0.29311574133300783,37.90512751953125,0.3539942586669922,39.38995751953125C1.001104258666992,40.87475751953125,2.514438258666992,41.43985751953125,3.7341182586669923,40.65205751953125C3.7341182586669923,40.65205751953125,1.3907182586669922,35.27502751953125,1.3907182586669922,35.27502751953125C1.3907182586669922,35.27502751953125,1.3907182586669922,35.27502751953125,1.3907182586669922,35.27502751953125ZM19.289818258666994,35.95596751953125C20.67051825866699,35.95844751953125,21.791518258666994,34.59785751953125,21.793518258666992,32.91698751953125C21.79561825866699,31.23612751953125,20.677918258666992,29.87150398953125,19.29721825866699,29.86900833263125C19.29721825866699,29.86900833263125,19.289818258666994,35.95596751953125,19.289818258666994,35.95596751953125C19.289818258666994,35.95596751953125,19.289818258666994,35.95596751953125,19.289818258666994,35.95596751953125ZM3.7341182586669923,40.65205751953125C8.522528258666993,37.55922751953125,13.865218258666992,35.94618751953125,19.289818258666994,35.95596751953125C19.289818258666994,35.95596751953125,19.29721825866699,29.86900833263125,19.29721825866699,29.86900833263125C13.053618258666992,29.85775961953125,6.903558258666992,31.71429751953125,1.3907182586669922,35.27502751953125C1.3907182586669922,35.27502751953125,3.7341182586669923,40.65205751953125,3.7341182586669923,40.65205751953125C3.7341182586669923,40.65205751953125,3.7341182586669923,40.65205751953125,3.7341182586669923,40.65205751953125Z" fill="#12B858" fill-opacity="1"/></g></g><g><path d="M98.4976265625,52.0380116015625C98.84012656249999,50.4096716015625,98.0334265625,48.7516576015625,96.6958265625,48.3347377015625C95.3583265625,47.9178056015625,93.9963265625,48.8998506015625,93.6539265625,50.5281916015625C93.6539265625,50.5281916015625,98.4976265625,52.0380116015625,98.4976265625,52.0380116015625C98.4976265625,52.0380116015625,98.4976265625,52.0380116015625,98.4976265625,52.0380116015625ZM56.6494665625,75.2306916015625C55.3114165625,74.8159916015625,53.9506275625,75.8003916015625,53.6100674625,77.4293916015625C53.2695075625,79.0582916015625,54.0781375625,80.7148916015625,55.4161865625,81.1294916015625C55.4161865625,81.1294916015625,56.6494665625,75.2306916015625,56.6494665625,75.2306916015625C56.6494665625,75.2306916015625,56.6494665625,75.2306916015625,56.6494665625,75.2306916015625ZM93.6539265625,50.5281916015625C89.7446265625,69.1150916015625,73.2878265625,80.3860916015625,56.6494665625,75.2306916015625C56.6494665625,75.2306916015625,55.4161865625,81.1294916015625,55.4161865625,81.1294916015625C74.4376265625,87.0232916015625,93.83212656250001,74.2205916015625,98.4976265625,52.0380116015625C98.4976265625,52.0380116015625,93.6539265625,50.5281916015625,93.6539265625,50.5281916015625C93.6539265625,50.5281916015625,93.6539265625,50.5281916015625,93.6539265625,50.5281916015625Z" fill="#12B858" fill-opacity="1"/></g></g></g></g></svg>