<svg xmlns="http://www.w3.org/2000/svg" xmlns:xlink="http://www.w3.org/1999/xlink" fill="none" version="1.1" width="69.0625" height="68" viewBox="0 0 69.0625 68"><g><rect x="0.10000000149011612" y="0.10000000149011612" width="68.86249999701977" height="67.79999999701977" rx="0" fill-opacity="0" stroke-opacity="1" stroke="#FFFFFF" fill="none" stroke-width="0.20000000298023224"/><g><path d="M44.12173868560791,20.997621030426025L61.24573868560791,23.448021030426027C62.426038685607914,23.620721030426026,63.24883868560791,24.696521030426027,63.06673868560791,25.858621030426026C62.99933868560791,26.323421030426026,62.77673868560791,26.748421030426027,62.43953868560791,27.073821030426025L50.05003868560791,38.967221030426025L52.97713868560791,55.761321030426025C53.17943868560791,56.91682103042603,52.39043868560791,58.01252103042602,51.21683868560791,58.21172103042603C50.75153868560791,58.29142103042602,50.26593868560791,58.218321030426026,49.84773868560791,57.99922103042603L34.53123868560791,50.07032103042602L19.214738685607912,57.99922103042603C18.85863868560791,58.18432103042603,18.457038685607912,58.267521030426025,18.05543868560791,58.23932103042603C17.653738685607912,58.21112103042603,17.26813868560791,58.07262103042603,16.942338685607908,57.839621030426024C16.61653868560791,57.60672103042602,16.36353868560791,57.288521030426026,16.21213868560791,56.92112103042602C16.060638685607913,56.55382103042603,16.016738685607912,56.15202103042603,16.08533868560791,55.761321030426025L19.01243868560791,38.967221030426025L6.6229896856079105,27.073821030426025C6.21272768560791,26.680021030426026,5.97801631560791,26.142021030426026,5.97042851260791,25.577921030426026C5.96284071560791,25.013921030426026,6.18299768560791,24.469921030426026,6.58252368560791,24.065621030426026C6.91299868560791,23.733621030426026,7.34463868560791,23.514421030426025,7.8167486856079105,23.448021030426027L24.94073868560791,20.997621030426025L32.59563868560791,5.717581030426025C33.12843868560791,4.668358030426026,34.42333868560791,4.236718030426025,35.488938685607906,4.754686030426026C35.913838685607914,4.960545030426025,36.25783868560791,5.299217030426026,36.466938685607914,5.717581030426025L44.12173868560791,20.997621030426025Z" fill-rule="evenodd" fill="#12B858" fill-opacity="1"/></g></g></svg>