<svg xmlns="http://www.w3.org/2000/svg" xmlns:xlink="http://www.w3.org/1999/xlink" fill="none" version="1.1" width="401" height="168.44773864746094" viewBox="0 0 401 168.44773864746094"><g><g><path d="M16.755703814697267,129.23513864746093C-4.271716185302735,123.34690864746094,-1.2054061853027345,141.01153864746095,3.1753038146972656,141.01153864746095C4.975103814697266,141.01153864746095,8.705873814697267,141.44773864746094,13.251403814697266,141.44773864746094C13.251403814697266,141.44773864746094,27.050903814697264,141.44773864746094,27.050903814697264,141.44773864746094C44.573803814697264,141.44773864746094,49.611703814697265,140.28463864746095,49.83100381469727,139.92113864746094C51.364303814697266,128.36283864746093,42.091603814697265,129.45323864746095,37.126703814697265,130.76173864746093C37.92990381469727,126.47276864746094,37.082803814697264,117.80764964746093,27.269603814697266,117.45871854746093C17.456403814697264,117.10978664746094,16.171503814697267,125.16428864746094,16.755703814697267,129.23513864746093C16.755703814697267,129.23513864746093,16.755703814697267,129.23513864746093,16.755703814697267,129.23513864746093Z" fill="#91BF63" fill-opacity="1"/></g><g><ellipse cx="48.00000762939453" cy="106.44773864746094" rx="6" ry="6" fill="#91BF63" fill-opacity="1"/></g><g transform="matrix(1,0,0,-1,0,190.89547729492188)"><ellipse cx="39.00000762939453" cy="98.44773864746094" rx="3" ry="3" fill="#91BF63" fill-opacity="1"/></g><g transform="matrix(0.7238688468933105,-0.6899375319480896,0.6899375319480896,0.7238689064979553,-29.278478916120548,51.7406442206634)"><line x1="50.00000762939453" y1="61.44773864746094" x2="138.41381072998047" y2="61.44773864746094" fill-opacity="0" stroke-opacity="1" stroke="#F2F2F2" fill="none" stroke-width="2"/></g><g transform="matrix(0.7238688468933105,-0.6899375319480896,0.6899375319480896,0.7238689064979553,-23.162217414354927,279.02260916907903)"><line x1="337.00000381469727" y1="167.44773864746094" x2="425.4138069152832" y2="167.44773864746094" fill-opacity="0" stroke-opacity="1" stroke="#F2F2F2" fill="none" stroke-width="2"/></g></g></svg>